<?xml version="1.0" standalone="no"?>
<!DOCTYPE svg PUBLIC "-//W3C//DTD SVG 1.1//EN" "http://www.w3.org/Graphics/SVG/1.1/DTD/svg11.dtd" >
<svg xmlns="http://www.w3.org/2000/svg" xmlns:xlink="http://www.w3.org/1999/xlink" version="1.1">
<metadata>
Created by FontForge 20170731 at Wed Aug 29 11:48:49 2018
 By Aleksey,,,
Copyright (c) 2011 By Svetoslav Simov (c) Fontfabric, LLC. All rights reserved.
</metadata>
<defs>
<font id="Solomon-Sans-Normal-Italic" horiz-adv-x="568" >
  <font-face 
    font-family="Solomon Sans Normal Italic"
    font-weight="400"
    font-style="italic"
    font-stretch="normal"
    units-per-em="1000"
    panose-1="2 0 0 0 0 0 0 0 0 0"
    ascent="800"
    descent="-200"
    x-height="506"
    cap-height="700"
    bbox="-146 -218 1332 910"
    underline-thickness="50"
    underline-position="-200"
    unicode-range="U+0020-2248"
  />
<missing-glyph horiz-adv-x="520" 
d="M10 0l123 700h500l-123 -700h-500zM330 395l215 255h-340zM352 350l125 -255l90 510zM77 95l215 255l-125 255zM99 50h340l-125 255z" />
    <glyph glyph-name="f_f" unicode="ff" horiz-adv-x="609" 
d="M707 701l-13 -69q-49 3 -80 -18t-38 -64l-9 -52h100l-12 -67h-100l-76 -431h-78l76 431h-226l-76 -431h-78l76 431h-50l12 67h50l9 52q14 81 72 120.5t137 30.5l-13 -69q-49 3 -80 -18t-38 -64l-9 -52h226l9 52q14 81 72 120.5t137 30.5z" />
    <glyph glyph-name="fi" unicode="fi" horiz-adv-x="521" 
d="M441 0h-79l77 435h-189l-77 -435h-78l77 435h-50l12 72h50l8 43q15 81 72.5 120.5t136.5 30.5l-13 -69q-49 3 -80 -18t-38 -64l-8 -43h268zM550 612l16 92h-81l-16 -92h81z" />
    <glyph glyph-name="fl" unicode="fl" horiz-adv-x="538" 
d="M401 701l-13 -69q-49 3 -80 -18t-38 -64l-8 -46h100l-13 -72h-100l-76 -432h-78l76 432h-50l13 72h50l8 46q14 81 72 120.5t137 30.5zM516 -2l12 69q-48 -4 -61.5 16t-5.5 66q89 507 98 556h-79q-28 -159 -98 -556q-15 -83 19.5 -121t114.5 -30z" />
    <glyph glyph-name="f_f_i" unicode="ffi" horiz-adv-x="826" 
d="M549 433l-76 -433h-78l76 433h-221l-76 -433h-78l76 433h-50l12 67h50l9 50q15 81 72.5 120.5t136.5 30.5l-13 -69q-49 3 -80 -18t-38 -64l-9 -50h221l9 50q15 81 72.5 120.5t136.5 30.5l-13 -69q-49 3 -80 -18t-38 -64l-9 -50h274l-88 -500h-79l76 433h-195zM856 612
l16 92h-81l-16 -92h81z" />
    <glyph glyph-name="f_f_l" unicode="ffl" horiz-adv-x="850" 
d="M659 500l-12 -67h-98l-76 -433h-78l76 433h-221l-76 -433h-78l76 433h-50l12 67h50l9 50q15 81 72.5 120.5t136.5 30.5l-13 -69q-49 3 -80 -18t-38 -64l-9 -50h221l9 50q15 81 72.5 120.5t136.5 30.5l-13 -69q-49 3 -80 -18t-38 -64l-9 -50h98zM828 -2l12 69
q-48 -4 -61.5 16t-5.5 66l98 556h-79l-98 -556q-15 -83 19.5 -121t114.5 -30z" />
    <glyph glyph-name="f_j" unicode="fj" horiz-adv-x="560" 
d="M585 612q3 18 8 46.5t8 46.5h-81q-3 -18 -8 -46.5t-8 -46.5h81zM261 -198l12 69q49 -3 80 18t38 64l85 482h-213l-77 -435h-78l77 435h-50l12 72h50l8 43q15 81 72.5 120.5t136.5 30.5l-13 -71q-103 6 -118 -80l-8 -43h293l-98 -554q-15 -81 -72.5 -120t-136.5 -31z" />
    <glyph glyph-name=".notdef" horiz-adv-x="520" 
d="M10 0l123 700h500l-123 -700h-500zM330 395l215 255h-340zM352 350l125 -255l90 510zM77 95l215 255l-125 255zM99 50h340l-125 255z" />
    <glyph glyph-name=".null" horiz-adv-x="0" 
 />
    <glyph glyph-name="nonmarkingreturn" horiz-adv-x="333" 
 />
    <glyph glyph-name="space" unicode=" " horiz-adv-x="257" 
 />
    <glyph glyph-name="exclam" unicode="!" horiz-adv-x="319" 
d="M231 170h-82l88 530h91zM205 0h-90l18 103h90z" />
    <glyph glyph-name="quotedbl" unicode="&#x22;" horiz-adv-x="352" 
d="M159 518l34 193h79l-34 -193h-79zM296 518l34 193h79l-34 -193h-79z" />
    <glyph glyph-name="numbersign" unicode="#" horiz-adv-x="599" 
d="M638 496l-15 -76h-92l-47 -140h81l-15 -75h-91l-68 -204h-71l67 204h-127l-69 -204h-73l67 204h-91l15 75h101l46 140h-90l15 76h100l68 204h74l-67 -204h127l68 204h72l-67 -204h82zM458 420h-127l-46 -140h127z" />
    <glyph glyph-name="dollar" unicode="$" horiz-adv-x="562" 
d="M243 522q-7 -32 0.5 -55t31 -37.5t39.5 -20.5t46 -14q21 -6 38 -11.5t36.5 -13.5t34 -17.5t29 -22t23 -28.5t14 -35.5t5 -44t-6.5 -52.5q-18 -80 -80 -127.5t-141 -57.5l-16 -91h-73l16 91q-61 9 -106 47t-57 101l71 34q11 -50 49 -80.5t91 -30.5q63 -1 108 30.5t58 87.5
q4 17 4 32t-2.5 26.5t-9.5 22t-13.5 18t-18 14.5t-20.5 11.5t-22.5 9.5t-22 7.5t-22.5 6.5q-41 12 -68.5 24.5t-56 35t-38.5 59t0 85.5q16 79 73.5 127.5t130.5 58.5l16 91h73l-16 -90q57 -9 98 -43.5t53 -90.5l-69 -31q-11 44 -46.5 68.5t-80.5 25.5q-52 0 -95 -30.5
t-57 -89.5z" />
    <glyph glyph-name="percent" unicode="%" horiz-adv-x="844" 
d="M493 566q0 -78 -62.5 -136t-141.5 -58q-63 0 -104 42t-41 104q0 78 63 136.5t142 58.5q63 0 103.5 -42t40.5 -105zM820 182q0 -78 -62.5 -136t-141.5 -58q-63 0 -104.5 42t-41.5 104q0 78 63 136t143 58q62 0 103 -42t41 -104zM748 174q0 38 -23.5 64.5t-59.5 26.5
q-48 0 -85 -37t-37 -86q0 -38 23.5 -63.5t60.5 -25.5q47 0 84 36.5t37 84.5zM739 742h86l-591 -779h-85zM422 559q0 38 -23.5 64t-61.5 26q-48 0 -85 -37t-37 -86q0 -38 23.5 -64t61.5 -26q49 0 85.5 37t36.5 86z" />
    <glyph glyph-name="ampersand" unicode="&#x26;" horiz-adv-x="662" 
d="M391 379l110 -148q59 79 65 87l63 -36l-85 -113l100 -142h-105l-52 75q-105 -110 -220 -110q-79 0 -128.5 46.5t-49.5 124.5q0 45 13.5 80.5t42.5 63.5t54 45t69 42q-48 72 -48 132q0 82 63 133.5t144 51.5q57 0 96.5 -36.5t39.5 -94.5q0 -39 -13.5 -70.5t-41 -55.5
t-52.5 -39.5t-65 -35.5zM445 160l-136 179q-40 -23 -65 -40.5t-48.5 -50.5t-23.5 -70q0 -48 33 -77.5t84 -29.5q76 0 156 89zM411 635q-42 0 -74 -28.5t-32 -68.5q0 -45 43 -107q30 14 46.5 23.5t40.5 27t36 39t12 46.5q0 30 -20 49t-52 19z" />
    <glyph glyph-name="quotesingle" unicode="'" horiz-adv-x="213" 
d="M158 518l34 193h79l-34 -193h-79z" />
    <glyph glyph-name="parenleft" unicode="(" horiz-adv-x="390" 
d="M212 283q0 -103 39 -198.5t111 -142.5l-16 -92q-101 58 -159 175.5t-58 249.5q0 172 112 335.5t282 244.5l-16 -92q-129 -70 -212 -207t-83 -273z" />
    <glyph glyph-name="parenright" unicode=")" horiz-adv-x="389" 
d="M302 421q0 104 -39.5 199.5t-110.5 142.5l16 92q100 -58 158 -175.5t58 -249.5q0 -173 -112 -336t-281 -244l16 92q128 69 211.5 206t83.5 273z" />
    <glyph glyph-name="asterisk" unicode="*" horiz-adv-x="470" 
d="M517 538l-147 -43l68 -116l-65 -41l-62 119l-104 -119l-50 41l107 116l-130 43l34 66l128 -46l24 144h70l-28 -144l145 46z" />
    <glyph glyph-name="plus" unicode="+" horiz-adv-x="652" 
d="M133 290l14 79h210l36 204h77l-36 -204h201l-14 -79h-201l-36 -206h-77l36 206h-210z" />
    <glyph glyph-name="comma" unicode="," horiz-adv-x="263" 
d="M8 -109l103 216h92l-120 -216h-75z" />
    <glyph glyph-name="hyphen" unicode="-" horiz-adv-x="458" 
d="M143 272l14 79h270l-14 -79h-270z" />
    <glyph glyph-name="period" unicode="." horiz-adv-x="264" 
d="M181 -2h-100l19 109h100z" />
    <glyph glyph-name="slash" unicode="/" horiz-adv-x="422" 
d="M542 778l-436 -843h-85l437 843h84z" />
    <glyph glyph-name="zero" unicode="0" horiz-adv-x="611" 
d="M184 198q-11 -62 29.5 -98.5t103.5 -36.5q62 0 115.5 37t64.5 98l54 307q11 62 -31 98.5t-105 35.5q-62 -1 -114 -37t-63 -97zM156 505q17 98 96 153t175 56q98 2 161 -53.5t45 -155.5l-54 -307q-15 -89 -85 -145q-80 -65 -190 -65q-112 -2 -170 65q-48 56 -32 145z" />
    <glyph glyph-name="one" unicode="1" horiz-adv-x="326" 
d="M254 623h-92l14 78h174l-124 -701h-82z" />
    <glyph glyph-name="two" unicode="2" horiz-adv-x="569" 
d="M397 633q-54 2 -99.5 -23.5t-74.5 -73.5l-62 32q41 73 108 110.5t144 35.5q95 -4 143.5 -61.5t36.5 -137.5q-15 -88 -106 -171l-293 -269h327l-14 -75h-429l-13 60l376 342q67 60 75 112q9 49 -23 83t-96 36z" />
    <glyph glyph-name="three" unicode="3" horiz-adv-x="559" 
d="M67 133l68 34q15 -48 56 -75.5t91 -27.5q64 0 117 44t53 118q0 51 -31 83.5t-79 32.5h-56l13 73h56q58 0 96 31t38 93q0 46 -30 71.5t-75 25.5q-44 0 -88.5 -23t-70.5 -63l-53 35q36 60 97 93.5t123 33.5q74 0 127 -43t53 -120q0 -54 -29.5 -100t-75.5 -66
q88 -52 64 -181q-18 -98 -96.5 -156t-169.5 -58q-70 0 -125.5 38t-72.5 107z" />
    <glyph glyph-name="four" unicode="4" horiz-adv-x="546" 
d="M567 701l-86 -492h56l-14 -76h-56l-23 -133h-82l23 133h-281l-41 73l418 495h86zM399 209l68 375l-306 -374z" />
    <glyph glyph-name="five" unicode="5" horiz-adv-x="582" 
d="M73 133l73 34q14 -46 57 -73t93 -27q86 0 140 58t54 131q0 55 -34 93t-100 38q-99 0 -173 -39l-44 -2l116 354h350l-14 -78h-283l-61 -181q62 22 124 22q98 -1 149.5 -58t51.5 -139q0 -106 -81 -191t-210 -85q-74 0 -131 37t-77 106z" />
    <glyph glyph-name="six" unicode="6" horiz-adv-x="603" 
d="M305 -10q-99 0 -152 59t-53 144q0 87 68 172l267 335h95l-192 -241q32 4 50 4q103 0 154.5 -56.5t51.5 -138.5q0 -107 -80 -192.5t-209 -85.5zM375 387q-78 0 -135.5 -52.5t-57.5 -129.5q0 -57 35 -97.5t101 -40.5q86 0 140 58t54 130q0 56 -35 94t-102 38z" />
    <glyph glyph-name="seven" unicode="7" horiz-adv-x="501" 
d="M487 622h-337l14 80h413l17 -56l-451 -646h-93z" />
    <glyph glyph-name="eight" unicode="8" horiz-adv-x="587" 
d="M288 -14q-81 0 -137.5 49t-56.5 134q0 135 132 210q-47 37 -47 114q0 100 73 160t165 60q72 0 121.5 -42.5t49.5 -116.5q0 -50 -25 -97.5t-72 -77.5q88 -63 66 -177q-19 -100 -98 -158t-171 -58zM403 637q-80 0 -120 -64q-33 -54 -13 -105q22 -55 94 -55q78 0 119 63
q35 53 16 105q-23 55 -96 56zM351 343q-92 0 -143 -74q-43 -62 -26 -126q17 -67 89 -79q15 -2 31 -2q94 1 145 74q43 62 26 126q-17 66 -91 79q-15 2 -31 2z" />
    <glyph glyph-name="nine" unicode="9" horiz-adv-x="605" 
d="M424 709q99 0 152 -59t53 -144q0 -87 -68 -172l-267 -335h-95l192 241q-32 -4 -50 -4q-103 0 -154.5 56.5t-51.5 138.5q0 107 80 192.5t209 85.5zM354 312q78 0 135.5 52.5t57.5 129.5q0 57 -35 97.5t-101 40.5q-86 0 -140 -58t-54 -130q0 -56 35.5 -94t101.5 -38z" />
    <glyph glyph-name="colon" unicode=":" horiz-adv-x="302" 
d="M197 -2h-100l19 109h100zM265 386h-100l20 109h100z" />
    <glyph glyph-name="semicolon" unicode=";" horiz-adv-x="303" 
d="M265 386h-100l19 109h100zM22 -120l103 216h92l-120 -216h-75z" />
    <glyph glyph-name="less" unicode="&#x3c;" horiz-adv-x="505" 
d="M535 529l-16 -90l-333 -153l279 -152l-15 -87l-364 209l11 60z" />
    <glyph glyph-name="equal" unicode="=" horiz-adv-x="635" 
d="M160 337l14 79h433l-14 -79h-433zM126 142l14 79h433l-14 -79h-433z" />
    <glyph glyph-name="greater" unicode="&#x3e;" horiz-adv-x="504" 
d="M141 438l16 91l363 -213l-10 -60l-438 -209l16 90l332 149z" />
    <glyph glyph-name="question" unicode="?" horiz-adv-x="530" 
d="M135 620l11 11q41 42 96.5 64.5t112.5 22.5q92 0 150 -56t40 -153q-16 -89 -79.5 -146.5t-155.5 -73.5l-33 -144h-71l31 207q86 1 157 51.5t71 123.5q0 53 -36.5 84.5t-88.5 31.5q-40 0 -82 -18.5t-72 -49.5zM263 1h-87l16 93h87z" />
    <glyph glyph-name="at" unicode="@" horiz-adv-x="813" 
d="M732 473l-2 3q-28 43 -80 67t-115 24q-129 0 -226.5 -92.5t-120.5 -211.5q-22 -113 31.5 -191.5t189.5 -78.5q51 0 107 21l22 -64q-77 -28 -142 -28q-72 0 -127.5 19t-88.5 51.5t-53.5 76t-21.5 93t7 102.5q13 70 50.5 136.5t92.5 120t131.5 86t159.5 32.5q127 0 206 -72
t79 -183q0 -64 -27 -126t-69 -105.5t-93 -70.5t-98 -27q-26 0 -42 15t-11 47q-46 -58 -126 -58q-50 0 -81 38.5t-31 89.5q0 65 35 134.5t102 119.5t145 50q31 0 57.5 -18.5t26.5 -49.5l20 35l79 -3l-135 -270q-21 -41 -15 -49q3 -4 11 -4q51 0 113.5 82.5t62.5 163.5
q0 60 -23 95zM330 195q0 -28 15 -44.5t41 -16.5q63 0 123 77t60 142q0 63 -52 63q-53 1 -98 -40t-67 -91.5t-22 -89.5z" />
    <glyph glyph-name="A" unicode="A" horiz-adv-x="632" 
d="M13 0l375 705h101l130 -705h-87l-42 224h-271l-118 -224h-88zM258 300h219l-53 318z" />
    <glyph glyph-name="B" unicode="B" horiz-adv-x="609" 
d="M255 410h128q69 0 110 38.5t41 87.5q0 40 -28.5 67t-83.5 27h-128zM370 333h-128l-46 -257h128q85 0 134.5 41t49.5 101q0 48 -35 81.5t-103 33.5zM612 547q0 -103 -110 -170q53 -28 72.5 -75t9.5 -101q-18 -101 -93.5 -151t-180.5 -50h-209l124 704h210q77 0 127 -43
t50 -114z" />
    <glyph glyph-name="C" unicode="C" horiz-adv-x="729" 
d="M771 607l-63 -55q-69 88 -186 85q-98 -1 -175 -52t-116 -126t-39 -156q0 -100 59.5 -169.5t169.5 -69.5q62 0 124.5 27t110.5 74l49 -48q-61 -60 -138.5 -94.5t-158.5 -34.5q-144 0 -222 88t-78 215q0 76 30.5 151t84.5 135.5t136 98t177 37.5q148 0 235 -106z" />
    <glyph glyph-name="D" unicode="D" horiz-adv-x="725" 
d="M441 705q144 1 219.5 -84.5t75.5 -210.5q0 -101 -48.5 -193.5t-146.5 -154.5t-223 -62h-217l124 705h216zM330 76q144 -2 231.5 96t92.5 226q4 103 -53 167t-171 64h-136l-98 -553h134z" />
    <glyph glyph-name="E" unicode="E" horiz-adv-x="531" 
d="M586 704l-14 -77h-292l-41 -237h288l-14 -77h-288l-42 -234h293l-14 -78h-375l124 703h375z" />
    <glyph glyph-name="F" unicode="F" horiz-adv-x="518" 
d="M599 701l-13 -77h-292l-42 -238h288l-14 -77h-288l-54 -308h-83l123 700h375z" />
    <glyph glyph-name="G" unicode="G" horiz-adv-x="821" 
d="M549 713q83 0 154 -33t109 -91l-67 -50q-30 45 -88 71.5t-121 26.5q-72 0 -137 -29.5t-109.5 -77t-70.5 -107t-26 -118.5q0 -100 59.5 -171t169.5 -71q95 0 185.5 61t116.5 155h-313l13 76h404q-28 -155 -145.5 -261.5t-273.5 -106.5q-98 0 -167.5 44.5t-100.5 112
t-31 149.5q0 103 54.5 198.5t157.5 158.5t227 63z" />
    <glyph glyph-name="H" unicode="H" horiz-adv-x="688" 
d="M505 0l55 312h-321l-55 -312h-83l124 703h83l-56 -317h321l56 317h83l-124 -703h-83z" />
    <glyph glyph-name="I" unicode="I" horiz-adv-x="284" 
d="M101 0l124 703h82l-124 -703h-82z" />
    <glyph glyph-name="J" unicode="J" horiz-adv-x="555" 
d="M73 167l79 16q1 -55 35.5 -86t83.5 -32q53 -1 97 34t55 98l76 433h-146l12 70h227l-89 -503q-17 -99 -88 -154t-156 -55q-77 0 -130 46.5t-56 132.5z" />
    <glyph glyph-name="K" unicode="K" horiz-adv-x="630" 
d="M225 705h83l-61 -348l382 348h91l-336 -316l223 -389h-97l-191 335l-89 -76l-46 -259h-83z" />
    <glyph glyph-name="L" unicode="L" horiz-adv-x="478" 
d="M468 77l-14 -77h-353l123 700h83l-109 -623h270z" />
    <glyph glyph-name="M" unicode="M" horiz-adv-x="851" 
d="M479 95h-71l-129 462l-98 -557h-80l124 704h105l132 -502l307 502h106l-124 -704h-83l97 552z" />
    <glyph glyph-name="N" unicode="N" horiz-adv-x="757" 
d="M781 700l-123 -700h-116l-256 586l-103 -586h-82l123 700h99l269 -610l107 610h82z" />
    <glyph glyph-name="O" unicode="O" horiz-adv-x="820" 
d="M536 714q137 0 217.5 -90t80.5 -223q0 -115 -60 -211t-157.5 -150t-208.5 -54q-130 0 -214.5 90t-84.5 221q0 116 58.5 212.5t156.5 150.5t212 54zM192 299q0 -111 66.5 -174t162.5 -63q59 0 117 22.5t106 63.5t77.5 106.5t29.5 144.5q0 117 -64 180.5t-165 58.5
q-59 -3 -116.5 -26.5t-106 -64.5t-78 -106t-29.5 -142z" />
    <glyph glyph-name="P" unicode="P" horiz-adv-x="583" 
d="M228 256l-45 -256h-82l124 703h210q97 0 148.5 -56t51.5 -136q0 -100 -76.5 -177.5t-201.5 -77.5h-129zM370 332q81 0 131 51.5t50 114.5q0 53 -33 91t-96 38h-128l-52 -295h128z" />
    <glyph glyph-name="Q" unicode="Q" horiz-adv-x="832" 
d="M511 232l65 55l90 -111q86 99 86 222q0 111 -66.5 175t-163.5 64q-59 0 -117 -23t-105.5 -65t-77 -107.5t-29.5 -143.5q0 -111 66.5 -174t162.5 -63q97 0 181 58zM711 122l54 -66l-65 -55l-53 66q-113 -82 -238 -82q-130 0 -214.5 90.5t-84.5 220.5q0 107 61 204t160 155
t206 58q130 0 214 -91t84 -222q0 -151 -124 -278z" />
    <glyph glyph-name="R" unicode="R" horiz-adv-x="616" 
d="M401 286l175 -286h-103l-169 285h-70l-50 -285h-83l124 701h223q94 0 150 -42.5t56 -130.5q0 -116 -71 -176t-182 -66zM247 356h141q85 0 133.5 40.5t48.5 120.5q0 108 -135 108h-141z" />
    <glyph glyph-name="S" unicode="S" horiz-adv-x="560" 
d="M236 526q-7 -31 0.5 -54t30.5 -37.5t40.5 -21t45.5 -14.5q21 -6 38.5 -11.5t36.5 -13.5t33.5 -17.5t28.5 -22.5t22.5 -29t14 -35t5 -44t-6.5 -53q-20 -90 -95.5 -138.5t-163.5 -48.5q-71 0 -127 39.5t-70 110.5l71 35q10 -50 49 -80.5t92 -30.5q62 -1 106.5 31t58.5 87
q9 36 1 62.5t-32 43t-44 25t-51 17.5q-40 11 -68 23.5t-56.5 35.5t-38.5 59.5t0 85.5q18 90 88.5 139.5t153.5 49.5q70 0 121.5 -36t63.5 -101l-69 -31q-10 45 -46 69.5t-81 24.5q-52 1 -95.5 -29.5t-56.5 -89.5z" />
    <glyph glyph-name="T" unicode="T" horiz-adv-x="451" 
d="M134 702h431l-14 -80h-174l-110 -622h-83l110 622h-174z" />
    <glyph glyph-name="U" unicode="U" horiz-adv-x="655" 
d="M214 700h83l-88 -498q-11 -66 26.5 -103t99.5 -38q63 -1 116 36.5t65 104.5l88 498h83l-88 -498q-18 -103 -99 -160.5t-178 -56.5q-95 1 -154.5 58.5t-41.5 158.5z" />
    <glyph glyph-name="V" unicode="V" horiz-adv-x="627" 
d="M366 -2h-101l-129 706h89l107 -615l322 615h87z" />
    <glyph glyph-name="W" unicode="W" horiz-adv-x="954" 
d="M627 614l69 -521l267 609h85l-318 -705h-101l-64 471q-37 -77 -115.5 -236t-115.5 -235h-101l-70 705h86l51 -610l254 522h73z" />
    <glyph glyph-name="X" unicode="X" horiz-adv-x="643" 
d="M738 700l-300 -350q28 -55 89.5 -174t88.5 -175h-100l-139 281l-239 -281h-101l303 349l-178 350h99l140 -277q186 217 238 277h99z" />
    <glyph glyph-name="Y" unicode="Y" horiz-adv-x="589" 
d="M698 705l-315 -426l-49 -279h-81l49 279q-24 62 -80 208t-84 218h94l126 -339q231 320 245 339h95z" />
    <glyph glyph-name="Z" unicode="Z" 
d="M58 0l14 80l345 406l128 145h-364l13 74h445l-13 -76l-331 -392l-145 -162h378l-13 -75h-457z" />
    <glyph glyph-name="bracketleft" unicode="[" horiz-adv-x="311" 
d="M412 787l-13 -71h-86l-130 -732h86l-12 -69h-167l155 872h167z" />
    <glyph glyph-name="backslash" unicode="\" horiz-adv-x="423" 
d="M295 -65l-138 843h84l139 -843h-85z" />
    <glyph glyph-name="bracketright" unicode="]" horiz-adv-x="312" 
d="M162 716l13 71h167l-153 -872h-167l12 69h86l128 732h-86z" />
    <glyph glyph-name="asciicircum" unicode="^" horiz-adv-x="609" 
d="M123 301l278 399h54l137 -399h-89l-94 289l-199 -289h-87z" />
    <glyph glyph-name="underscore" unicode="_" horiz-adv-x="582" 
d="M33 0h511l-14 -78h-511z" />
    <glyph glyph-name="grave" unicode="`" horiz-adv-x="509" 
d="M397 761l-64 115h93l45 -115h-74z" />
    <glyph glyph-name="a" unicode="a" 
d="M493 0h-69l3 56q-54 -64 -130 -64q-102 0 -156 57t-54 153q0 130 86 221t216 91q110 0 188 -37zM440 126l54 303q-41 18 -105 18q-90 0 -159 -65.5t-70 -167.5q-1 -76 37.5 -116.5t114.5 -36.5q75 4 128 65z" />
    <glyph glyph-name="b" unicode="b" horiz-adv-x="574" 
d="M204 700h76l-39 -222q52 35 116 35q104 0 160.5 -58.5t56.5 -155.5q0 -134 -82.5 -221t-217.5 -87q-98 0 -189 33zM228 410l-58 -332q49 -19 104 -19q100 0 162.5 59.5t62.5 169.5q0 81 -41.5 119.5t-115.5 33.5q-63 -3 -114 -31z" />
    <glyph glyph-name="c" unicode="c" horiz-adv-x="526" 
d="M561 449l-53 -53q-46 52 -126 52q-82 1 -147.5 -63t-69.5 -161q-3 -73 34 -117.5t116 -44.5q77 0 148 56l35 -55q-86 -72 -195 -72q-82 0 -134 37t-70 93t-11 126q10 107 96.5 189.5t211.5 82.5q105 0 165 -70z" />
    <glyph glyph-name="d" unicode="d" horiz-adv-x="573" 
d="M540 700h76l-119 -676q-104 -33 -201 -33q-98 0 -153 60.5t-55 154.5q0 132 85.5 219.5t223.5 87.5q63 0 104 -35zM431 78l59 332q-44 29 -103 31q-89 2 -156.5 -58.5t-67.5 -170.5q0 -76 42 -114.5t115 -38.5q54 0 111 19z" />
    <glyph glyph-name="e" unicode="e" horiz-adv-x="607" 
d="M323 60q96 0 160 70l53 -38q-94 -103 -226 -103q-105 0 -160.5 65t-55.5 157q0 118 87 213t222 96q120 1 176 -85t16 -208h-427q-8 -76 34.5 -121.5t120.5 -45.5zM180 290h356q10 73 -29.5 117.5t-115.5 43.5q-78 -1 -133.5 -47.5t-77.5 -113.5z" />
    <glyph glyph-name="f" unicode="f" horiz-adv-x="296" 
d="M407 701l-11 -63q-53 8 -88 -15t-43 -73l-7 -42h109l-11 -63h-110l-78 -445h-73l78 445h-83l11 63h84l7 42q14 81 73 121t142 30z" />
    <glyph glyph-name="g" unicode="g" horiz-adv-x="577" 
d="M96 250q21 119 105 189t205 70q92 0 173 -38l-82 -466q-16 -93 -76.5 -148.5t-131.5 -64.5t-140.5 15.5t-105.5 78.5l56 49q24 -37 72.5 -57t99.5 -18t95 39t56 106l7 39q-26 -22 -54.5 -34t-47.5 -14t-48 -3q-99 -2 -150.5 74.5t-32.5 182.5zM162 216q-4 -56 23.5 -96
t70 -54t94.5 0.5t93 59.5l53 301q-38 15 -95 15q-98 0 -165 -59.5t-74 -166.5z" />
    <glyph glyph-name="h" unicode="h" horiz-adv-x="606" 
d="M205 701h78l-41 -229q58 42 139 43q106 -2 163 -63t38 -168l-50 -284h-78l50 284q15 75 -23 115t-110 45q-76 4 -141 -38l-72 -406h-77z" />
    <glyph glyph-name="i" unicode="i" horiz-adv-x="241" 
d="M160 0h-79l90 512h79zM265 592h-81q9 48 20 112h81q-11 -64 -20 -112z" />
    <glyph glyph-name="j" unicode="j" horiz-adv-x="241" 
d="M-57 -198l11 64q48 -3 79.5 20.5t39.5 66.5q32 184 51.5 296.5t46.5 262.5h79q-19 -108 -45 -256t-53 -303q-15 -81 -72.5 -120t-136.5 -31zM263 592h-81q8 42 20 113h81q-12 -71 -20 -113z" />
    <glyph glyph-name="k" unicode="k" horiz-adv-x="518" 
d="M204 700h76l-76 -431l281 239h95l-263 -222l181 -286h-91l-142 240l-76 -60l-32 -180h-76z" />
    <glyph glyph-name="l" unicode="l" horiz-adv-x="272" 
d="M247 67l-12 -69q-80 -8 -114 30t-19 121q51 294 98 556h79q-23 -129 -43.5 -241.5t-56.5 -314.5q-8 -46 6 -66t62 -16z" />
    <glyph glyph-name="m" unicode="m" horiz-adv-x="923" 
d="M158 0h-77l85 482q48 15 94 23t102.5 9.5t102.5 -21t70 -68.5q74 91 195 91q87 0 139 -55.5t32 -167.5l-52 -293h-76l52 293q14 81 -18.5 118t-93.5 37q-56 0 -100.5 -37t-57.5 -108l-53 -303h-73l53 303q10 55 -11 89.5t-61.5 44.5t-86 8t-89.5 -16z" />
    <glyph glyph-name="n" unicode="n" horiz-adv-x="607" 
d="M158 0h-77l86 486q103 33 201 33q114 0 175.5 -58t41.5 -171l-51 -290h-78l51 290q30 163 -163 163q-52 0 -109 -19z" />
    <glyph glyph-name="o" unicode="o" horiz-adv-x="605" 
d="M163 216q0 -80 39 -119.5t110 -39.5q86 0 152 62t66 171q0 157 -150 157q-86 0 -151.5 -61t-65.5 -170zM609 296q0 -128 -87.5 -218t-222.5 -90q-99 0 -157 60.5t-58 158.5q0 130 87 220t222 90q99 0 157.5 -62.5t58.5 -158.5z" />
    <glyph glyph-name="p" unicode="p" horiz-adv-x="573" 
d="M123 -195h-76l119 676q104 33 201 33q98 0 153 -60.5t55 -154.5q0 -132 -84 -218.5t-225 -86.5q-65 0 -104 33zM232 427l-59 -332q44 -29 103 -31q89 -2 156.5 58.5t67.5 170.5q0 153 -157 153q-54 0 -111 -19z" />
    <glyph glyph-name="q" unicode="q" horiz-adv-x="573" 
d="M457 -195h-76l39 222q-52 -35 -116 -35q-103 0 -160 58.5t-57 155.5q0 127 85.5 217.5t214.5 90.5q97 0 189 -33zM433 95l59 332q-51 19 -105 19q-100 0 -162.5 -59.5t-62.5 -169.5q0 -79 43 -119.5t115 -35.5q63 5 113 33z" />
    <glyph glyph-name="r" unicode="r" horiz-adv-x="404" 
d="M171 510h67l-4 -65q32 41 79.5 59.5t92 15t79.5 -22.5l-38 -65q-72 37 -145.5 -2t-88.5 -125l-54 -305h-78z" />
    <glyph glyph-name="s" unicode="s" horiz-adv-x="439" 
d="M283 291q141 -29 141 -129q0 -43 -20.5 -78t-53 -54.5t-68.5 -30t-71 -10.5q-113 0 -156 83l55 44q36 -57 114 -57q41 -1 77.5 20.5t43.5 61.5q9 59 -92 79q-149 23 -133 145q11 72 70.5 112t133.5 40q94 0 140 -58l-54 -51q-35 36 -98 38q-45 1 -81 -23.5t-36 -65.5
q0 -14 4.5 -24.5t9 -16.5t16.5 -11t17.5 -6.5t21 -4t19.5 -3.5z" />
    <glyph glyph-name="t" unicode="t" horiz-adv-x="313" 
d="M280 64l-12 -67q-82 -9 -125.5 30.5t-28.5 120.5l52 297h-83l11 62h83l25 142l79 7l-26 -149h103l-11 -62h-103l-52 -297q-8 -46 14.5 -67t73.5 -17z" />
    <glyph glyph-name="u" unicode="u" horiz-adv-x="607" 
d="M539 506h77l-86 -486q-104 -33 -201 -33q-114 0 -175.5 58t-41.5 171l51 290h78l-51 -290q-15 -89 25.5 -126t137.5 -37q52 0 109 19z" />
    <glyph glyph-name="v" unicode="v" horiz-adv-x="484" 
d="M190 509l66 -448h2q29 87 220 448h84l-271 -511h-94l-91 511h84z" />
    <glyph glyph-name="w" unicode="w" horiz-adv-x="718" 
d="M405 510h87l26 -337l-3 -109h3l34 110l154 336h80l-241 -510h-92l-21 292v115h-2l-40 -111l-125 -296h-92l-62 510h80l29 -267l7 -179h2l31 109z" />
    <glyph glyph-name="x" unicode="x" horiz-adv-x="514" 
d="M310 303l168 207h90l-223 -256l135 -254h-88l-100 201l-172 -201h-90l224 254l-132 256h89z" />
    <glyph glyph-name="y" unicode="y" horiz-adv-x="504" 
d="M55 -190l11 65q42 -5 66 8.5t40 41.5l41 73l-117 509h84l88 -429l232 429h84l-342 -607q-56 -103 -187 -90z" />
    <glyph glyph-name="z" unicode="z" horiz-adv-x="471" 
d="M46 0l13 73l341 368h-266l13 67h365l-9 -51l-367 -391h298l-12 -66h-376z" />
    <glyph glyph-name="braceleft" unicode="{" horiz-adv-x="312" 
d="M415 781l-13 -71h-16h-15.5t-12 -1t-11.5 -3t-9 -5.5t-8 -9t-5 -13t-5 -18.5l-28 -162q-21 -111 -80 -149q46 -37 27 -149l-28 -161q-2 -10 -2.5 -17t1 -12.5t3 -9.5t6 -6t7 -3.5t10 -2t11 -0.5h13.5h15l-13 -71h-47q-51 0 -73.5 31.5t-13.5 84.5l26 148q24 131 -44 131
l13 74q66 0 90 131l26 148q9 53 43.5 84.5t85.5 31.5h47z" />
    <glyph glyph-name="bar" unicode="|" horiz-adv-x="285" 
d="M76 -159l168 951h77l-168 -951h-77z" />
    <glyph glyph-name="braceright" unicode="}" horiz-adv-x="312" 
d="M160 710l12 71h47q51 0 74 -31.5t14 -84.5l-26 -148q-24 -131 44 -131l-13 -74q-66 0 -90 -131l-27 -148q-9 -53 -43 -84.5t-85 -31.5h-47l13 71h15h13.5t11 0.5t10.5 2t8.5 3.5t8 6t6 9.5t5.5 12.5t4 17l28 161q18 111 80 149q-47 37 -28 149l29 162q2 9 2.5 16.5t-1 13
t-3 9t-6 6t-7 3.5t-10 1.5t-11 0.5h-13.5h-15z" />
    <glyph glyph-name="asciitilde" unicode="~" horiz-adv-x="596" 
d="M547 391l46 -43q-54 -84 -126 -101t-137 32q-54 38 -87.5 29t-87.5 -74l-44 43q128 179 274 67q31 -24 58.5 -24t50.5 17t53 54z" />
    <glyph glyph-name="uni00A0" unicode="&#xa0;" horiz-adv-x="257" 
 />
    <glyph glyph-name="exclamdown" unicode="&#xa1;" horiz-adv-x="291" 
d="M164 336h82l-88 -530h-91zM190 506h90l-18 -103h-90z" />
    <glyph glyph-name="cent" unicode="&#xa2;" 
d="M290 1l15 85q-108 9 -155.5 84.5t-29.5 176.5q18 100 93 176.5t184 86.5l16 90h61l-16 -90q82 -9 132 -68l-52 -53q-46 52 -126 52q-83 1 -150.5 -65t-67.5 -162q0 -66 39 -112.5t112 -46.5q77 0 148 56l35 -53q-73 -60 -162 -71l-15 -86h-61z" />
    <glyph glyph-name="sterling" unicode="&#xa3;" horiz-adv-x="592" 
d="M637 533l-79 -15q-1 46 -26 76.5t-61.5 37t-74.5 -2.5t-68.5 -42.5t-39.5 -82.5l-23 -128h220l-10 -60h-220l-43 -243h349l-13 -73h-487l13 73h57l43 243h-55l10 60h55l23 128q13 76 61.5 129t108.5 68.5t118.5 7t99 -56t42.5 -119.5z" />
    <glyph glyph-name="yen" unicode="&#xa5;" horiz-adv-x="613" 
d="M714 700l-224 -304h85l-10 -60h-119l-46 -63l-2 -12h154l-11 -60h-154l-35 -201h-82l35 201h-153l11 60h153l2 12l-24 63h-118l10 60h84q-4 12 -48.5 130t-67.5 174h95l126 -339q40 55 122 169t122 170h95z" />
    <glyph glyph-name="brokenbar" unicode="&#xa6;" horiz-adv-x="283" 
d="M76 -159l72 410h77l-72 -410h-77zM321 792l-72 -407h-77l72 407h77z" />
    <glyph glyph-name="section" unicode="&#xa7;" horiz-adv-x="472" 
d="M286 286q32 -6 60 -18q54 27 54 74q0 31 -28.5 48.5t-64.5 23.5q-26 4 -52 14q-50 -24 -56 -69q-3 -18 3.5 -31.5t22.5 -21.5t29 -12t32 -8zM206 455q-35 30 -35 82q0 79 63.5 127t144.5 48q93 0 139 -59l-54 -54q-39 39 -100 41q-44 1 -79.5 -23.5t-35.5 -65.5
q0 -47 88 -64q141 -29 141 -130q0 -87 -86 -116q35 -32 35 -84q0 -58 -36 -99t-82.5 -58t-94.5 -17q-114 0 -157 83l57 48q41 -61 113 -61q44 -1 82.5 22.5t38.5 66.5q0 30 -28 47.5t-64 24.5q-136 25 -136 122q0 42 24 73t62 46z" />
    <glyph glyph-name="dieresis" unicode="&#xa8;" horiz-adv-x="509" 
d="M353 782h-90l17 98h90zM526 782h-90l17 98h90z" />
    <glyph glyph-name="copyright" unicode="&#xa9;" horiz-adv-x="831" 
d="M115 295q0 112 60.5 209.5t158.5 154t206 56.5q131 0 215.5 -89t84.5 -222q0 -111 -61 -208.5t-160 -154t-208 -56.5q-130 0 -213 89t-83 221zM462 222q-67 0 -91 55q-15 35 -5.5 79.5t40.5 76.5q32 34 72 43q33 8 64.5 -1.5t51.5 -33.5l53 52q-45 56 -127 56
q-116 0 -186 -97q-34 -47 -44.5 -102.5t7.5 -102.5q18 -46 58.5 -70.5t94.5 -24.5q79 0 147 56l-36 51q-45 -37 -99 -37zM189 303q0 -108 65 -179t169 -71q136 0 239.5 101.5t103.5 241.5q0 108 -66.5 179.5t-171.5 71.5q-135 0 -237 -102t-102 -242z" />
    <glyph glyph-name="ordfeminine" unicode="&#xaa;" horiz-adv-x="486" 
d="M403 331l2 43q-27 -30 -63.5 -40.5t-72.5 -2.5q-55 11 -88.5 53.5t-33.5 104.5q0 91 70.5 158.5t161.5 69.5q80 3 146 -30l4 -2l-63 -354h-63zM458 279l-10 -57h-332l10 57h332zM413 433l39 217q-33 13 -81 9q-61 -5 -106.5 -51.5t-45.5 -106.5q0 -39 21 -70t56 -39
q67 -15 117 41z" />
    <glyph glyph-name="guillemotleft" unicode="&#xab;" horiz-adv-x="558" 
d="M300 282l200 206h90l-200 -206l128 -205h-90zM227 77l-128 205l200 206h90l-200 -206l128 -205h-90z" />
    <glyph glyph-name="logicalnot" unicode="&#xac;" horiz-adv-x="624" 
d="M126 345l13 73h477l-47 -267h-72l34 194h-405z" />
    <glyph glyph-name="uni00AD" unicode="&#xad;" horiz-adv-x="441" 
d="M119 247l13 74h292l-13 -74h-292z" />
    <glyph glyph-name="registered" unicode="&#xae;" horiz-adv-x="831" 
d="M518 308q57 11 90 47.5t33 93.5q0 51 -33 77t-89 26h-130l-70 -397h71l27 150h25l87 -150h83zM115 293q0 112 60.5 209.5t159 154t206.5 56.5q131 0 215 -89t84 -222q0 -111 -60.5 -208.5t-159.5 -154t-208 -56.5q-130 0 -213.5 89t-83.5 221zM189 301q0 -108 65.5 -179
t169.5 -71q136 0 239 101.5t103 241.5q0 109 -66 180t-171 71q-135 0 -237.5 -102t-102.5 -242zM427 365l23 126h59q30 0 46.5 -18t16.5 -40q0 -26 -25 -47t-61 -21h-59z" />
    <glyph glyph-name="macron" unicode="&#xaf;" horiz-adv-x="509" 
d="M260 757l12 67h255l-12 -67h-255z" />
    <glyph glyph-name="degree" unicode="&#xb0;" horiz-adv-x="400" 
d="M276 437q-51 0 -84 34t-33 83q0 62 50.5 108.5t114.5 46.5q51 0 84.5 -34.5t33.5 -83.5q0 -62 -50.5 -108t-115.5 -46zM287 499q35 0 61.5 25.5t26.5 59.5q0 27 -17 45.5t-45 18.5q-35 0 -61.5 -26t-26.5 -60q0 -27 17.5 -45t44.5 -18z" />
    <glyph glyph-name="plusminus" unicode="&#xb1;" horiz-adv-x="691" 
d="M117 69h481l-12 -69h-481zM158 340l14 79h210l36 204h77l-36 -204h201l-14 -79h-201l-36 -206h-77l36 206h-210z" />
    <glyph glyph-name="twosuperior" unicode="&#xb2;" horiz-adv-x="405" 
d="M403 526l-192 -147h221l-11 -64h-307l-14 48l261 211q50 41 46 79q-3 25 -25 36.5t-51 12.5q-73 3 -111 -53l-58 26q22 36 55 59q25 18 60 28q35 9 67 8q53 -2 90.5 -27t43.5 -73q4 -38 -17.5 -76t-57.5 -68z" />
    <glyph glyph-name="threesuperior" unicode="&#xb3;" horiz-adv-x="425" 
d="M408 558q49 -29 49 -90q0 -73 -59.5 -116.5t-133.5 -43.5q-52 0 -92 24.5t-54 69.5l64 28q10 -27 37 -42.5t59 -15.5q39 0 71.5 24t32.5 63q0 28 -20 46.5t-49 18.5h-45l10 60h45q33 0 56.5 16.5t23.5 49.5q0 26 -19 40t-48 14q-27 0 -55 -13t-44 -36l-52 30
q26 39 70.5 61t89.5 22q55 0 94 -29t39 -80q0 -34 -20 -61.5t-50 -39.5z" />
    <glyph glyph-name="acute" unicode="&#xb4;" horiz-adv-x="509" 
d="M488 876l-104 -115h-74l85 115h93z" />
    <glyph glyph-name="mu" unicode="&#xb5;" horiz-adv-x="553" 
d="M560 509l-90 -509h-65l5 73q-26 -34 -67.5 -53t-83.5 -19q-61 0 -90 52l-44 -248h-75l124 704h81l-55 -312q-22 -122 72 -122q57 0 101.5 41t58.5 118l48 275h80z" />
    <glyph glyph-name="mu" unicode="&#x3bc;" horiz-adv-x="553" 
d="M560 509l-90 -509h-65l5 73q-26 -34 -67.5 -53t-83.5 -19q-61 0 -90 52l-44 -248h-75l124 704h81l-55 -312q-22 -122 72 -122q57 0 101.5 41t58.5 118l48 275h80z" />
    <glyph glyph-name="paragraph" unicode="&#xb6;" horiz-adv-x="600" 
d="M240 -80l63 356q-84 4 -129 55.5t-45 123.5q0 97 76 173t201 76h220l-139 -784h-79l127 715h-88l-127 -715h-80z" />
    <glyph glyph-name="periodcentered" unicode="&#xb7;" horiz-adv-x="270" 
d="M137 247l17 95h92l-17 -95h-92z" />
    <glyph glyph-name="cedilla" unicode="&#xb8;" horiz-adv-x="509" 
d="M301 15l-42 -57q27 -1 47.5 -24.5t14.5 -52.5q-10 -43 -42.5 -65.5t-70.5 -22.5q-36 0 -81 25l23 44q30 -19 60 -19q37 -1 49 28q11 25 -12 36q-9 4 -22 4q-19 0 -28 -5l-21 20l67 89h58z" />
    <glyph glyph-name="onesuperior" unicode="&#xb9;" horiz-adv-x="304" 
d="M173 311l68 385h-64l11 65h9h120h9l-79 -450h-74z" />
    <glyph glyph-name="ordmasculine" unicode="&#xba;" horiz-adv-x="477" 
d="M307 392q-61 0 -99.5 37.5t-38.5 97.5q0 76 58 129t135 53q61 0 100 -38t39 -96q0 -77 -58.5 -130t-135.5 -53zM317 448q46 0 82 35t36 85q0 37 -23 61t-59 24q-48 0 -83.5 -34t-35.5 -84q0 -38 23 -62.5t60 -24.5zM128 257l11 65h312l-11 -65h-312z" />
    <glyph glyph-name="guillemotright" unicode="&#xbb;" horiz-adv-x="558" 
d="M270 77l200 205l-128 206h89l128 -206l-200 -205h-89zM68 77l200 205l-128 206h89l128 -206l-200 -205h-89z" />
    <glyph glyph-name="onequarter" unicode="&#xbc;" horiz-adv-x="937" 
d="M305 -32h-75l514 786h75zM865 144l53 299h-72l-289 -310l35 -53h189l-14 -80h73l14 80h39l11 64h-39zM792 144l-145 1l182 199zM273 636l-61 -347h74l72 412h-9h-120h-9l-11 -65h64z" />
    <glyph glyph-name="onehalf" unicode="&#xbd;" horiz-adv-x="956" 
d="M269 -30h-75l513 780h75zM256 636l-61 -347h74l72 412h-9h-120h-9l-11 -65h64zM688 64l192 147q37 30 58.5 68t17.5 76q-6 47 -44 72.5t-91 27.5q-31 1 -66 -8q-35 -10 -60 -28q-35 -24 -56 -59l59 -26q38 56 110 53q29 -1 51.5 -12.5t25.5 -36.5q4 -36 -46 -79
l-262 -211l14 -48h307l11 64h-221z" />
    <glyph glyph-name="threequarters" unicode="&#xbe;" horiz-adv-x="989" 
d="M365 -36h-75l520 786h75zM912 144l53 299h-72l-289 -310l35 -53h189l-15 -80h73l15 80h39l11 64h-39zM839 144l-145 1l181 199zM396 505q30 12 50 39.5t20 61.5q0 51 -39 80t-94 29q-45 0 -89.5 -22t-70.5 -61l52 -30q16 23 44 36t55 13q29 0 48 -14t19 -40
q0 -33 -23.5 -49.5t-56.5 -16.5h-45l-10 -60h45q29 0 49 -18.5t20 -46.5q0 -39 -32.5 -63t-71.5 -24q-32 0 -59 15.5t-37 42.5l-64 -28q14 -45 54 -69.5t92 -24.5q74 0 133.5 43.5t59.5 116.5q0 61 -49 90z" />
    <glyph glyph-name="questiondown" unicode="&#xbf;" horiz-adv-x="504" 
d="M460 -113l-10 -11q-39 -43 -95.5 -65t-114.5 -22q-92 0 -150 56t-40 153q16 89 80 146.5t156 73.5l32 144h71l-30 -207q-86 -1 -157.5 -51.5t-71.5 -123.5q0 -53 36.5 -84.5t88.5 -31.5q40 0 82 18.5t72 49.5zM333 506h87l-17 -93h-87z" />
    <glyph glyph-name="Agrave" unicode="&#xc0;" horiz-adv-x="632" 
d="M13 0l375 705h101l130 -705h-87l-42 224h-271l-118 -224h-88zM258 300h219l-53 318zM410 747l-64 115h93l45 -115h-74z" />
    <glyph glyph-name="Aacute" unicode="&#xc1;" horiz-adv-x="632" 
d="M13 0l375 705h101l130 -705h-87l-42 224h-271l-118 -224h-88zM258 300h219l-53 318zM589 866l-105 -115h-74l86 115h93z" />
    <glyph glyph-name="Acircumflex" unicode="&#xc2;" horiz-adv-x="632" 
d="M13 0l375 705h101l130 -705h-87l-42 224h-271l-118 -224h-88zM258 300h219l-53 318zM306 741l108 117h101l68 -117h-74l-50 81h-2l-77 -81h-74z" />
    <glyph glyph-name="Atilde" unicode="&#xc3;" horiz-adv-x="632" 
d="M13 0l375 705h101l130 -705h-87l-42 224h-271l-118 -224h-88zM258 300h219l-53 318zM580 854l39 -33q-33 -52 -83 -65t-92 18q-54 39 -108 -25l-42 31q40 56 91.5 68.5t96.5 -22.5q47 -36 98 28z" />
    <glyph glyph-name="Adieresis" unicode="&#xc4;" horiz-adv-x="632" 
d="M13 0l375 705h101l130 -705h-87l-42 224h-271l-118 -224h-88zM258 300h219l-53 318zM407 750h-84l16 89h84zM570 750h-85l16 89h85z" />
    <glyph glyph-name="Aring" unicode="&#xc5;" horiz-adv-x="632" 
d="M13 0l375 705h101l130 -705h-87l-42 224h-271l-118 -224h-88zM258 300h219l-53 318zM444 741q-32 0 -52.5 17t-20.5 46q0 38 30 62t69 24q31 0 52 -17.5t21 -46.5q0 -37 -30.5 -61t-68.5 -24zM451 782q16 0 27.5 11.5t11.5 27.5q0 29 -27 29q-17 0 -28.5 -11.5
t-11.5 -29.5q0 -12 7.5 -19.5t20.5 -7.5z" />
    <glyph glyph-name="AE" unicode="&#xc6;" horiz-adv-x="865" 
d="M11 1l482 705h442l-13 -76h-291l-42 -240h288l-14 -77h-288l-42 -234h292l-14 -78h-374l42 236h-218l-162 -236h-88zM492 315l59 332h-13l-225 -332h179z" />
    <glyph glyph-name="Ccedilla" unicode="&#xc7;" horiz-adv-x="729" 
d="M771 607l-63 -55q-69 88 -186 85q-98 -1 -175 -52t-116 -126t-39 -156q0 -100 59.5 -169.5t169.5 -69.5q62 0 124.5 27t110.5 74l49 -48q-116 -116 -271 -128l-31 -42q27 -1 48 -24.5t15 -52.5q-10 -43 -43 -65.5t-71 -22.5q-35 0 -80 25l23 44q30 -19 60 -19
q37 -1 49 28q10 25 -13 36q-9 4 -22 4q-18 0 -28 -5l-20 20l55 75q-129 9 -198.5 95t-69.5 206q0 76 30.5 151t84.5 135.5t136 98t177 37.5q148 0 235 -106z" />
    <glyph glyph-name="Egrave" unicode="&#xc8;" horiz-adv-x="531" 
d="M600 704l-14 -77h-292l-41 -237h288l-14 -77h-288l-42 -234h293l-14 -78h-375l124 703h375zM421 773l-64 115h93l45 -115h-74z" />
    <glyph glyph-name="Eacute" unicode="&#xc9;" horiz-adv-x="531" 
d="M600 704l-14 -77h-292l-41 -237h288l-14 -77h-288l-42 -234h293l-14 -78h-375l124 703h375zM561 893l-104 -115h-74l85 115h93z" />
    <glyph glyph-name="Ecircumflex" unicode="&#xca;" horiz-adv-x="531" 
d="M600 704l-14 -77h-292l-41 -237h288l-14 -77h-288l-42 -234h293l-14 -78h-375l124 703h375zM286 750l109 117h101l67 -117h-74l-50 81h-2l-77 -81h-74z" />
    <glyph glyph-name="Edieresis" unicode="&#xcb;" horiz-adv-x="531" 
d="M590 701l-13 -74h-292l-41 -237h288l-14 -75h-288l-43 -240h293l-13 -74h-375l123 700h375zM388 769h-85l14 75h85zM551 769h-85l14 75h85z" />
    <glyph glyph-name="Igrave" unicode="&#xcc;" horiz-adv-x="284" 
d="M101 0l124 703h82l-124 -703h-82zM235 750l-63 115h93l44 -115h-74z" />
    <glyph glyph-name="Iacute" unicode="&#xcd;" horiz-adv-x="284" 
d="M101 0l124 703h82l-124 -703h-82zM413 866l-105 -115h-74l86 115h93z" />
    <glyph glyph-name="Icircumflex" unicode="&#xce;" horiz-adv-x="284" 
d="M101 0l124 703h82l-124 -703h-82zM132 741l108 117h101l68 -117h-74l-50 81h-2l-77 -81h-74z" />
    <glyph glyph-name="Idieresis" unicode="&#xcf;" horiz-adv-x="284" 
d="M101 0l124 703h82l-124 -703h-82zM233 750h-86l15 86h86zM399 750h-86l15 86h86z" />
    <glyph glyph-name="Eth" unicode="&#xd0;" horiz-adv-x="731" 
d="M101 311l13 76h61l56 318h216q144 1 219.5 -84.5t75.5 -210.5q0 -101 -48.5 -193.5t-146.5 -154.5t-223 -62h-217l55 311h-61zM337 76q144 -2 233.5 96.5t89.5 225.5q0 97 -57.5 164t-166.5 67h-136l-43 -242h132l-13 -76h-132l-41 -235h134z" />
    <glyph glyph-name="Ntilde" unicode="&#xd1;" horiz-adv-x="730" 
d="M225 704h88l256 -588l104 588h83l-124 -704h-105l-245 564l-99 -564h-82zM630 851l39 -33q-32 -52 -82 -65t-92 18q-55 40 -108 -25l-43 31q40 56 91.5 68.5t96.5 -22.5q48 -37 98 28z" />
    <glyph glyph-name="Ograve" unicode="&#xd2;" horiz-adv-x="820" 
d="M536 714q130 0 214 -91t84 -222q0 -108 -60.5 -204.5t-159.5 -153.5t-206 -57q-130 0 -214.5 90t-84.5 221q0 107 61 204t160 155t206 58zM192 299q0 -111 66.5 -174t162.5 -63q59 0 117 22.5t106 63.5t77.5 106.5t29.5 144.5q0 112 -66.5 176t-162.5 63
q-80 -1 -154 -39.5t-125 -118t-51 -181.5zM532 776l-64 115h93l45 -115h-74z" />
    <glyph glyph-name="Oacute" unicode="&#xd3;" horiz-adv-x="820" 
d="M536 714q130 0 214 -91t84 -222q0 -108 -60.5 -204.5t-159.5 -153.5t-206 -57q-130 0 -214.5 90t-84.5 221q0 107 61 204t160 155t206 58zM192 299q0 -111 66.5 -174t162.5 -63q59 0 117 22.5t106 63.5t77.5 106.5t29.5 144.5q0 112 -66.5 176t-162.5 63
q-80 -1 -154 -39.5t-125 -118t-51 -181.5zM683 910l-105 -115h-74l86 115h93z" />
    <glyph glyph-name="Ocircumflex" unicode="&#xd4;" horiz-adv-x="820" 
d="M536 714q130 0 214 -91t84 -222q0 -108 -60.5 -204.5t-159.5 -153.5t-206 -57q-130 0 -214.5 90t-84.5 221q0 107 61 204t160 155t206 58zM192 299q0 -111 66.5 -174t162.5 -63q59 0 117 22.5t106 63.5t77.5 106.5t29.5 144.5q0 112 -66.5 176t-162.5 63
q-80 -1 -154 -39.5t-125 -118t-51 -181.5zM431 774l108 117h101l68 -117h-74l-50 81h-2l-77 -81h-74z" />
    <glyph glyph-name="Otilde" unicode="&#xd5;" horiz-adv-x="820" 
d="M536 714q130 0 214 -91t84 -222q0 -108 -60.5 -204.5t-159.5 -153.5t-206 -57q-130 0 -214.5 90t-84.5 221q0 107 61 204t160 155t206 58zM192 299q0 -111 66.5 -174t162.5 -63q59 0 117 22.5t106 63.5t77.5 106.5t29.5 144.5q0 112 -66.5 176t-162.5 63
q-80 -1 -154 -39.5t-125 -118t-51 -181.5zM689 895l39 -33q-32 -52 -82 -65t-92 18q-55 40 -109 -25l-42 31q40 56 91.5 68.5t96.5 -22.5q48 -37 98 28z" />
    <glyph glyph-name="Odieresis" unicode="&#xd6;" horiz-adv-x="820" 
d="M536 714q130 0 214 -91t84 -222q0 -108 -60.5 -204.5t-159.5 -153.5t-206 -57q-130 0 -214.5 90t-84.5 221q0 107 61 204t160 155t206 58zM192 299q0 -111 66.5 -174t162.5 -63q59 0 117 22.5t106 63.5t77.5 106.5t29.5 144.5q0 112 -66.5 176t-162.5 63
q-80 -1 -154 -39.5t-125 -118t-51 -181.5zM506 790h-91l15 84h91zM681 790h-91l15 84h91z" />
    <glyph glyph-name="multiply" unicode="&#xd7;" horiz-adv-x="539" 
d="M142 434l65 56l122 -149l170 144l45 -54l-170 -144l118 -143l-66 -55l-117 142l-172 -146l-45 55l172 145z" />
    <glyph glyph-name="Oslash" unicode="&#xd8;" horiz-adv-x="820" 
d="M536 714q85 0 152 -39l60 76h77l-87 -112q45 -42 70.5 -105.5t25.5 -133.5q0 -108 -60.5 -204t-159.5 -153t-206 -57q-82 0 -149 36l-56 -72h-78l83 107q-46 41 -72.5 105t-26.5 135q0 107 61 204t160 155t206 58zM192 298q0 -114 66 -177l380 489q-52 28 -116 28
q-80 -1 -154 -39.5t-125 -118t-51 -182.5zM751 398q0 114 -64 176l-378 -488q51 -24 112 -24q59 0 117 22.5t106 63.5t77.5 106t29.5 144z" />
    <glyph glyph-name="Ugrave" unicode="&#xd9;" horiz-adv-x="655" 
d="M214 700h83l-88 -498q-11 -66 26.5 -103t99.5 -38q63 -1 116 36.5t65 104.5l88 498h83l-88 -498q-18 -103 -99 -160.5t-178 -56.5q-95 1 -154.5 58.5t-41.5 158.5zM445 774l-64 115h93l45 -115h-74z" />
    <glyph glyph-name="Uacute" unicode="&#xda;" horiz-adv-x="655" 
d="M214 700h83l-88 -498q-11 -66 26.5 -103t99.5 -38q63 -1 116 36.5t65 104.5l88 498h83l-88 -498q-18 -103 -99 -160.5t-178 -56.5q-95 1 -154.5 58.5t-41.5 158.5zM601 883l-104 -115h-74l85 115h93z" />
    <glyph glyph-name="Ucircumflex" unicode="&#xdb;" horiz-adv-x="655" 
d="M214 700h83l-88 -498q-11 -66 26.5 -103t99.5 -38q63 -1 116 36.5t65 104.5l88 498h83l-88 -498q-18 -103 -99 -160.5t-178 -56.5q-95 1 -154.5 58.5t-41.5 158.5zM328 763l109 117h101l67 -117h-74l-50 81h-2l-77 -81h-74z" />
    <glyph glyph-name="Udieresis" unicode="&#xdc;" horiz-adv-x="655" 
d="M214 700h83l-88 -498q-11 -66 26.5 -103t99.5 -38q63 -1 116 36.5t65 104.5l88 498h83l-88 -498q-18 -103 -99 -160.5t-178 -56.5q-95 1 -154.5 58.5t-41.5 158.5zM430 772h-90l17 98h90zM603 772h-90l17 98h90z" />
    <glyph glyph-name="Yacute" unicode="&#xdd;" horiz-adv-x="589" 
d="M698 705l-315 -426l-49 -279h-81l49 279q-24 62 -80 208t-84 218h94l126 -339q231 320 245 339h95zM562 860l-104 -115h-74l85 115h93z" />
    <glyph glyph-name="Thorn" unicode="&#xde;" horiz-adv-x="583" 
d="M208 143l-25 -143h-82q20 116 61 349.5t62 350.5h82l-20 -114h127q98 0 149 -55.5t51 -135.5q0 -100 -76 -176t-201 -76h-128zM349 219q82 0 131.5 50.5t49.5 114.5q0 53 -33 92t-96 39h-127l-52 -296h127z" />
    <glyph glyph-name="germandbls" unicode="&#xdf;" horiz-adv-x="581" 
d="M255 525q-73 -413 -79 -448l-14 -77h-83l93 525q14 83 83.5 133.5t152.5 50.5q74 0 122.5 -41t48.5 -112q0 -50 -29.5 -97t-82.5 -77q55 -22 80.5 -72.5t14.5 -108.5q-8 -53 -34.5 -94.5t-64.5 -66t-82 -37t-89.5 -10.5t-86.5 17l13 76q36 -22 82 -22q99 0 152 72
q43 59 26 120q-18 65 -94 79q-16 3 -35 3h-59l13 77h59q59 0 98 39t39 86q0 43 -30 68t-75 25q-47 0 -88.5 -30t-50.5 -78z" />
    <glyph glyph-name="agrave" unicode="&#xe0;" 
d="M493 0h-69l3 56q-54 -64 -130 -64q-102 0 -156 57t-54 153q0 130 86 221t216 91q110 0 188 -37zM440 126l54 303q-41 18 -105 18q-90 0 -159 -65.5t-70 -167.5q-1 -76 37.5 -116.5t114.5 -36.5q75 4 128 65zM394 597l-64 115h93l45 -115h-74z" />
    <glyph glyph-name="aacute" unicode="&#xe1;" 
d="M493 0h-69l3 56q-54 -64 -130 -64q-102 0 -156 57t-54 153q0 130 86 221t216 91q110 0 188 -37zM440 126l54 303q-41 18 -105 18q-90 0 -159 -65.5t-70 -167.5q-1 -76 37.5 -116.5t114.5 -36.5q75 4 128 65zM540 707l-104 -115h-74l85 115h93z" />
    <glyph glyph-name="acircumflex" unicode="&#xe2;" 
d="M493 0h-69l3 56q-54 -64 -130 -64q-102 0 -156 57t-54 153q0 130 86 221t216 91q110 0 188 -37zM440 126l54 303q-41 18 -105 18q-90 0 -159 -65.5t-70 -167.5q-1 -76 37.5 -116.5t114.5 -36.5q75 4 128 65zM276 591l109 117h101l67 -117h-74l-50 81h-2l-77 -81h-74z" />
    <glyph glyph-name="atilde" unicode="&#xe3;" 
d="M493 0h-69l3 56q-54 -64 -130 -64q-102 0 -156 57t-54 153q0 130 86 221t216 91q110 0 188 -37zM440 126l54 303q-41 18 -105 18q-90 0 -159 -65.5t-70 -167.5q-1 -76 37.5 -116.5t114.5 -36.5q75 4 128 65zM551 716l39 -33q-32 -52 -82 -65t-92 18q-55 40 -108 -25
l-43 31q40 56 91.5 68.5t96.5 -22.5q48 -37 98 28z" />
    <glyph glyph-name="adieresis" unicode="&#xe4;" 
d="M493 0h-69l3 56q-54 -64 -130 -64q-102 0 -156 57t-54 153q0 130 86 221t216 91q110 0 188 -37zM440 126l54 303q-41 18 -105 18q-90 0 -159 -65.5t-70 -167.5q-1 -76 37.5 -116.5t114.5 -36.5q75 4 128 65zM385 619h-89l17 87h89zM557 619h-89l17 87h89z" />
    <glyph glyph-name="aring" unicode="&#xe5;" 
d="M493 0h-69l3 56q-54 -64 -130 -64q-102 0 -156 57t-54 153q0 130 86 221t216 91q110 0 188 -37zM440 126l54 303q-41 18 -105 18q-90 0 -159 -65.5t-70 -167.5q-1 -76 37.5 -116.5t114.5 -36.5q75 4 128 65zM409 579q-31 0 -51.5 17t-20.5 46q0 38 29.5 62t68.5 24
q31 0 51.5 -17.5t20.5 -46.5q0 -37 -29.5 -61t-68.5 -24zM416 621q16 0 28 11t12 27q0 28 -28 28q-17 0 -28.5 -11t-11.5 -28q0 -27 28 -27z" />
    <glyph glyph-name="ae" unicode="&#xe6;" horiz-adv-x="934" 
d="M487 0h-60l2 52q-54 -60 -129 -60q-102 0 -155.5 57t-53.5 153q0 82 31 147t82 102.5t113.5 55t129 9.5t124.5 -39l-5 -32q75 74 182 75q111 1 161.5 -84.5t12.5 -207.5h-394q-7 -69 29.5 -117.5t110.5 -48.5q88 0 149 70l49 -38q-90 -103 -211 -103q-104 0 -156 74z
M443 126l24 130l2 10l28 163q-42 20 -88.5 23t-89.5 -12t-77.5 -43.5t-55 -76t-20.5 -106.5q0 -75 41.5 -115t107.5 -38q73 2 128 65zM541 294h328q7 70 -29 113t-103 44q-73 -1 -123.5 -45t-72.5 -112z" />
    <glyph glyph-name="ccedilla" unicode="&#xe7;" horiz-adv-x="526" 
d="M560 449l-52 -53q-46 52 -126 52q-83 1 -150.5 -65t-67.5 -162q0 -66 39 -112.5t112 -46.5q77 0 148 56l35 -53q-84 -70 -186 -73l-23 -30q27 -1 48 -24.5t15 -52.5q-10 -43 -43 -65.5t-71 -22.5q-35 0 -80 25l23 44q30 -19 60 -19q37 -1 49 28q10 25 -13 36q-9 4 -22 4
q-18 0 -28 -5l-20 20l48 66q-97 15 -139.5 89t-25.5 169q19 107 102.5 186t203.5 79q106 0 164 -70z" />
    <glyph glyph-name="egrave" unicode="&#xe8;" horiz-adv-x="599" 
d="M315 60q96 0 160 70l53 -38q-94 -103 -226 -103q-105 0 -160.5 65t-55.5 157q0 118 87 213t222 96q120 1 176 -85t16 -208h-427q-8 -76 34.5 -121.5t120.5 -45.5zM172 290h356q10 73 -29.5 117.5t-115.5 43.5q-78 -1 -133.5 -47.5t-77.5 -113.5zM397 595l-64 115h93
l45 -115h-74z" />
    <glyph glyph-name="eacute" unicode="&#xe9;" horiz-adv-x="599" 
d="M315 60q96 0 160 70l53 -38q-94 -103 -226 -103q-105 0 -160.5 65t-55.5 157q0 118 87 213t222 96q120 1 176 -85t16 -208h-427q-8 -76 34.5 -121.5t120.5 -45.5zM172 290h356q10 73 -29.5 117.5t-115.5 43.5q-78 -1 -133.5 -47.5t-77.5 -113.5zM539 707l-104 -115h-74
l85 115h93z" />
    <glyph glyph-name="ecircumflex" unicode="&#xea;" horiz-adv-x="599" 
d="M315 60q96 0 160 70l53 -38q-94 -103 -226 -103q-105 0 -160.5 65t-55.5 157q0 118 87 213t222 96q120 1 176 -85t16 -208h-427q-8 -76 34.5 -121.5t120.5 -45.5zM172 290h356q10 73 -29.5 117.5t-115.5 43.5q-78 -1 -133.5 -47.5t-77.5 -113.5zM269 591l109 117h101
l67 -117h-74l-50 81h-2l-77 -81h-74z" />
    <glyph glyph-name="edieresis" unicode="&#xeb;" horiz-adv-x="599" 
d="M315 60q96 0 160 70l53 -38q-94 -103 -226 -103q-105 0 -160.5 65t-55.5 157q0 118 87 213t222 96q120 1 176 -85t16 -208h-427q-8 -76 34.5 -121.5t120.5 -45.5zM172 290h356q10 73 -29.5 117.5t-115.5 43.5q-78 -1 -133.5 -47.5t-77.5 -113.5zM397 616h-91l17 81h91z
M572 616h-91l17 81h91z" />
    <glyph glyph-name="igrave" unicode="&#xec;" horiz-adv-x="240" 
d="M160 0h-79l90 512h79zM200 592l-64 115h93l45 -115h-74z" />
    <glyph glyph-name="iacute" unicode="&#xed;" horiz-adv-x="240" 
d="M160 0h-79l90 512h79zM350 707l-104 -115h-74l85 115h93z" />
    <glyph glyph-name="icircumflex" unicode="&#xee;" horiz-adv-x="240" 
d="M160 0h-79l90 512h79zM85 590l109 117h101l67 -117h-74l-50 81h-2l-77 -81h-74z" />
    <glyph glyph-name="idieresis" unicode="&#xef;" horiz-adv-x="240" 
d="M160 0h-79l90 512h79zM189 610h-81l15 88h82zM346 610h-81l15 88h81z" />
    <glyph glyph-name="eth" unicode="&#xf0;" horiz-adv-x="613" 
d="M296 498l-21 41l117 64q-63 29 -147 29l19 68q128 0 212 -50l112 61l19 -42l-90 -49q134 -118 81 -382q-19 -102 -97.5 -173t-201.5 -71q-82 0 -135.5 36t-70.5 90t-5 116q19 94 98 163t197 68q117 -2 163 -90q-9 130 -107 200zM370 396q-82 0 -135 -47t-66 -114
q-14 -68 22 -118t121 -50q95 0 151 58.5t56 132.5q0 59 -37.5 98.5t-111.5 39.5z" />
    <glyph glyph-name="ntilde" unicode="&#xf1;" horiz-adv-x="616" 
d="M158 0h-77l86 486q103 33 201 33q114 0 175.5 -58t41.5 -171l-51 -290h-78l51 290q30 163 -163 163q-52 0 -109 -19zM537 721l39 -33q-32 -52 -82 -65t-92 18q-55 40 -108 -25l-43 31q40 56 91.5 68.5t96.5 -22.5q48 -37 98 28z" />
    <glyph glyph-name="ograve" unicode="&#xf2;" horiz-adv-x="605" 
d="M163 216q0 -80 39 -119.5t110 -39.5q86 0 152 62t66 171q0 157 -150 157q-86 0 -151.5 -61t-65.5 -170zM609 296q0 -128 -87.5 -218t-222.5 -90q-99 0 -157 60.5t-58 158.5q0 130 87 220t222 90q99 0 157.5 -62.5t58.5 -158.5zM393 592l-64 115h93l45 -115h-74z" />
    <glyph glyph-name="oacute" unicode="&#xf3;" horiz-adv-x="605" 
d="M163 216q0 -80 39 -119.5t110 -39.5q86 0 152 62t66 171q0 157 -150 157q-86 0 -151.5 -61t-65.5 -170zM609 296q0 -128 -87.5 -218t-222.5 -90q-99 0 -157 60.5t-58 158.5q0 130 87 220t222 90q99 0 157.5 -62.5t58.5 -158.5zM538 705l-104 -115h-74l85 115h93z" />
    <glyph glyph-name="ocircumflex" unicode="&#xf4;" horiz-adv-x="605" 
d="M163 216q0 -80 39 -119.5t110 -39.5q86 0 152 62t66 171q0 157 -150 157q-86 0 -151.5 -61t-65.5 -170zM609 296q0 -128 -87.5 -218t-222.5 -90q-99 0 -157 60.5t-58 158.5q0 130 87 220t222 90q99 0 157.5 -62.5t58.5 -158.5zM274 590l109 117h101l67 -117h-74l-50 81
h-2l-77 -81h-74z" />
    <glyph glyph-name="otilde" unicode="&#xf5;" horiz-adv-x="605" 
d="M163 216q0 -80 39 -119.5t110 -39.5q86 0 152 62t66 171q0 157 -150 157q-86 0 -151.5 -61t-65.5 -170zM609 296q0 -128 -87.5 -218t-222.5 -90q-99 0 -157 60.5t-58 158.5q0 130 87 220t222 90q99 0 157.5 -62.5t58.5 -158.5zM554 715l39 -33q-32 -52 -82 -65t-92 18
q-55 40 -108 -25l-43 31q40 56 91.5 68.5t96.5 -22.5q48 -37 98 28z" />
    <glyph glyph-name="odieresis" unicode="&#xf6;" horiz-adv-x="605" 
d="M163 216q0 -80 39 -119.5t110 -39.5q86 0 152 62t66 171q0 157 -150 157q-86 0 -151.5 -61t-65.5 -170zM609 296q0 -128 -87.5 -218t-222.5 -90q-99 0 -157 60.5t-58 158.5q0 130 87 220t222 90q99 0 157.5 -62.5t58.5 -158.5zM390 618h-90l17 87h90zM562 618h-90l17 87
h90z" />
    <glyph glyph-name="divide" unicode="&#xf7;" horiz-adv-x="615" 
d="M340 482l16 91h90l-16 -91h-90zM122 293l14 78h472l-14 -78h-472zM271 91l16 91h91l-16 -91h-91z" />
    <glyph glyph-name="oslash" unicode="&#xf8;" horiz-adv-x="605" 
d="M609 295q0 -125 -90.5 -216t-218.5 -91q-59 0 -111 25l-50 -63h-68l75 94q-61 58 -61 166q0 126 90 216.5t218 90.5q62 0 110 -25l52 66h67l-77 -96q64 -59 64 -167zM531 290q0 72 -35 110l-259 -327q32 -16 75 -16q86 0 152.5 62t66.5 171zM163 215q0 -70 33 -108
l258 324q-32 16 -73 16q-86 0 -152 -61t-66 -171z" />
    <glyph glyph-name="ugrave" unicode="&#xf9;" horiz-adv-x="615" 
d="M539 506h77l-86 -486q-104 -33 -201 -33q-114 0 -175.5 58t-41.5 171l51 290h78l-51 -290q-15 -89 25.5 -126t137.5 -37q52 0 109 19zM391 600l-64 115h93l45 -115h-74z" />
    <glyph glyph-name="uacute" unicode="&#xfa;" horiz-adv-x="615" 
d="M539 506h77l-86 -486q-104 -33 -201 -33q-114 0 -175.5 58t-41.5 171l51 290h78l-51 -290q-15 -89 25.5 -126t137.5 -37q52 0 109 19zM535 707l-104 -115h-74l85 115h93z" />
    <glyph glyph-name="ucircumflex" unicode="&#xfb;" horiz-adv-x="615" 
d="M539 506h77l-86 -486q-104 -33 -201 -33q-114 0 -175.5 58t-41.5 171l51 290h78l-51 -290q-15 -89 25.5 -126t137.5 -37q52 0 109 19zM278 596l109 117h101l67 -117h-74l-50 81h-2l-77 -81h-74z" />
    <glyph glyph-name="udieresis" unicode="&#xfc;" horiz-adv-x="615" 
d="M539 506h77l-86 -486q-104 -33 -201 -33q-114 0 -175.5 58t-41.5 171l51 290h78l-51 -290q-15 -89 25.5 -126t137.5 -37q52 0 109 19zM392 620h-88l17 80h88zM562 620h-88l16 80h89z" />
    <glyph glyph-name="yacute" unicode="&#xfd;" horiz-adv-x="504" 
d="M55 -190l11 65q42 -5 66 8.5t40 41.5l41 73l-117 509h84l88 -429l232 429h84l-342 -607q-56 -103 -187 -90zM493 703l-104 -115h-74l85 115h93z" />
    <glyph glyph-name="thorn" unicode="&#xfe;" horiz-adv-x="574" 
d="M47 -195l158 894h75l-43 -239q53 51 126 53q102 3 157.5 -53.5t55.5 -155.5q0 -133 -90 -221.5t-203 -88.5q-75 0 -122 35l-39 -224h-75zM301 61q92 9 145.5 73t53.5 157q0 75 -41 114t-103 37q-67 -2 -131 -55l-49 -277q42 -59 125 -49z" />
    <glyph glyph-name="ydieresis" unicode="&#xff;" horiz-adv-x="504" 
d="M55 -190l11 65q42 -5 66 8.5t40 41.5l41 73l-117 509h84l88 -429l232 429h84l-342 -607q-56 -103 -187 -90zM350 625h-91l17 78h91zM525 625h-91l17 78h91z" />
    <glyph glyph-name="Amacron" unicode="&#x100;" horiz-adv-x="632" 
d="M13 0l375 705h101l130 -705h-87l-42 224h-271l-118 -224h-88zM258 300h219l-53 318zM322 762l12 67h252l-12 -67h-252z" />
    <glyph glyph-name="amacron" unicode="&#x101;" 
d="M297 604l10 61h245l-10 -61h-245zM493 0h-69l3 56q-54 -64 -130 -64q-102 0 -155.5 57t-53.5 153q0 130 85.5 221t215.5 91q110 0 188 -37zM440 126l54 303q-41 18 -105 18q-100 0 -163 -60.5t-63 -172.5q0 -75 41.5 -115t107.5 -38q73 2 128 65z" />
    <glyph glyph-name="Abreve" unicode="&#x102;" horiz-adv-x="632" 
d="M13 0l375 705h101l130 -705h-87l-42 224h-271l-118 -224h-88zM258 300h219l-53 318zM445 748q-55 0 -88 31t-23 86h64q-6 -29 12 -44t45 -15q25 0 47.5 14.5t28.5 44.5h66q-10 -55 -54 -86t-98 -31z" />
    <glyph glyph-name="abreve" unicode="&#x103;" 
d="M416 599q-55 0 -88 31t-24 86h64q-5 -29 13 -44t45 -15q25 0 47.5 14.5t27.5 44.5h66q-9 -55 -53 -86t-98 -31zM493 0h-69l3 56q-54 -64 -130 -64q-102 0 -155.5 57t-53.5 153q0 130 85.5 221t215.5 91q110 0 188 -37zM440 126l54 303q-41 18 -105 18q-100 0 -163 -60.5
t-63 -172.5q0 -75 41.5 -115t107.5 -38q73 2 128 65z" />
    <glyph glyph-name="Aogonek" unicode="&#x104;" horiz-adv-x="635" 
d="M450 -118q0 38 28.5 68.5t63.5 49.5h-7l-42 224h-271l-118 -224h-88l375 705h101l130 -705q-11 -6 -28 -16.5t-45 -37.5t-28 -47q0 -16 15.5 -27t31.5 -14l15 -4l-32 -44q-1 1 -10.5 -0.5t-25 2.5t-30 10t-25 22t-10.5 38zM261 300h219l-53 318z" />
    <glyph glyph-name="aogonek" unicode="&#x105;" 
d="M440 126l54 303q-41 18 -105 18q-100 0 -163 -60.5t-63 -172.5q0 -75 41.5 -115t107.5 -38q73 2 128 65zM493 0h-1l-2 -1q-39 -22 -61 -51t-12.5 -55.5t57.5 -34.5l-32 -44q-1 1 -10.5 -0.5t-25 2.5t-30.5 10t-25.5 22t-10.5 38q0 40 28.5 69t61.5 45h-6l3 56
q-54 -64 -130 -64q-102 0 -155.5 57t-53.5 153q0 130 85.5 221t215.5 91q110 0 188 -37z" />
    <glyph glyph-name="Cacute" unicode="&#x106;" horiz-adv-x="729" 
d="M771 607l-63 -55q-69 88 -186 85q-98 -1 -175 -52t-116 -126t-39 -156q0 -100 59.5 -169.5t169.5 -69.5q62 0 124.5 27t110.5 74l49 -48q-61 -60 -138.5 -94.5t-158.5 -34.5q-144 0 -222 88t-78 215q0 76 30.5 151t84.5 135.5t136 98t177 37.5q148 0 235 -106zM681 876
l-104 -115h-74l85 115h93z" />
    <glyph glyph-name="cacute" unicode="&#x107;" horiz-adv-x="526" 
d="M561 449l-53 -53q-46 52 -126 52q-82 1 -149.5 -65t-67.5 -162q0 -66 38.5 -112.5t111.5 -46.5q77 0 148 56l35 -53q-87 -73 -195 -73q-122 0 -177 77.5t-36 184.5t102.5 186t203.5 79q105 0 165 -70zM534 702l-104 -115h-74l85 115h93z" />
    <glyph glyph-name="Ccircumflex" unicode="&#x108;" horiz-adv-x="729" 
d="M771 607l-63 -55q-69 88 -186 85q-98 -1 -175 -52t-116 -126t-39 -156q0 -100 59.5 -169.5t169.5 -69.5q62 0 124.5 27t110.5 74l49 -48q-61 -60 -138.5 -94.5t-158.5 -34.5q-144 0 -222 88t-78 215q0 76 30.5 151t84.5 135.5t136 98t177 37.5q148 0 235 -106zM399 756
l109 117h101l67 -117h-74l-50 81h-2l-77 -81h-74z" />
    <glyph glyph-name="ccircumflex" unicode="&#x109;" horiz-adv-x="525" 
d="M561 449l-53 -53q-46 52 -126 52q-82 1 -149.5 -65t-67.5 -162q0 -66 38.5 -112.5t111.5 -46.5q77 0 148 56l35 -53q-87 -73 -195 -73q-122 0 -177 77.5t-36 184.5t102.5 186t203.5 79q105 0 165 -70zM265 579l108 117h101l68 -117h-74l-50 81h-2l-77 -81h-74z" />
    <glyph glyph-name="Cdotaccent" unicode="&#x10a;" horiz-adv-x="729" 
d="M499 784l16 88h87l-16 -88h-87zM771 607l-63 -55q-69 88 -186 85q-98 -1 -175 -52t-116 -126t-39 -156q0 -100 59.5 -169.5t169.5 -69.5q62 0 124.5 27t110.5 74l49 -48q-61 -60 -138.5 -94.5t-158.5 -34.5q-144 0 -222 88t-78 215q0 76 30.5 151t84.5 135.5t136 98
t177 37.5q148 0 235 -106z" />
    <glyph glyph-name="cdotaccent" unicode="&#x10b;" horiz-adv-x="525" 
d="M362 608l15 85h87l-15 -85h-87zM561 449l-53 -53q-46 52 -126 52q-82 1 -149.5 -65t-67.5 -162q0 -66 38.5 -112.5t111.5 -46.5q77 0 148 56l35 -53q-87 -73 -195 -73q-122 0 -177 77.5t-36 184.5t102.5 186t203.5 79q105 0 165 -70z" />
    <glyph glyph-name="Ccaron" unicode="&#x10c;" horiz-adv-x="729" 
d="M771 607l-63 -55q-69 88 -186 85q-98 -1 -175 -52t-116 -126t-39 -156q0 -100 59.5 -169.5t169.5 -69.5q62 0 124.5 27t110.5 74l49 -48q-61 -60 -138.5 -94.5t-158.5 -34.5q-144 0 -222 88t-78 215q0 76 30.5 151t84.5 135.5t136 98t177 37.5q148 0 235 -106zM697 874
l-109 -120h-101l-67 120h74l50 -81h2l77 81h74z" />
    <glyph glyph-name="ccaron" unicode="&#x10d;" horiz-adv-x="525" 
d="M561 449l-53 -53q-46 52 -126 52q-82 1 -149.5 -65t-67.5 -162q0 -66 38.5 -112.5t111.5 -46.5q77 0 148 56l35 -53q-87 -73 -195 -73q-122 0 -177 77.5t-36 184.5t102.5 186t203.5 79q105 0 165 -70zM559 698l-110 -120h-101l-66 120h74l49 -81h2l78 81h74z" />
    <glyph glyph-name="Dcaron" unicode="&#x10e;" horiz-adv-x="726" 
d="M441 705q144 1 219.5 -84.5t75.5 -210.5q0 -101 -48.5 -193.5t-146.5 -154.5t-223 -62h-217l124 705h216zM330 76q97 -1 173 47t113.5 121t37.5 154q0 97 -57.5 164t-166.5 67h-136l-98 -553h134zM628 872l-109 -120h-101l-67 120h74l49 -81h2l78 81h74z" />
    <glyph glyph-name="dcaron" unicode="&#x10f;" horiz-adv-x="611" 
d="M689 703h73q6 -81 -57 -145h-49q24 45 32.5 76t0.5 69zM618 700h-76l-39 -222q-41 35 -104 35q-138 0 -223.5 -87.5t-85.5 -219.5q0 -94 55 -154.5t153 -60.5t201 33zM492 410l-59 -332q-57 -19 -111 -19q-73 0 -115 38.5t-42 114.5q0 110 67.5 170.5t156.5 58.5
q59 -2 103 -31z" />
    <glyph glyph-name="Dcroat" unicode="&#x110;" horiz-adv-x="730" 
d="M101 311l13 76h61l56 318h216q144 1 219.5 -84.5t75.5 -210.5q0 -101 -48.5 -193.5t-146.5 -154.5t-223 -62h-217l55 311h-61zM337 76q144 -2 233.5 96.5t89.5 225.5q0 97 -57.5 164t-166.5 67h-136l-43 -242h132l-13 -76h-132l-41 -235h134z" />
    <glyph glyph-name="dcroat" unicode="&#x111;" horiz-adv-x="579" 
d="M431 78l59 332q-44 29 -103 31q-89 2 -156.5 -58.5t-67.5 -170.5q0 -76 42 -114.5t115 -38.5q54 0 111 19zM429 584l9 53h91l11 63h76l-11 -63h71l-9 -53h-71l-99 -560q-104 -33 -201 -33q-98 0 -153 60.5t-55 154.5q0 132 85.5 219.5t223.5 87.5q63 0 104 -35l19 106
h-91z" />
    <glyph glyph-name="Emacron" unicode="&#x112;" horiz-adv-x="530" 
d="M600 704l-14 -77h-292l-41 -237h288l-14 -77h-288l-42 -234h293l-14 -78h-375l124 703h375zM315 764l11 67h252l-11 -67h-252z" />
    <glyph glyph-name="emacron" unicode="&#x113;" horiz-adv-x="600" 
d="M315 60q94 0 158 70l56 -38q-92 -101 -227 -101q-105 0 -160.5 64t-55.5 157q0 118 87 212.5t222 95.5q120 1 176 -87t16 -210h-426q-7 -68 33.5 -115.5t120.5 -47.5zM174 289h354q6 70 -33.5 115.5t-111.5 46.5q-77 -1 -131.5 -47.5t-77.5 -114.5zM281 608l12 67h252
l-12 -67h-252z" />
    <glyph glyph-name="Ebreve" unicode="&#x114;" horiz-adv-x="530" 
d="M600 704l-14 -77h-292l-41 -237h288l-14 -77h-288l-42 -234h293l-14 -78h-375l124 703h375zM429 748q-55 0 -88 31t-24 86h64q-5 -29 13 -44t45 -15q25 0 47.5 14.5t27.5 44.5h66q-9 -55 -53 -86t-98 -31z" />
    <glyph glyph-name="ebreve" unicode="&#x115;" horiz-adv-x="600" 
d="M315 60q94 0 158 70l56 -38q-92 -101 -227 -101q-105 0 -160.5 64t-55.5 157q0 118 87 212.5t222 95.5q120 1 176 -87t16 -210h-426q-7 -68 33.5 -115.5t120.5 -47.5zM174 289h354q6 70 -33.5 115.5t-111.5 46.5q-77 -1 -131.5 -47.5t-77.5 -114.5zM404 578q-55 0 -88 31
t-23 86h64q-6 -29 12 -44t45 -15q25 0 47.5 14.5t28.5 44.5h66q-10 -55 -54 -86t-98 -31z" />
    <glyph glyph-name="Edotaccent" unicode="&#x116;" horiz-adv-x="530" 
d="M389 771l15 88h87l-15 -88h-87zM600 704l-14 -77h-292l-41 -237h288l-14 -77h-288l-42 -234h293l-14 -78h-375l124 703h375z" />
    <glyph glyph-name="edotaccent" unicode="&#x117;" horiz-adv-x="600" 
d="M364 602l14 81h87l-14 -81h-87zM315 60q94 0 158 70l56 -38q-92 -101 -227 -101q-105 0 -160.5 64t-55.5 157q0 118 87 212.5t222 95.5q120 1 176 -87t16 -210h-426q-7 -68 33.5 -115.5t120.5 -47.5zM174 289h354q6 70 -33.5 115.5t-111.5 46.5q-77 -1 -131.5 -47.5
t-77.5 -114.5z" />
    <glyph glyph-name="Eogonek" unicode="&#x118;" horiz-adv-x="530" 
d="M600 704l-14 -77h-292l-41 -237h288l-14 -77h-288l-42 -234h293l-14 -78h-2q-31 -18 -58 -43.5t-27 -47.5q0 -16 15.5 -27t31.5 -15l15 -3l-32 -44q-1 1 -11 -0.5t-26 2.5t-31.5 10t-26.5 22t-11 38q0 56 81 108h-293l124 703h375z" />
    <glyph glyph-name="eogonek" unicode="&#x119;" horiz-adv-x="600" 
d="M291 -76q0 35 40 69q-18 -2 -29 -2q-105 0 -160.5 64t-55.5 157q0 118 87 212.5t222 95.5q120 1 176 -87t16 -210h-426q-7 -68 33.5 -115.5t120.5 -47.5q94 0 158 70l56 -38q-38 -40 -79 -63q-23 -16 -36 -26t-29.5 -29t-16.5 -35t15.5 -27t30.5 -14l16 -4l-31 -44h-11.5
t-26.5 3.5t-33 10t-25.5 22.5t-11.5 38zM174 289h354q6 70 -33.5 115.5t-111.5 46.5q-77 -1 -131.5 -47.5t-77.5 -114.5z" />
    <glyph glyph-name="Ecaron" unicode="&#x11a;" horiz-adv-x="530" 
d="M600 704l-14 -77h-292l-41 -237h288l-14 -77h-288l-42 -234h293l-14 -78h-375l124 703h375zM596 874l-109 -120h-101l-67 120h74l50 -81h2l77 81h74z" />
    <glyph glyph-name="ecaron" unicode="&#x11b;" horiz-adv-x="600" 
d="M315 60q94 0 158 70l56 -38q-92 -101 -227 -101q-105 0 -160.5 64t-55.5 157q0 118 87 212.5t222 95.5q120 1 176 -87t16 -210h-426q-7 -68 33.5 -115.5t120.5 -47.5zM174 289h354q6 70 -33.5 115.5t-111.5 46.5q-77 -1 -131.5 -47.5t-77.5 -114.5zM556 698l-109 -120
h-101l-67 120h74l50 -81h2l77 81h74z" />
    <glyph glyph-name="Gcircumflex" unicode="&#x11c;" horiz-adv-x="822" 
d="M537 713q81 0 146.5 -33.5t105.5 -93.5l-67 -49q-31 47 -84 73.5t-114 26.5q-95 0 -173 -51t-118 -126.5t-40 -154.5q0 -100 59.5 -171t169.5 -71q95 0 185.5 61t116.5 155h-313l13 76h404q-28 -155 -145.5 -261.5t-273.5 -106.5q-98 0 -167.5 44.5t-100.5 112t-31 149.5
q0 76 30.5 150.5t84 134.5t135.5 97.5t177 37.5zM400 756l108 117h101l68 -117h-74l-50 81h-2l-77 -81h-74z" />
    <glyph glyph-name="gcircumflex" unicode="&#x11d;" horiz-adv-x="576" 
d="M255 584l109 117h101l67 -117h-74l-50 81h-2l-77 -81h-74zM91 207q0 134 88 218t226 84q92 0 173 -38l-82 -466q-16 -90 -76 -144.5t-131.5 -65t-141.5 13.5t-105 77l56 49q24 -36 73 -56t99.5 -18t94.5 38.5t56 105.5l7 39q-26 -22 -54.5 -34t-47.5 -14t-48 -3
q-85 -2 -136 60t-51 154zM297 60q76 -10 145 66l53 301q-37 15 -95 15q-100 0 -167.5 -60t-67.5 -167q0 -65 34 -107t98 -48z" />
    <glyph glyph-name="Gbreve" unicode="&#x11e;" horiz-adv-x="822" 
d="M537 713q81 0 146.5 -33.5t105.5 -93.5l-67 -49q-31 47 -84 73.5t-114 26.5q-95 0 -173 -51t-118 -126.5t-40 -154.5q0 -100 59.5 -171t169.5 -71q95 0 185.5 61t116.5 155h-313l13 76h404q-28 -155 -145.5 -261.5t-273.5 -106.5q-98 0 -167.5 44.5t-100.5 112t-31 149.5
q0 76 30.5 150.5t84 134.5t135.5 97.5t177 37.5zM540 750q-55 0 -88 31t-24 86h64q-5 -29 13 -44t45 -15q25 0 47.5 14.5t27.5 44.5h66q-9 -55 -53 -86t-98 -31z" />
    <glyph glyph-name="gbreve" unicode="&#x11f;" horiz-adv-x="577" 
d="M401 580q-55 0 -87 29.5t-23 84.5h62q-5 -29 13.5 -45t44.5 -16q25 0 47.5 15.5t27.5 45.5h63q-9 -55 -51 -84.5t-97 -29.5zM92 207q0 134 88 218t226 84q92 0 173 -38l-82 -466q-16 -90 -76 -144.5t-131.5 -65t-141.5 13.5t-105 77l56 49q24 -36 73 -56t99.5 -18
t94.5 38.5t56 105.5l7 39q-26 -22 -54.5 -34t-47.5 -14t-48 -3q-85 -2 -136 60t-51 154zM298 60q76 -10 145 66l53 301q-38 15 -95 15q-100 0 -167.5 -60t-67.5 -167q0 -65 34 -107t98 -48z" />
    <glyph glyph-name="Gdotaccent" unicode="&#x120;" horiz-adv-x="822" 
d="M499 784l15 90h87l-15 -90h-87zM537 713q81 0 146.5 -33.5t105.5 -93.5l-67 -49q-31 47 -84 73.5t-114 26.5q-95 0 -173 -51t-118 -126.5t-40 -154.5q0 -100 59.5 -171t169.5 -71q95 0 185.5 61t116.5 155h-313l13 76h404q-28 -155 -145.5 -261.5t-273.5 -106.5
q-98 0 -167.5 44.5t-100.5 112t-31 149.5q0 76 30.5 150.5t84 134.5t135.5 97.5t177 37.5z" />
    <glyph glyph-name="gdotaccent" unicode="&#x121;" horiz-adv-x="577" 
d="M366 608l16 89h87l-16 -89h-87zM91 207q0 134 88 218t226 84q92 0 173 -38l-82 -466q-16 -90 -76 -144.5t-131.5 -65t-141.5 13.5t-105 77l56 49q24 -36 73 -56t99.5 -18t94.5 38.5t56 105.5l7 39q-26 -22 -54.5 -34t-47.5 -14t-48 -3q-85 -2 -136 60t-51 154zM297 60
q76 -10 145 66l53 301q-37 15 -95 15q-100 0 -167.5 -60t-67.5 -167q0 -65 34 -107t98 -48z" />
    <glyph glyph-name="Gcommaaccent" unicode="&#x122;" horiz-adv-x="822" 
d="M347 -59h85q10 -86 -51 -146l-67 1q24 45 32.5 76t0.5 69zM537 713q81 0 146.5 -33.5t105.5 -93.5l-67 -49q-31 47 -84 73.5t-114 26.5q-95 0 -173 -51t-118 -126.5t-40 -154.5q0 -100 59.5 -171t169.5 -71q95 0 185.5 61t116.5 155h-313l13 76h404
q-28 -155 -145.5 -261.5t-273.5 -106.5q-98 0 -167.5 44.5t-100.5 112t-31 149.5q0 76 30.5 150.5t84 134.5t135.5 97.5t177 37.5z" />
    <glyph glyph-name="gcommaaccent" unicode="&#x123;" horiz-adv-x="577" 
d="M448 565h-84q-4 38 6.5 69t36.5 72h69q-43 -80 -28 -141zM92 207q0 134 88 218t226 84q92 0 173 -38l-82 -466q-16 -90 -76 -144.5t-131.5 -65t-141.5 13.5t-105 77l56 49q24 -36 73 -56t99.5 -18t94.5 38.5t56 105.5l7 39q-26 -22 -54.5 -34t-47.5 -14t-48 -3
q-85 -2 -136 60t-51 154zM298 60q76 -10 145 66l53 301q-38 15 -95 15q-100 0 -167.5 -60t-67.5 -167q0 -65 34 -107t98 -48z" />
    <glyph glyph-name="Hcircumflex" unicode="&#x124;" horiz-adv-x="688" 
d="M505 0l55 312h-321l-55 -312h-83l124 703h83l-56 -317h321l56 317h83l-124 -703h-83zM338 756l109 117h101l67 -117h-74l-49 81h-2l-78 -81h-74z" />
    <glyph glyph-name="hcircumflex" unicode="&#x125;" horiz-adv-x="607" 
d="M117 752l108 117h101l68 -117h-74l-50 81h-2l-77 -81h-74zM205 701h78l-41 -229q58 42 139 43q106 -2 163 -63t38 -168l-50 -284h-78l50 284q12 71 -26 113t-107 47q-76 4 -141 -38l-72 -406h-77z" />
    <glyph glyph-name="Hbar" unicode="&#x126;" horiz-adv-x="688" 
d="M133 518l12 64h59l21 121h83l-21 -121h321l21 121h83l-21 -121h61l-12 -64h-61l-91 -518h-83l55 312h-321l-55 -312h-83l91 518h-59zM252 386h321l23 132h-321z" />
    <glyph glyph-name="hbar" unicode="&#x127;" horiz-adv-x="597" 
d="M113 576l9 55h70l13 70h78l-13 -70h124l-9 -55h-124l-19 -104q58 42 139 43q106 -2 163 -63t38 -168l-50 -284h-78l50 284q12 71 -26 113t-107 47q-76 4 -141 -38l-72 -406h-77l102 576h-70z" />
    <glyph glyph-name="Itilde" unicode="&#x128;" horiz-adv-x="283" 
d="M101 0l124 703h82l-124 -703h-82zM403 851l37 -31q-30 -48 -77 -60t-86 16q-51 38 -102 -23l-39 29q37 52 85 64t90 -21q45 -34 92 26z" />
    <glyph glyph-name="itilde" unicode="&#x129;" horiz-adv-x="240" 
d="M160 0h-79l90 511h79zM350 692l37 -31q-30 -48 -77 -60t-86 16q-51 38 -102 -23l-39 29q37 52 85 64t90 -21q45 -34 92 26z" />
    <glyph glyph-name="Imacron" unicode="&#x12a;" horiz-adv-x="283" 
d="M159 784l12 64h255l-12 -64h-255zM101 0l124 703h82l-124 -703h-82z" />
    <glyph glyph-name="imacron" unicode="&#x12b;" horiz-adv-x="240" 
d="M111 614l12 64h255l-12 -64h-255zM160 0h-79l90 512h79z" />
    <glyph glyph-name="Ibreve" unicode="&#x12c;" horiz-adv-x="283" 
d="M101 0l124 703h82l-124 -703h-82zM276 752q-55 0 -88 31t-24 86h64q-5 -29 13 -44t45 -15q25 0 47.5 14.5t27.5 44.5h66q-9 -55 -53 -86t-98 -31z" />
    <glyph glyph-name="ibreve" unicode="&#x12d;" horiz-adv-x="240" 
d="M160 0h-79l90 512h79zM224 575q-55 0 -88 31t-23 86h64q-5 -29 13 -44t45 -15q25 0 47 14.5t28 44.5h66q-10 -55 -54 -86t-98 -31z" />
    <glyph glyph-name="Iogonek" unicode="&#x12e;" horiz-adv-x="285" 
d="M101 0l124 703h82l-124 -703q-83 -58 -83 -91q0 -16 15.5 -27t30.5 -14l16 -4l-32 -44q-1 1 -11 -0.5t-26 2.5t-31 10t-26 22t-11 38q0 60 79 108h-3z" />
    <glyph glyph-name="iogonek" unicode="&#x12f;" horiz-adv-x="240" 
d="M18 -109q0 60 69 109h-6l90 512h79l-107 -510q-3 -12 -27.5 -45t-24.5 -49q0 -15 12 -26t24 -14l12 -4l-32 -44q-1 1 -9.5 -0.5t-22 2.5t-26 10t-22 21.5t-9.5 37.5zM187 607l17 99h86l-17 -99h-86z" />
    <glyph glyph-name="Idotaccent" unicode="&#x130;" horiz-adv-x="283" 
d="M234 774l18 98h87l-18 -98h-87zM101 0l124 703h82l-124 -703h-82z" />
    <glyph glyph-name="dotlessi" unicode="&#x131;" horiz-adv-x="240" 
d="M160 0h-79l90 512h79z" />
    <glyph glyph-name="IJ" unicode="&#x132;" horiz-adv-x="603" 
d="M100 0l124 703h82l-124 -703h-82zM265 -14l13 79q160 -6 184 131l75 426h-132l13 78h216l-89 -504q-18 -104 -93.5 -157t-186.5 -53z" />
    <glyph glyph-name="ij" unicode="&#x133;" horiz-adv-x="509" 
d="M191 607l17 99h84l-17 -99h-84zM164 0h-79l90 512h79zM195 -198l12 69q49 -3 80 18t38 64q32 184 51.5 296.5t46.5 262.5h79q-19 -108 -45 -256t-53 -303q-15 -81 -72.5 -120t-136.5 -31zM523 607q3 18 8.5 49t8.5 49h-86q-3 -18 -8.5 -49t-8.5 -49h86z" />
    <glyph glyph-name="Jcircumflex" unicode="&#x134;" horiz-adv-x="545" 
d="M63 166l79 16q1 -46 26 -76.5t61 -37t73.5 2t68 42.5t39.5 83l75 426h-132l14 78h215l-89 -504q-13 -76 -61.5 -129.5t-108.5 -69t-118.5 -7t-99 56t-42.5 119.5zM311 752l109 117h101l67 -117h-74l-49 81h-2l-78 -81h-74z" />
    <glyph glyph-name="jcircumflex" unicode="&#x135;" horiz-adv-x="240" 
d="M-57 -198l12 69q48 -3 79.5 18.5t38.5 63.5q32 184 51.5 296.5t46.5 262.5h79q-19 -108 -45 -256t-53 -303q-15 -81 -72.5 -120t-136.5 -31zM91 584l109 117h101l67 -117h-74l-50 81h-2l-77 -81h-74z" />
    <glyph glyph-name="Kcommaaccent" unicode="&#x136;" horiz-adv-x="634" 
d="M287 -49h78q8 -83 -53 -145h-63q35 68 40 96q4 24 -2 49zM225 705h83l-61 -348l382 348h91l-336 -316l223 -389h-97l-191 335l-89 -76l-46 -259h-83z" />
    <glyph glyph-name="kcommaaccent" unicode="&#x137;" horiz-adv-x="517" 
d="M231 -40h79q9 -80 -49 -145h-63q37 67 37 106q0 23 -4 39zM204 700h76l-76 -431l281 239h95l-263 -222l181 -286h-91l-148 236l-70 -56l-32 -180h-76z" />
    <glyph glyph-name="kgreenlandic" unicode="&#x138;" horiz-adv-x="517" 
d="M170 507h76l-42 -238l281 239h95l-263 -222l181 -286h-91l-148 236l-70 -56l-32 -180h-76z" />
    <glyph glyph-name="Lacute" unicode="&#x139;" horiz-adv-x="479" 
d="M468 77l-14 -77h-353l123 700h83l-109 -623h270zM418 870l-104 -115h-74l85 115h93z" />
    <glyph glyph-name="lacute" unicode="&#x13a;" horiz-adv-x="267" 
d="M247 67l-12 -69q-80 -8 -114 30t-19 121q51 294 98 556h79q-18 -101 -28.5 -159.5t-15 -86.5t-19 -108.5t-35.5 -201.5q-8 -46 5 -66t61 -16zM390 869l-105 -115h-74l86 115h93z" />
    <glyph glyph-name="Lcommaaccent" unicode="&#x13b;" horiz-adv-x="479" 
d="M260 -59h85v-25q0 -50 -44 -120h-74q36 69 36 106q0 21 -3 39zM468 77l-14 -77h-353l123 700h83l-109 -623h270z" />
    <glyph glyph-name="lcommaaccent" unicode="&#x13c;" horiz-adv-x="267" 
d="M105 -59h81q6 -77 -43 -140h-70q24 42 31.5 72t0.5 68zM247 67l-12 -69q-80 -8 -114.5 30t-19.5 121q70 397 98 556h79q-8 -49 -98 -556q-8 -46 5.5 -66t61.5 -16z" />
    <glyph glyph-name="Lcaron" unicode="&#x13d;" horiz-adv-x="479" 
d="M409 706h77q9 -76 -45 -145h-64q36 69 36 106q0 23 -4 39zM468 77l-14 -77h-353l123 700h83l-109 -623h270z" />
    <glyph glyph-name="lcaron" unicode="&#x13e;" horiz-adv-x="298" 
d="M358 706h74q4 -38 -7 -69t-39 -72h-60q45 83 32 141zM235 -2l12 69q-48 -4 -61 16t-5 66q21 121 35.5 201.5t19 108.5t15 86.5t28.5 159.5h-79q-47 -262 -98 -556q-15 -83 19 -121t114 -30z" />
    <glyph glyph-name="Ldot" unicode="&#x13f;" horiz-adv-x="479" 
d="M336 330l18 101h93l-18 -101h-93zM468 77l-14 -77h-353l123 700h83l-109 -623h270z" />
    <glyph glyph-name="ldot" unicode="&#x140;" horiz-adv-x="304" 
d="M269 332l17 99h87l-17 -99h-87zM247 67l-12 -69q-80 -8 -114 30t-19 121q51 294 98 556h79q-18 -101 -28.5 -159.5t-15 -86.5t-19 -108.5t-35.5 -201.5q-8 -46 5 -66t61 -16z" />
    <glyph glyph-name="Lslash" unicode="&#x141;" horiz-adv-x="479" 
d="M89 268l13 75l65 34l57 323h83l-48 -275l130 68l-14 -77l-130 -67l-48 -272h270l-13 -77h-353l53 301z" />
    <glyph glyph-name="lslash" unicode="&#x142;" horiz-adv-x="267" 
d="M126 290l-46 -24l13 71l46 24l60 344h79l-52 -298l92 49l-13 -73l-92 -48l-33 -186q-8 -46 5.5 -66t61.5 -16l-12 -69q-80 -8 -114.5 30t-19.5 121z" />
    <glyph glyph-name="Nacute" unicode="&#x143;" horiz-adv-x="759" 
d="M649 865l-105 -115h-74l86 115h93zM781 700l-123 -700h-116l-256 586l-103 -586h-82l123 700h99l269 -610l107 610h82z" />
    <glyph glyph-name="nacute" unicode="&#x144;" horiz-adv-x="608" 
d="M531 713l-105 -115h-65l80 115h90zM158 0h-77l86 486q103 33 201 33q114 0 175.5 -58t41.5 -171l-51 -290h-78l51 290q26 163 -163 163q-52 0 -109 -19z" />
    <glyph glyph-name="Ncommaaccent" unicode="&#x145;" horiz-adv-x="759" 
d="M325 -35h84q5 -71 -44 -145h-73q24 45 32.5 76t0.5 69zM781 700l-123 -700h-116l-256 586l-103 -586h-82l123 700h99l269 -610l107 610h82z" />
    <glyph glyph-name="ncommaaccent" unicode="&#x146;" horiz-adv-x="609" 
d="M249 -52h75q5 -71 -44 -145h-64q24 45 32.5 76t0.5 69zM158 0h-77l86 486q103 33 201 33q114 0 175.5 -58t41.5 -171l-51 -290h-78l51 290q26 163 -163 163q-52 0 -109 -19z" />
    <glyph glyph-name="Ncaron" unicode="&#x147;" horiz-adv-x="759" 
d="M687 868l-109 -120h-101l-67 120h74l50 -81h2l77 81h74zM658 0l123 700h-82l-107 -610l-269 610h-99l-123 -700h82l103 586l256 -586h116z" />
    <glyph glyph-name="ncaron" unicode="&#x148;" horiz-adv-x="609" 
d="M568 713l-109 -120h-101l-67 120h74l49 -81h2l78 81h74zM158 0h-77l86 486q103 33 201 33q114 0 175.5 -58t41.5 -171l-51 -290h-78l51 290q26 163 -163 163q-52 0 -109 -19z" />
    <glyph glyph-name="napostrophe" unicode="&#x149;" horiz-adv-x="602" 
d="M124 706h77q7 -71 -43 -145h-66q24 47 32 77.5t0 67.5zM153 0h-77l86 486q104 33 201 33q114 0 175.5 -58t41.5 -171l-51 -290h-78l51 290q26 163 -163 163q-52 0 -109 -19z" />
    <glyph glyph-name="Eng" unicode="&#x14a;" horiz-adv-x="759" 
d="M699 700h82l-129 -733q-15 -84 -76.5 -126t-159.5 -35l13 74q113 -10 130 87l6 33h-20l-259 586l-103 -586h-82l123 700h99l269 -610z" />
    <glyph glyph-name="eng" unicode="&#x14b;" horiz-adv-x="608" 
d="M158 0h-77l86 486q103 33 201 33q114 0 175.5 -58t41.5 -171l-59 -336q-15 -81 -68.5 -119t-132.5 -30l10 61q96 -6 113 88l59 336q26 163 -163 163q-52 0 -109 -19z" />
    <glyph glyph-name="Omacron" unicode="&#x14c;" horiz-adv-x="820" 
d="M419 784l11 63h255l-11 -63h-255zM536 714q130 0 214 -91t84 -222q0 -108 -60.5 -204.5t-159.5 -153.5t-206 -57q-130 0 -214.5 90t-84.5 221q0 107 61 204t160 155t206 58zM192 299q0 -111 66.5 -174t162.5 -63q59 0 117 22.5t106 63.5t77.5 106.5t29.5 144.5
q0 112 -66.5 176t-162.5 63q-80 -1 -154 -39.5t-125 -118t-51 -181.5z" />
    <glyph glyph-name="omacron" unicode="&#x14d;" horiz-adv-x="605" 
d="M279 605l11 62h255l-11 -62h-255zM163 216q0 -76 42.5 -117.5t106.5 -41.5q86 0 152.5 62t66.5 171q0 76 -42.5 116.5t-107.5 40.5q-86 0 -152 -61t-66 -170zM609 296q0 -126 -90.5 -217t-218.5 -91q-98 0 -156.5 63t-58.5 159q0 126 90 216.5t218 90.5q99 0 157.5 -62.5
t58.5 -158.5z" />
    <glyph glyph-name="Obreve" unicode="&#x14e;" horiz-adv-x="820" 
d="M536 714q130 0 214 -91t84 -222q0 -108 -60.5 -204.5t-159.5 -153.5t-206 -57q-130 0 -214.5 90t-84.5 221q0 107 61 204t160 155t206 58zM192 299q0 -111 66.5 -174t162.5 -63q59 0 117 22.5t106 63.5t77.5 106.5t29.5 144.5q0 112 -66.5 176t-162.5 63
q-80 -1 -154 -39.5t-125 -118t-51 -181.5zM544 754q-55 0 -88 31t-23 86h64q-6 -29 12 -44t45 -15q25 0 47.5 14.5t28.5 44.5h66q-10 -55 -54 -86t-98 -31z" />
    <glyph glyph-name="obreve" unicode="&#x14f;" horiz-adv-x="605" 
d="M163 216q0 -76 42.5 -117.5t106.5 -41.5q86 0 152.5 62t66.5 171q0 76 -42.5 116.5t-107.5 40.5q-86 0 -152 -61t-66 -170zM609 296q0 -126 -90.5 -217t-218.5 -91q-98 0 -156.5 63t-58.5 159q0 126 90 216.5t218 90.5q99 0 157.5 -62.5t58.5 -158.5zM402 574
q-55 0 -88 31t-23 86h64q-5 -29 13 -44t45 -15q25 0 47 14.5t28 44.5h66q-10 -55 -54 -86t-98 -31z" />
    <glyph glyph-name="Ohungarumlaut" unicode="&#x150;" horiz-adv-x="820" 
d="M536 714q130 0 214 -91t84 -222q0 -108 -60.5 -204.5t-159.5 -153.5t-206 -57q-130 0 -214.5 90t-84.5 221q0 107 61 204t160 155t206 58zM192 299q0 -111 66.5 -174t162.5 -63q59 0 117 22.5t106 63.5t77.5 106.5t29.5 144.5q0 112 -66.5 176t-162.5 63
q-80 -1 -154 -39.5t-125 -118t-51 -181.5zM580 755l88 113h89l-107 -113h-70zM426 755l83 113h82l-96 -113h-69z" />
    <glyph glyph-name="ohungarumlaut" unicode="&#x151;" horiz-adv-x="605" 
d="M163 216q0 -76 42.5 -117.5t106.5 -41.5q86 0 152.5 62t66.5 171q0 76 -42.5 116.5t-107.5 40.5q-86 0 -152 -61t-66 -170zM609 296q0 -126 -90.5 -217t-218.5 -91q-98 0 -156.5 63t-58.5 159q0 126 90 216.5t218 90.5q99 0 157.5 -62.5t58.5 -158.5zM429 584l85 107h86
l-103 -107h-68zM280 584l80 107h79l-92 -107h-67z" />
    <glyph glyph-name="OE" unicode="&#x152;" horiz-adv-x="943" 
d="M536 714q46 0 93 -13h374l-14 -77h-291l-41 -234h288l-14 -77h-288l-42 -234h292l-14 -78h-368q-51 -15 -103 -15q-130 0 -214.5 90.5t-84.5 220.5q0 107 61 204t160 155t206 58zM518 72l97 554q-70 28 -155 8t-151 -80q-117 -105 -117 -254q0 -92 39 -147
q44 -62 119.5 -85.5t167.5 4.5z" />
    <glyph glyph-name="oe" unicode="&#x153;" horiz-adv-x="1036" 
d="M163 218q0 -76 42.5 -117t106.5 -41q86 0 152.5 62t66.5 170q0 76 -43 117.5t-107 41.5q-85 0 -151.5 -62.5t-66.5 -170.5zM751 64q94 0 159 70l57 -38q-94 -101 -228 -101q-71 0 -123 34t-73 96q-43 -62 -108 -98t-135 -36q-98 0 -156.5 62.5t-58.5 158.5
q0 126 90.5 217.5t218.5 91.5q69 0 123.5 -34.5t73.5 -95.5q42 59 104 94.5t137 35.5t128 -41q116 -82 69 -256h-431q0 -1 -1 -1q-1 -67 38.5 -113t115.5 -46zM610 290h355q6 71 -33.5 115.5t-111.5 45.5q-77 0 -132.5 -47t-77.5 -114z" />
    <glyph glyph-name="Racute" unicode="&#x154;" horiz-adv-x="616" 
d="M401 286l175 -286h-99l-169 285h-74l-50 -285h-83l124 701h223q94 0 150 -42.5t56 -130.5q0 -116 -71 -176t-182 -66zM247 356h141q85 0 133.5 40.5t48.5 120.5q0 108 -135 108h-141zM566 865l-105 -115h-74l86 115h93z" />
    <glyph glyph-name="racute" unicode="&#x155;" horiz-adv-x="401" 
d="M171 510h67l-4 -65q32 41 79.5 59.5t92 15t79.5 -22.5l-41 -68q-73 37 -144.5 -0.5t-86.5 -123.5l-54 -305h-78zM466 698l-104 -115h-74l85 115h93z" />
    <glyph glyph-name="Rcommaaccent" unicode="&#x156;" horiz-adv-x="616" 
d="M280 -44h78q1 -7 1 -25q0 -50 -44 -120h-67q36 69 36 106q0 23 -4 39zM401 286l175 -286h-99l-169 285h-74l-50 -285h-83l124 701h223q94 0 150 -42.5t56 -130.5q0 -116 -71 -176t-182 -66zM247 356h141q85 0 133.5 40.5t48.5 120.5q0 108 -135 108h-141z" />
    <glyph glyph-name="rcommaaccent" unicode="&#x157;" horiz-adv-x="401" 
d="M76 -55h77q6 -74 -43 -142h-66q25 42 32.5 73t-0.5 69zM171 510h67l-4 -65q31 41 78.5 59.5t92 15t79.5 -22.5l-41 -68q-72 37 -143.5 -0.5t-86.5 -123.5l-54 -305h-78z" />
    <glyph glyph-name="Rcaron" unicode="&#x158;" horiz-adv-x="614" 
d="M401 286l175 -286h-99l-169 285h-74l-50 -285h-83l124 701h223q94 0 150 -42.5t56 -130.5q0 -116 -71 -176t-182 -66zM247 356h141q85 0 133.5 40.5t48.5 120.5q0 108 -135 108h-141zM596 872l-109 -120h-101l-67 120h74l49 -81h2l78 81h74z" />
    <glyph glyph-name="rcaron" unicode="&#x159;" horiz-adv-x="401" 
d="M171 510h67l-4 -65q32 41 79.5 59.5t92 15t79.5 -22.5l-41 -68q-73 37 -144.5 -0.5t-86.5 -123.5l-54 -305h-78zM494 694l-108 -113h-101l-68 113h74l50 -80h2l77 80h74z" />
    <glyph glyph-name="Sacute" unicode="&#x15a;" horiz-adv-x="558" 
d="M236 526q-7 -31 0.5 -54t30.5 -37.5t40.5 -21t45.5 -14.5q21 -6 38.5 -11.5t36.5 -13.5t33.5 -17.5t28.5 -22.5t22.5 -29t14 -35t5 -44t-6.5 -53q-20 -90 -95.5 -138.5t-163.5 -48.5q-71 0 -127 39.5t-70 110.5l71 35q10 -50 49 -80.5t92 -30.5q62 -1 106.5 31t58.5 87
q9 36 1 62.5t-32 43t-44 25t-51 17.5q-40 11 -68 23.5t-56.5 35.5t-38.5 59.5t0 85.5q18 90 88.5 139.5t153.5 49.5q70 0 121.5 -36t63.5 -101l-69 -31q-10 45 -46 69.5t-81 24.5q-52 1 -95.5 -29.5t-56.5 -89.5zM550 871l-105 -115h-74l86 115h93z" />
    <glyph glyph-name="sacute" unicode="&#x15b;" horiz-adv-x="439" 
d="M283 291q141 -29 141 -129q0 -43 -20.5 -78t-53 -54.5t-68.5 -30t-71 -10.5q-113 0 -156 83l57 49q39 -62 112 -62q41 -1 77.5 20.5t43.5 61.5q9 59 -92 79q-153 27 -133 145q12 70 72 111t132 41q94 0 140 -58l-54 -51q-35 36 -98 38q-45 1 -81 -23.5t-36 -65.5
q0 -49 88 -66zM467 691l-105 -115h-71l85 115h91z" />
    <glyph glyph-name="Scircumflex" unicode="&#x15c;" horiz-adv-x="558" 
d="M236 526q-7 -31 0.5 -54t30.5 -37.5t40.5 -21t45.5 -14.5q21 -6 38.5 -11.5t36.5 -13.5t33.5 -17.5t28.5 -22.5t22.5 -29t14 -35t5 -44t-6.5 -53q-20 -90 -95.5 -138.5t-163.5 -48.5q-71 0 -127 39.5t-70 110.5l71 35q10 -50 49 -80.5t92 -30.5q62 -1 106.5 31t58.5 87
q9 36 1 62.5t-32 43t-44 25t-51 17.5q-40 11 -68 23.5t-56.5 35.5t-38.5 59.5t0 85.5q18 90 88.5 139.5t153.5 49.5q70 0 121.5 -36t63.5 -101l-69 -31q-10 45 -46 69.5t-81 24.5q-52 1 -95.5 -29.5t-56.5 -89.5zM273 756l108 114h101l68 -114h-74l-50 78h-2l-77 -78h-74z
" />
    <glyph glyph-name="scircumflex" unicode="&#x15d;" horiz-adv-x="439" 
d="M283 291q141 -29 141 -129q0 -43 -20.5 -78t-53 -54.5t-68.5 -30t-71 -10.5q-113 0 -156 83l57 49q39 -62 112 -62q41 -1 77.5 20.5t43.5 61.5q9 59 -92 79q-153 27 -133 145q12 70 72 111t132 41q94 0 140 -58l-54 -51q-35 36 -98 38q-45 1 -81 -23.5t-36 -65.5
q0 -49 88 -66zM196 570l108 114h101l68 -114h-74l-50 78h-2l-77 -78h-74z" />
    <glyph glyph-name="Scedilla" unicode="&#x15e;" horiz-adv-x="558" 
d="M236 526q-7 -31 0.5 -54t30.5 -37.5t40.5 -21t45.5 -14.5q25 -7 44 -13t41.5 -16.5t36.5 -22t29.5 -29t20 -38t8 -48t-6.5 -59.5q-18 -79 -79.5 -126t-139.5 -58l-28 -37q27 -1 48 -22.5t15 -48.5q-9 -40 -41.5 -61t-70.5 -21q-37 0 -81 23l22 41q32 -18 61 -18
q36 -1 48 26q10 23 -12 33q-10 5 -23 5q-15 0 -28 -5l-21 18l52 65q-67 6 -116.5 44t-62.5 105l71 35q10 -50 49 -80.5t92 -30.5q62 -1 106.5 31t58.5 87q9 36 1 62.5t-32 43t-44 25t-51 17.5q-40 11 -68 23.5t-56.5 35.5t-38.5 59.5t0 85.5q18 90 88.5 139.5t153.5 49.5
q70 0 121.5 -36t63.5 -101l-69 -31q-10 45 -46 69.5t-81 24.5q-52 1 -95.5 -29.5t-56.5 -89.5z" />
    <glyph glyph-name="scedilla" unicode="&#x15f;" horiz-adv-x="438" 
d="M283 291q141 -29 141 -129q0 -78 -59 -121.5t-134 -50.5l-19 -24q23 -1 41 -20t13 -43q-8 -36 -35.5 -54.5t-58.5 -18.5q-29 0 -67 20l19 37q25 -16 51 -16q30 -1 40 23q9 21 -11 31q-7 3 -18 3t-20 -5l-17 16l38 52q-96 10 -132 81l57 49q39 -62 112 -62
q41 -1 77.5 20.5t43.5 61.5q9 59 -92 79q-153 27 -133 145q12 70 72 111t132 41q94 0 140 -58l-54 -51q-35 36 -98 38q-45 1 -81 -23.5t-36 -65.5q0 -49 88 -66z" />
    <glyph glyph-name="Scaron" unicode="&#x160;" horiz-adv-x="560" 
d="M236 526q-7 -31 0.5 -54t30.5 -37.5t40.5 -21t45.5 -14.5q21 -6 38.5 -11.5t36.5 -13.5t33.5 -17.5t28.5 -22.5t22.5 -29t14 -35t5 -44t-6.5 -53q-20 -90 -95.5 -138.5t-163.5 -48.5q-71 0 -127 39.5t-70 110.5l71 35q10 -50 49 -80.5t92 -30.5q62 -1 106.5 31t58.5 87
q9 36 1 62.5t-32 43t-44 25t-51 17.5q-40 11 -68 23.5t-56.5 35.5t-38.5 59.5t0 85.5q18 90 88.5 139.5t153.5 49.5q70 0 121.5 -36t63.5 -101l-69 -31q-10 45 -46 69.5t-81 24.5q-52 1 -95.5 -29.5t-56.5 -89.5zM578 896l-107 -106h-101l-69 106h74l53 -66h2l74 66h74z" />
    <glyph glyph-name="scaron" unicode="&#x161;" horiz-adv-x="439" 
d="M283 292q141 -29 141 -130q0 -43 -20.5 -78t-53 -54.5t-68.5 -30t-71 -10.5q-113 0 -156 83l57 49q39 -62 112 -62q41 -1 77.5 20.5t43.5 61.5q9 59 -92 79q-153 27 -133 145q12 70 72 111t132 41q94 0 140 -58l-54 -51q-35 36 -98 38q-45 1 -81 -23.5t-36 -65.5
q0 -48 88 -65zM485 691l-109 -120h-101l-67 120h74l50 -81h2l77 81h74z" />
    <glyph glyph-name="Tcommaaccent" unicode="&#x162;" horiz-adv-x="451" 
d="M134 702h431l-14 -80h-174l-110 -622h-19l-15 -42q63 -6 73 -54q9 -42 -28 -79q-32 -32 -80 -32q-36 0 -81 25l23 44q30 -19 60 -19q39 -1 51 28q11 23 -11 35q-10 5 -25 5q-25 0 -31 -3l-18 18l26 74h-8l110 622h-174z" />
    <glyph glyph-name="tcommaaccent" unicode="&#x163;" horiz-adv-x="307" 
d="M219 -3l-21 -39q63 -6 73 -54q9 -42 -28 -79q-32 -32 -80 -32q-36 0 -81 25l23 44q30 -19 60 -19q38 0 51 27q11 24 -12 36q-10 6 -24 6q-23 0 -31 -4l-18 18l41 83q-77 37 -58 139l51 291h-52l12 68h52l34 192h78l-34 -192h103l-12 -68h-103l-51 -291q-7 -43 16 -64.5
t73 -17.5l-12 -69q-28 -3 -50 0z" />
    <glyph glyph-name="Tcaron" unicode="&#x164;" horiz-adv-x="451" 
d="M134 702h431l-14 -80h-174l-110 -622h-83l110 622h-174zM517 869l-109 -118h-101l-67 118h74l50 -79h2l77 79h74z" />
    <glyph glyph-name="tcaron" unicode="&#x165;" horiz-adv-x="307" 
d="M370 707h72q7 -69 -43 -142h-62q25 47 33 76t0 66zM269 -3l12 69q-49 -4 -72.5 17.5t-15.5 64.5l51 291h103l12 68h-103l34 192h-78l-34 -192h-52l-12 -68h52l-51 -291q-15 -81 28.5 -120.5t125.5 -30.5z" />
    <glyph glyph-name="Tbar" unicode="&#x166;" horiz-adv-x="450" 
d="M109 320l10 58h131l43 244h-174l14 80h431l-14 -80h-174l-43 -244h132l-10 -58h-132l-56 -320h-83l56 320h-131z" />
    <glyph glyph-name="tbar" unicode="&#x167;" horiz-adv-x="307" 
d="M81 240l11 60h49l24 139h-52l12 68h52l34 192h78l-34 -192h103l-12 -68h-103l-24 -139h103l-11 -60h-103l-16 -92q-8 -43 15.5 -66t72.5 -19l-12 -66q-82 -9 -125 30.5t-29 120.5l16 92h-49z" />
    <glyph glyph-name="Utilde" unicode="&#x168;" horiz-adv-x="654" 
d="M215 700h83l-88 -498q-15 -86 54 -123q60 -33 137 -8q81 27 108 101l8 30l88 498h83l-88 -498q-21 -121 -132 -181q-95 -51 -198 -30q-99 20 -133 98q-21 49 -10 113zM591 864l38 -31q-31 -50 -80 -62.5t-90 17.5q-53 38 -105 -24l-42 30q39 53 89.5 65t93.5 -22
q48 -34 96 27z" />
    <glyph glyph-name="utilde" unicode="&#x169;" horiz-adv-x="607" 
d="M539 692l36 -32q-32 -48 -81 -58.5t-87 20.5q-50 39 -103 -18l-39 31q40 51 89.5 60.5t90.5 -25.5q43 -36 94 22zM539 506h77l-86 -486q-104 -33 -201 -33q-114 0 -175.5 58t-41.5 171l51 290h78l-51 -290q-26 -163 163 -163q52 0 109 19z" />
    <glyph glyph-name="Umacron" unicode="&#x16a;" horiz-adv-x="654" 
d="M341 778l11 65h255l-11 -65h-255zM215 700h83l-88 -498q-15 -86 54 -123q60 -33 137 -8q81 27 108 101l8 30l88 498h83l-88 -498q-21 -121 -132 -181q-95 -51 -198 -30q-99 20 -133 98q-21 49 -10 113z" />
    <glyph glyph-name="umacron" unicode="&#x16b;" horiz-adv-x="606" 
d="M295 646l10 62h251l-10 -62h-251zM539 506h77l-86 -486q-104 -33 -201 -33q-114 0 -175.5 58t-41.5 171l51 290h78l-51 -290q-26 -163 163 -163q52 0 109 19z" />
    <glyph glyph-name="Ubreve" unicode="&#x16c;" horiz-adv-x="654" 
d="M215 700h83l-88 -498q-15 -86 54 -123q60 -33 137 -8q81 27 108 101l8 30l88 498h83l-88 -498q-21 -121 -132 -181q-95 -51 -198 -30q-99 20 -133 98q-21 49 -10 113zM464 744q-55 0 -88 31t-24 86h64q-5 -29 13.5 -44.5t44.5 -15.5q25 0 47.5 15t27.5 45h66
q-9 -55 -53 -86t-98 -31z" />
    <glyph glyph-name="ubreve" unicode="&#x16d;" horiz-adv-x="606" 
d="M411 576q-55 0 -88 31t-23 86h64q-6 -29 12 -44.5t45 -15.5q25 0 47.5 15t28.5 45h66q-10 -55 -54 -86t-98 -31zM539 506h77l-86 -486q-104 -33 -201 -33q-114 0 -175.5 58t-41.5 171l51 290h78l-51 -290q-26 -163 163 -163q52 0 109 19z" />
    <glyph glyph-name="Uring" unicode="&#x16e;" horiz-adv-x="654" 
d="M215 700h83l-88 -498q-15 -86 54 -123q60 -33 137 -8q81 27 108 101l8 30l88 498h83l-88 -498q-21 -121 -132 -181q-95 -51 -198 -30q-99 20 -133 98q-21 49 -10 113zM467 738q-31 0 -51.5 17t-20.5 46q0 38 30 62t69 24q30 0 51 -17.5t21 -46.5q0 -37 -30 -61t-69 -24z
M475 780q16 0 27.5 11t11.5 27q0 28 -27 28q-17 0 -28.5 -11t-11.5 -28q0 -27 28 -27z" />
    <glyph glyph-name="uring" unicode="&#x16f;" horiz-adv-x="607" 
d="M402 556q-32 0 -52.5 17t-20.5 46q0 38 30 62t69 24q31 0 51.5 -17.5t20.5 -46.5q0 -37 -29.5 -61t-68.5 -24zM409 598q16 0 27.5 11t11.5 27q0 13 -7.5 20.5t-19.5 7.5q-17 0 -28.5 -11t-11.5 -28q0 -27 28 -27zM539 506h77l-86 -486q-104 -33 -201 -33
q-114 0 -175.5 58t-41.5 171l51 290h78l-51 -290q-26 -163 163 -163q52 0 109 19z" />
    <glyph glyph-name="Uhungarumlaut" unicode="&#x170;" horiz-adv-x="654" 
d="M215 700h83l-88 -498q-15 -86 54 -123q60 -33 137 -8q81 27 108 101l8 30l88 498h83l-88 -498q-21 -121 -132 -181q-95 -51 -198 -30q-99 20 -133 98q-21 49 -10 113zM501 755l85 107h86l-103 -107h-68zM352 755l80 107h79l-92 -107h-67z" />
    <glyph glyph-name="uhungarumlaut" unicode="&#x171;" horiz-adv-x="607" 
d="M441 617l85 107h86l-103 -107h-68zM292 617l80 107h79l-92 -107h-67zM539 506h77l-86 -486q-104 -33 -201 -33q-114 0 -175.5 58t-41.5 171l51 290h78l-51 -290q-26 -163 163 -163q52 0 109 19z" />
    <glyph glyph-name="Uogonek" unicode="&#x172;" horiz-adv-x="654" 
d="M214 700h83l-88 -498q-15 -86 54 -123q60 -33 137 -8q81 27 108 101l8 30l88 498h83l-88 -498q-20 -115 -121 -175q-1 -1 -10.5 -7.5t-13 -9t-13 -9.5t-13.5 -11t-11 -11.5t-10.5 -13t-6 -12.5t-2.5 -14q0 -16 14 -31t28 -22l13 -6l-34 -62q-4 1 -10.5 2.5t-23 9
t-29 17.5t-23 27.5t-10.5 38.5q0 38 42 75q-69 -9 -127.5 11t-91.5 73t-20 130z" />
    <glyph glyph-name="uogonek" unicode="&#x173;" horiz-adv-x="606" 
d="M539 506h77l-89 -506q-64 -30 -72 -67q-4 -20 8.5 -34.5t27.5 -18.5l15 -4l-30 -46q-4 0 -9.5 1t-21 5.5t-27 11.5t-21 22t-9.5 35q0 62 62 95q-68 -13 -121 -13q-114 0 -175.5 58t-41.5 171l51 290h78l-51 -290q-26 -163 163 -163q52 0 109 19z" />
    <glyph glyph-name="Wcircumflex" unicode="&#x174;" horiz-adv-x="958" 
d="M627 614l69 -521l266 609h85l-317 -705h-101l-64 471q-37 -77 -115.5 -236t-115.5 -235h-101l-70 705h86l51 -610l254 522h73zM477 754l109 117h101l67 -117h-74l-50 81h-2l-77 -81h-74z" />
    <glyph glyph-name="wcircumflex" unicode="&#x175;" horiz-adv-x="720" 
d="M323 579l109 117h101l67 -117h-74l-50 81h-2l-77 -81h-74zM408 510h87l26 -337q6 -46 -3 -97h5q13 57 32 98l154 336h80l-241 -510h-92l-25 339q-1 4 1.5 35.5t2.5 32.5h-4q0 -1 -9 -34t-10 -34l-143 -339h-93l-62 510h80l36 -336q5 -33 -2 -98h5q17 72 30 97z" />
    <glyph glyph-name="Ycircumflex" unicode="&#x176;" horiz-adv-x="586" 
d="M695 705l-315 -426l-49 -279h-81l49 279q-24 62 -80 208t-84 218h94l126 -339q231 320 245 339h95zM290 754l108 117h101l68 -117h-74l-50 81h-2l-77 -81h-74z" />
    <glyph glyph-name="ycircumflex" unicode="&#x177;" horiz-adv-x="505" 
d="M216 578l109 117h101l67 -117h-74l-49 81h-2l-78 -81h-74zM56 -190l11 65q42 -5 66 8.5t40 41.5l41 73l-117 509h84l90 -419l230 419h84l-342 -607q-56 -103 -187 -90z" />
    <glyph glyph-name="Ydieresis" unicode="&#x178;" horiz-adv-x="589" 
d="M698 705l-315 -426l-49 -279h-81l49 279q-24 62 -80 208t-84 218h94l126 -339q231 320 245 339h95zM389 775h-90l18 98h90zM562 775h-90l18 98h90z" />
    <glyph glyph-name="Zacute" unicode="&#x179;" horiz-adv-x="569" 
d="M569 873l-104 -115h-74l85 115h93zM58 0l14 80l345 406l128 145h-364l13 74h445l-13 -76l-331 -392l-145 -162h378l-13 -75h-457z" />
    <glyph glyph-name="zacute" unicode="&#x17a;" horiz-adv-x="469" 
d="M464 692l-104 -115h-74l85 115h93zM46 0l13 73l341 366l-266 -1l13 70h365l-9 -51l-363 -388h294l-12 -69h-376z" />
    <glyph glyph-name="Zdotaccent" unicode="&#x17b;" 
d="M394 769l15 89h87l-15 -89h-87zM58 0l14 80l345 406l128 145h-364l13 74h445l-13 -76l-331 -392l-145 -162h378l-13 -75h-457z" />
    <glyph glyph-name="zdotaccent" unicode="&#x17c;" horiz-adv-x="469" 
d="M307 596l15 83h87l-15 -83h-87zM46 0l13 73l341 366l-266 -1l13 70h365l-9 -51l-363 -388h294l-12 -69h-376z" />
    <glyph glyph-name="Zcaron" unicode="&#x17d;" horiz-adv-x="557" 
d="M598 892l-109 -120h-101l-67 120h76l49 -78h2l75 78h75zM52 0l14 80l345 406l128 145h-364l13 74h445l-13 -76l-331 -392l-145 -162h378l-13 -75h-457z" />
    <glyph glyph-name="zcaron" unicode="&#x17e;" horiz-adv-x="468" 
d="M519 726l-109 -120h-101l-67 120h74l50 -81h2l77 81h74zM46 0l13 73l341 366l-266 -1l13 70h365l-9 -51l-363 -388h294l-12 -69h-376z" />
    <glyph glyph-name="longs" unicode="&#x17f;" horiz-adv-x="232" 
d="M401 701l-13 -69q-49 3 -80 -18t-38 -64l-97 -550h-78l76 432h-55l13 72h55l8 46q14 81 72 120.5t137 30.5z" />
    <glyph glyph-name="florin" unicode="&#x192;" horiz-adv-x="562" 
d="M644 712l-25 -72q-35 3 -62 -8t-46 -36.5t-30.5 -48.5t-24.5 -59h108l-26 -76h-108l-170 -461q-30 -80 -83.5 -123.5t-146.5 -43.5q-31 0 -49 6l22 65q74 -11 112.5 15.5t64.5 94.5l165 447h-95l27 76h96l12 32q31 83 94 138.5t148 55.5q7 0 17 -2z" />
    <glyph glyph-name="Scommaaccent" unicode="&#x218;" horiz-adv-x="558" 
d="M227 -56h78q4 -38 -6.5 -69.5t-36.5 -70.5h-67q24 42 32 72t0 68zM236 526q-7 -31 0.5 -54t30.5 -37.5t40.5 -21t45.5 -14.5q21 -6 38.5 -11.5t36.5 -13.5t33.5 -17.5t28.5 -22.5t22.5 -29t14 -35t5 -44t-6.5 -53q-20 -90 -95.5 -138.5t-163.5 -48.5q-71 0 -127 39.5
t-70 110.5l71 35q10 -50 49 -80.5t92 -30.5q62 -1 106.5 31t58.5 87q9 36 1 62.5t-32 43t-44 25t-51 17.5q-40 11 -68 23.5t-56.5 35.5t-38.5 59.5t0 85.5q18 90 88.5 139.5t153.5 49.5q70 0 121.5 -36t63.5 -101l-69 -31q-10 45 -46 69.5t-81 24.5q-52 1 -95.5 -29.5
t-56.5 -89.5z" />
    <glyph glyph-name="scommaaccent" unicode="&#x219;" horiz-adv-x="439" 
d="M172 -56h75q5 -71 -42 -136h-64q24 40 31 69.5t0 66.5zM283 291q141 -29 141 -129q0 -43 -20.5 -78t-53 -54.5t-68.5 -30t-71 -10.5q-113 0 -156 83l57 49q39 -62 112 -62q41 -1 77.5 20.5t43.5 61.5q9 59 -92 79q-153 27 -133 145q12 70 72 111t132 41q94 0 140 -58
l-54 -51q-35 36 -98 38q-45 1 -81 -23.5t-36 -65.5q0 -49 88 -66z" />
    <glyph glyph-name="uni021A" unicode="&#x21a;" horiz-adv-x="451" 
d="M181 -47h80q7 -71 -44 -147h-69q25 46 33 77.5t0 69.5zM134 702h431l-14 -80h-174l-110 -622h-83l110 622h-174z" />
    <glyph glyph-name="uni021B" unicode="&#x21b;" horiz-adv-x="307" 
d="M156 -57h77q7 -71 -43 -145h-66q24 47 32 77.5t0 67.5zM282 66l-12 -69q-82 -9 -125.5 30.5t-28.5 120.5l51 291h-52l12 68h52l34 192h78l-34 -192h103l-12 -68h-103l-51 -291q-8 -43 15.5 -64.5t72.5 -17.5z" />
    <glyph glyph-name="circumflex" unicode="&#x2c6;" horiz-adv-x="509" 
d="M252 763l109 117h101l67 -117h-74l-50 81h-2l-77 -81h-74z" />
    <glyph glyph-name="caron" unicode="&#x2c7;" horiz-adv-x="509" 
d="M548 879l-109 -120h-101l-67 120h74l50 -81h2l77 81h74z" />
    <glyph glyph-name="breve" unicode="&#x2d8;" horiz-adv-x="509" 
d="M387 751q-31 0 -60.5 24t-43.5 48t-7 26l64 19q6 0 23 -29.5t35 -29.5q13 0 30 11.5t30 24t15 13.5l40 10q18 0 -7 -35q-35 -50 -82 -72q-20 -10 -37 -10z" />
    <glyph glyph-name="dotaccent" unicode="&#x2d9;" horiz-adv-x="510" 
d="M349 784l16 89h87l-16 -89h-87z" />
    <glyph glyph-name="ring" unicode="&#x2da;" horiz-adv-x="510" 
d="M386 743q-31 0 -51.5 17t-20.5 46q0 38 29.5 62t68.5 24q31 0 51.5 -17.5t20.5 -46.5q0 -37 -29.5 -61t-68.5 -24zM393 785q16 0 28 11t12 27q0 28 -28 28q-17 0 -28.5 -11t-11.5 -28q0 -27 28 -27z" />
    <glyph glyph-name="ogonek" unicode="&#x2db;" horiz-adv-x="509" 
d="M156 -108q0 36 30.5 68.5t61.5 47.5l30 15l56 -11q-12 -7 -29 -17.5t-45.5 -38t-28.5 -47.5q0 -16 15.5 -27t31.5 -14l15 -4l-32 -44q-1 1 -11 -0.5t-26 2.5t-31 10t-26 22t-11 38z" />
    <glyph glyph-name="tilde" unicode="&#x2dc;" horiz-adv-x="490" 
d="M510 858l39 -33q-32 -52 -82 -65t-92 18q-55 40 -108 -25l-43 31q40 56 91.5 68.5t96.5 -22.5q48 -37 98 28z" />
    <glyph glyph-name="hungarumlaut" unicode="&#x2dd;" horiz-adv-x="509" 
d="M378 755l88 113h89l-107 -113h-70zM224 755l83 113h82l-96 -113h-69z" />
    <glyph glyph-name="tonos" unicode="&#x384;" horiz-adv-x="509" 
d="M482 876l-104 -115h-68l85 115h87z" />
    <glyph glyph-name="dieresistonos" unicode="&#x385;" horiz-adv-x="509" 
d="M375 765l97 113h-85l-72 -113h60zM294 791h-81l16 89h81zM568 791h-81l16 89h81z" />
    <glyph glyph-name="Alphatonos" unicode="&#x386;" horiz-adv-x="632" 
d="M13 0l375 705h101l130 -705h-87l-42 224h-271l-118 -224h-88zM258 300h219l-53 318zM169 590l104 115h-87l-85 -115h68z" />
    <glyph glyph-name="Epsilontonos" unicode="&#x388;" horiz-adv-x="570" 
d="M625 704l-13 -77h-292l-42 -237h288l-14 -77h-288l-42 -234h293l-14 -78h-375l124 703h375zM222 705l-104 -115h-68l85 115h87z" />
    <glyph glyph-name="Etatonos" unicode="&#x389;" horiz-adv-x="713" 
d="M530 0l55 312h-321l-55 -312h-83l124 703h83l-56 -317h321l56 317h83l-124 -703h-83zM226 705l-104 -115h-68l85 115h87z" />
    <glyph glyph-name="Iotatonos" unicode="&#x38a;" horiz-adv-x="307" 
d="M124 0l124 703h82l-124 -703h-82zM222 705l-104 -115h-68l85 115h87z" />
    <glyph glyph-name="Omicrontonos" unicode="&#x38c;" horiz-adv-x="820" 
d="M536 714q129 0 213.5 -91t84.5 -222q0 -108 -60.5 -204.5t-159.5 -153.5t-207 -57q-129 0 -213.5 90t-84.5 221q0 107 61 204t160 155t206 58zM192 299q0 -111 66.5 -174t162.5 -63q59 0 117 22.5t106 63.5t77.5 106.5t29.5 144.5q0 112 -67 176t-163 63
q-59 0 -116.5 -23.5t-105.5 -65t-77.5 -107.5t-29.5 -143zM144 590l104 115h-87l-85 -115h68z" />
    <glyph glyph-name="Upsilontonos" unicode="&#x38e;" horiz-adv-x="690" 
d="M799 705l-315 -426l-49 -279h-81l49 279q-24 62 -80 208t-84 218h94l127 -339q31 44 115.5 160.5t128.5 178.5h95zM122 590l104 115h-87l-85 -115h68z" />
    <glyph glyph-name="Omegatonos" unicode="&#x38f;" horiz-adv-x="810" 
d="M517 637q-137 0 -235 -96.5t-98 -235.5q0 -85 41.5 -146t115.5 -94l-28 -65h-284l12 67h183q-56 25 -87 89.5t-31 144.5q0 171 123.5 290.5t300.5 119.5q137 0 218 -83t81 -214q0 -110 -65.5 -212t-153.5 -136h184l-12 -66h-278l-1 66q122 53 185 133.5t63 201.5
q0 103 -64 169.5t-170 66.5zM241 705l-104 -115h-68l85 115h87z" />
    <glyph glyph-name="iotadieresistonos" unicode="&#x390;" horiz-adv-x="244" 
d="M232 66l-12 -67q-75 1 -104 22.5t-17 93.5l69 392h79l-69 -392q-5 -28 6.5 -38.5t47.5 -10.5zM328 697l-93 -108h-56l68 108h81zM167 612h-77l15 85h77zM410 612h-77l15 85h77z" />
    <glyph glyph-name="Alpha" unicode="&#x391;" horiz-adv-x="632" 
d="M13 0l375 705h101l130 -705h-87l-42 224h-271l-118 -224h-88zM258 300h219l-53 318z" />
    <glyph glyph-name="Beta" unicode="&#x392;" horiz-adv-x="609" 
d="M255 410h128q86 0 129 62q36 51 16 101q-24 57 -106 57h-128zM370 333h-128l-46 -257h128q104 0 157 70q42 56 22 113q-22 63 -107 73q-13 1 -26 1zM612 547q0 -103 -110 -170q53 -28 72.5 -75t9.5 -101q-17 -100 -93 -150.5t-181 -50.5h-209l124 704h210q77 0 127 -43
t50 -114z" />
    <glyph glyph-name="Gamma" unicode="&#x393;" horiz-adv-x="518" 
d="M596 700l-12 -71h-291l-111 -629h-80l123 700h371z" />
    <glyph glyph-name="Delta" unicode="&#x394;" horiz-adv-x="632" 
d="M619 0h-606l375 705h101zM424 618l-288 -550h384z" />
    <glyph glyph-name="Epsilon" unicode="&#x395;" horiz-adv-x="531" 
d="M586 704l-14 -77h-292l-41 -237h288l-14 -77h-288l-42 -234h293l-14 -78h-375l124 703h375z" />
    <glyph glyph-name="Zeta" unicode="&#x396;" 
d="M58 0l14 80l345 406l128 145h-364l13 74h445l-13 -76l-331 -392l-145 -162h378l-13 -75h-457z" />
    <glyph glyph-name="Eta" unicode="&#x397;" horiz-adv-x="688" 
d="M505 0l55 312h-321l-55 -312h-83l124 703h83l-56 -317h321l56 317h83l-124 -703h-83z" />
    <glyph glyph-name="Theta" unicode="&#x398;" horiz-adv-x="820" 
d="M536 714q130 0 214 -91t84 -222q0 -108 -60.5 -204.5t-159.5 -153.5t-206 -57q-130 0 -214.5 90t-84.5 221q0 107 61 204t160 155t206 58zM192 299q0 -111 66.5 -174t162.5 -63q59 0 117 22.5t106 63.5t77.5 106.5t29.5 144.5q0 112 -66.5 176t-162.5 63
q-80 -1 -154 -39.5t-125 -118t-51 -181.5zM258 314l13 71h409l-13 -71h-409z" />
    <glyph glyph-name="Iota" unicode="&#x399;" horiz-adv-x="284" 
d="M101 0l124 703h82l-124 -703h-82z" />
    <glyph glyph-name="Kappa" unicode="&#x39a;" horiz-adv-x="630" 
d="M225 705h83l-61 -348l382 348h91l-336 -316l223 -389h-97l-191 335l-89 -76l-46 -259h-83z" />
    <glyph glyph-name="Lambda" unicode="&#x39b;" horiz-adv-x="627" 
d="M386 705h101l129 -706h-89l-106 620l-323 -620h-87z" />
    <glyph glyph-name="Mu" unicode="&#x39c;" horiz-adv-x="851" 
d="M479 95h-71l-129 462l-98 -557h-80l124 704h105l132 -502l307 502h106l-124 -704h-83l97 552z" />
    <glyph glyph-name="Nu" unicode="&#x39d;" horiz-adv-x="757" 
d="M781 700l-123 -700h-116l-256 586l-103 -586h-82l123 700h99l269 -610l107 610h82z" />
    <glyph glyph-name="Xi" unicode="&#x39e;" horiz-adv-x="530" 
d="M50 74h462l-13 -74h-462zM604 627h-450l12 73h450zM134 319l12 69h377l-12 -69h-377z" />
    <glyph glyph-name="Omicron" unicode="&#x39f;" horiz-adv-x="820" 
d="M536 714q130 0 214 -91t84 -222q0 -108 -60.5 -204.5t-159.5 -153.5t-206 -57q-130 0 -214.5 90t-84.5 221q0 107 61 204t160 155t206 58zM192 299q0 -111 66.5 -174t162.5 -63q59 0 117 22.5t106 63.5t77.5 106.5t29.5 144.5q0 112 -66.5 176t-162.5 63
q-80 -1 -154 -39.5t-125 -118t-51 -181.5z" />
    <glyph glyph-name="Pi" unicode="&#x3a0;" horiz-adv-x="658" 
d="M557 0h-78l112 633h-297l-112 -633h-80l123 700h455z" />
    <glyph glyph-name="Rho" unicode="&#x3a1;" horiz-adv-x="583" 
d="M228 256l-45 -256h-82l124 703h210q97 0 148.5 -56t51.5 -136q0 -100 -76.5 -177.5t-201.5 -77.5h-129zM370 332q81 0 131 51.5t50 114.5q0 53 -33 91t-96 38h-128l-52 -295h128z" />
    <glyph glyph-name="Sigma" unicode="&#x3a3;" horiz-adv-x="546" 
d="M395 374l-5 -29l-235 -275h367l-13 -70h-437l-28 44l267 315l-150 297l39 44h426l-12 -67h-356z" />
    <glyph glyph-name="Tau" unicode="&#x3a4;" horiz-adv-x="451" 
d="M134 702h431l-14 -80h-174l-110 -622h-83l110 622h-174z" />
    <glyph glyph-name="Upsilon" unicode="&#x3a5;" horiz-adv-x="589" 
d="M698 705l-315 -426l-49 -279h-81l49 279q-24 62 -80 208t-84 218h94l126 -339q231 320 245 339h95z" />
    <glyph glyph-name="Phi" unicode="&#x3a6;" horiz-adv-x="818" 
d="M474 639l11 64h79l-11 -64q161 -2 227 -111q54 -91 19 -210q-36 -121 -142 -192q-90 -61 -206 -63l-12 -66h-79l12 66q-163 2 -230 111q-56 92 -21 211q35 120 142 191q92 61 211 63zM541 572l-78 -443q133 3 211 103q64 81 57 177q-8 98 -89 140q-43 22 -101 23z
M191 320q0 -78 50 -134.5t143 -56.5l78 443q-120 0 -195.5 -78t-75.5 -174z" />
    <glyph glyph-name="Chi" unicode="&#x3a7;" horiz-adv-x="643" 
d="M738 700l-300 -350q28 -55 89.5 -174t88.5 -175h-100l-139 281l-239 -281h-101l303 349l-178 350h99l140 -277q186 217 238 277h99z" />
    <glyph glyph-name="Psi" unicode="&#x3a8;" horiz-adv-x="749" 
d="M375 213l86 487h81l-86 -487q105 9 165.5 68.5t77.5 150.5l47 268h80l-47 -268q-10 -55 -34.5 -104t-64 -90.5t-100.5 -67t-136 -28.5l-25 -142h-81l25 142q-73 4 -125.5 30.5t-76.5 66t-34 90t2 102.5l47 269h80l-47 -268q-15 -87 25.5 -148t140.5 -71z" />
    <glyph glyph-name="Omega" unicode="&#x3a9;" horiz-adv-x="810" 
d="M517 637q-137 0 -235 -96.5t-98 -235.5q0 -85 41.5 -146t115.5 -94l-28 -65h-284l12 67h183q-56 25 -87 89.5t-31 144.5q0 171 123.5 290.5t300.5 119.5q137 0 218 -83t81 -214q0 -110 -65.5 -212t-153.5 -136h184l-12 -66h-278l-1 66q122 53 185 133.5t63 201.5
q0 103 -64 169.5t-170 66.5z" />
    <glyph glyph-name="Iotadieresis" unicode="&#x3aa;" horiz-adv-x="284" 
d="M101 0l124 703h82l-124 -703h-82zM234 747h-90l14 83h90zM407 747h-90l14 83h90z" />
    <glyph glyph-name="Upsilondieresis" unicode="&#x3ab;" horiz-adv-x="589" 
d="M698 705l-315 -426l-49 -279h-81l49 279q-24 62 -80 208t-84 218h94l126 -339q231 320 245 339h95zM389 751h-87l14 81h87zM556 751h-87l14 81h87z" />
    <glyph glyph-name="alphatonos" unicode="&#x3ac;" horiz-adv-x="575" 
d="M393 513q35 -1 65.5 -17.5t41.5 -43.5l22 55h61l-89 -507h-60l-2 58q-55 -64 -142 -64q-91 0 -147.5 59t-56.5 154q0 135 85 222.5t222 83.5zM297 66q49 -3 83 13.5t63 55.5l44 252q-46 53 -112 55q-84 2 -148 -58t-64 -168q0 -66 34 -106t100 -44zM520 694l-104 -115
h-60l79 115h85z" />
    <glyph glyph-name="epsilontonos" unicode="&#x3ad;" horiz-adv-x="460" 
d="M124 353q0 78 68 119.5t148 41.5q86 2 158 -62l-46 -54q-55 42 -125 42q-43 -1 -80 -17.5t-44 -51.5q-6 -30 13.5 -48t46.5 -23.5t62 -5.5h49l-11 -63h-46q-143 0 -169 -81q-6 -40 26 -62t81 -22q76 0 156 49l32 -55q-104 -67 -202 -67q-83 0 -135.5 39.5t-35.5 119.5
q18 80 110 111q-28 10 -42 35.5t-14 54.5zM473 694l-104 -115h-60l79 115h85z" />
    <glyph glyph-name="etatonos" unicode="&#x3ae;" horiz-adv-x="616" 
d="M170 507h66l2 -47q58 53 143 54q107 -2 168 -62.5t42 -167.5l-50 -284h-78l50 284q11 70 -30 112t-112 47q-79 4 -144 -50l-69 -393h-77zM522 696l-105 -115h-60l80 115h85z" />
    <glyph glyph-name="iotatonos" unicode="&#x3af;" horiz-adv-x="244" 
d="M232 66l-12 -67q-75 1 -104 22.5t-17 93.5l69 392h79l-69 -392q-5 -28 6.5 -38.5t47.5 -10.5zM343 694l-104 -115h-60l79 115h85z" />
    <glyph glyph-name="upsilondieresistonos" unicode="&#x3b0;" horiz-adv-x="590" 
d="M302 65q61 0 107.5 38t58.5 106l52 298h77l-52 -298q-17 -97 -88.5 -156.5t-167.5 -59.5q-92 0 -140 60t-30 156l52 298h77l-52 -298q-12 -67 18.5 -105.5t87.5 -38.5zM485 697l-93 -108h-56l68 108h81zM324 612h-77l15 85h77zM567 612h-77l15 85h77z" />
    <glyph glyph-name="alpha" unicode="&#x3b1;" horiz-adv-x="575" 
d="M387 513q37 -1 69.5 -16.5t43.5 -44.5l22 55h61l-89 -507h-60l-2 58q-55 -64 -142 -64q-91 0 -147.5 59t-56.5 154q0 82 36 152.5t106 113t159 40.5zM297 63q48 -3 82 14.5t64 57.5l44 252q-30 55 -112 57q-83 2 -148 -58.5t-65 -168.5q0 -67 34.5 -108.5t100.5 -45.5z
" />
    <glyph glyph-name="beta" unicode="&#x3b2;" horiz-adv-x="580" 
d="M252 525q-13 -73 -39.5 -223.5t-39.5 -224.5l-48 -273h-81l127 721q14 83 83.5 133.5t153.5 50.5q74 0 122.5 -41t48.5 -112q0 -50 -29.5 -97t-82.5 -77q55 -22 80.5 -72.5t14.5 -108.5q-10 -66 -48 -114.5t-90 -70t-113 -25.5t-117 19l14 76q31 -20 92 -22
q104 -2 157 70q42 59 24 123q-19 65 -91 81q-19 4 -41 4h-59l12 69h59q58 0 98 41t40 88q0 43 -30.5 69.5t-74.5 26.5q-49 0 -91 -29t-51 -82z" />
    <glyph glyph-name="gamma" unicode="&#x3b3;" horiz-adv-x="487" 
d="M93 437l12 70q62 2 85.5 -13.5t33.5 -65.5l51 -327l208 406h79l-267 -496l-34 -205h-76l38 205l-77 397v-1q-4 16 -15 23.5t-38 6.5z" />
    <glyph glyph-name="delta" unicode="&#x3b4;" horiz-adv-x="599" 
d="M603 269q0 -70 -43 -133q-45 -67 -113.5 -104.5t-146.5 -37.5q-48 0 -94 17h1q-69 29 -101.5 86.5t-18.5 140.5q13 70 68 128.5t136 78.5q-45 10 -68 38.5t-23 61.5q0 43 23 75.5t60 50.5t76.5 26.5t77.5 8.5q94 -2 173 -52l-48 -52q-23 16 -69.5 26.5t-94.5 10.5
t-83.5 -22.5t-35.5 -66.5q0 -55 118 -68q94 -9 152 -71q54 -57 54 -142zM525 262q0 62 -41.5 106t-109.5 44q-82 0 -147 -59t-65 -143q0 -64 40.5 -105t110.5 -41q93 0 152.5 57t59.5 141z" />
    <glyph glyph-name="epsilon" unicode="&#x3b5;" horiz-adv-x="450" 
d="M401 107l25 -57q-95 -57 -185 -57q-83 0 -135.5 39.5t-35.5 119.5q18 80 110 111q-28 10 -42 35.5t-14 54.5q0 78 68 119.5t148 41.5q75 2 144 -51l-42 -55q-26 27 -79.5 35t-102.5 -10.5t-57 -61.5q-6 -30 13.5 -48t46.5 -23.5t62 -5.5h49l-11 -63h-46q-32 0 -55 -2.5
t-49.5 -10.5t-43 -26t-21.5 -45q-4 -23 2 -39.5t16 -24.5t28.5 -12.5t30.5 -5t31 -0.5q70 0 145 42z" />
    <glyph glyph-name="zeta" unicode="&#x3b6;" horiz-adv-x="449" 
d="M571 700l-10 -55q-43 -33 -68 -52t-74 -59t-79.5 -69t-70 -70t-62 -74.5t-39 -71.5t-16.5 -70q0 -52 50 -80q43 -24 142 -57q38 -13 53.5 -47t-0.5 -76q-10 -25 -82 -110l-53 36q54 61 62 88q9 30 -22 42q-37 17 -57 23q-70 23 -101 42h1q-71 46 -71 129q0 55 35.5 119.5
t95.5 127.5t123 117t133 103h-290l11 64h389z" />
    <glyph glyph-name="eta" unicode="&#x3b7;" horiz-adv-x="616" 
d="M170 507h66l2 -47q58 53 143 54q107 -2 168 -62.5t42 -167.5l-50 -284h-78l50 284q11 70 -30 112t-112 47q-79 4 -144 -50l-69 -393h-77z" />
    <glyph glyph-name="theta" unicode="&#x3b8;" horiz-adv-x="610" 
d="M631 425q0 -109 -53 -223q-59 -128 -169 -183q-109 -55 -201 1q-85 55 -102 185v-1q-4 21 -4 70q0 88 29 166.5t100 161.5q41 48 93 75q54 26 105 26q55 0 96 -26q54 -35 80 -103t26 -149zM543 333h-356q-11 -40 -7.5 -87t15.5 -87t44 -66.5t78 -26.5q47 0 86.5 23
t66.5 63t44.5 84.5t28.5 96.5zM201 399h352q6 51 -4 102.5t-44 92t-88 40.5q-75 0 -135 -74.5t-81 -160.5z" />
    <glyph glyph-name="iota" unicode="&#x3b9;" horiz-adv-x="256" 
d="M232 66l-12 -67q-75 1 -104 22.5t-17 93.5l69 392h79l-69 -392q-5 -28 6.5 -38.5t47.5 -10.5z" />
    <glyph glyph-name="kappa" unicode="&#x3ba;" horiz-adv-x="518" 
d="M170 507h76l-42 -241l282 242h94l-263 -222l181 -286h-91l-149 234l-69 -54l-32 -180h-76z" />
    <glyph glyph-name="lambda" unicode="&#x3bb;" horiz-adv-x="506" 
d="M200 632l12 68h34q44 2 69.5 -16t33.5 -62l105 -522q1 -2 2 -8.5t1.5 -8.5t2.5 -6.5t3 -5.5l4 -4t6 -3.5t7.5 -2t10 -1.5h13.5l-11 -60q-60 -1 -81.5 14.5t-29.5 62.5l-63 315l-224 -392h-83l283 481l-17 116q-14 39 -78 35z" />
    <glyph glyph-name="nu" unicode="&#x3bd;" horiz-adv-x="484" 
d="M190 509l60 -338q8 -33 5 -96h6q21 64 38 96l179 338h84l-271 -511h-94l-91 511h84z" />
    <glyph glyph-name="xi" unicode="&#x3be;" horiz-adv-x="446" 
d="M304 -31l-33 12q-39 14 -62 24t-54.5 29.5t-47.5 40.5t-25 54t-2 72q9 52 45 98t97 70q-44 17 -61 57.5t-9 84.5q15 84 83.5 140.5t161.5 56.5q76 0 147 -51l-48 -48q-47 33 -110 33q-60 0 -104 -36.5t-53 -94.5q-6 -45 22.5 -76t76.5 -32h106l-12 -64h-106
q-60 -1 -105 -39.5t-55 -95.5q-6 -35 6 -62t41.5 -46.5t56.5 -31t67 -24.5q26 -11 40.5 -18.5t28.5 -23.5t14 -36q0 -24 -17.5 -53t-30.5 -43t-45 -46l-46 36q46 46 53 57q20 33 -20 56z" />
    <glyph glyph-name="omicron" unicode="&#x3bf;" horiz-adv-x="605" 
d="M163 216q0 -76 42.5 -117.5t106.5 -41.5q86 0 152.5 62t66.5 171q0 76 -42.5 116.5t-107.5 40.5q-86 0 -152 -61t-66 -170zM609 296q0 -126 -90.5 -217t-218.5 -91q-98 0 -156.5 63t-58.5 159q0 126 90 216.5t218 90.5q99 0 157.5 -62.5t58.5 -158.5z" />
    <glyph glyph-name="pi" unicode="&#x3c0;" horiz-adv-x="574" 
d="M171 507h410l-89 -507h-79l78 441h-253l-78 -441h-78z" />
    <glyph glyph-name="rho" unicode="&#x3c1;" horiz-adv-x="611" 
d="M318 -5q-55 2 -90 21.5t-58 78.5l-50 -290h-75l80 454q19 103 95.5 179t188.5 77q96 -1 147 -61.5t51 -150.5q0 -79 -33 -148t-100.5 -114t-155.5 -46zM403 444h-15q-69 0 -124.5 -62.5t-64.5 -131.5v-4q-12 -68 23.5 -123.5t112.5 -55.5q68 0 121 52.5t67 126.5
q16 80 -15 139t-105 59z" />
    <glyph glyph-name="sigma1" unicode="&#x3c2;" horiz-adv-x="526" 
d="M561 449l-53 -53q-46 52 -126 52q-82 1 -149.5 -65t-67.5 -162q0 -66 38.5 -112.5t111.5 -46.5q77 0 148 56l35 -53q-87 -73 -195 -73q-122 0 -177 77.5t-36 184.5t102.5 186t203.5 79q105 0 165 -70z" />
    <glyph glyph-name="sigma" unicode="&#x3c3;" horiz-adv-x="617" 
d="M613 296q0 -129 -90 -218t-220 -89q-100 0 -160 60.5t-60 159.5q0 127 92.5 216.5t220.5 89.5h291l-11 -62h-146q83 -40 83 -157zM163 216q0 -76 42.5 -116.5t106.5 -40.5q36 0 72.5 12.5t71 38t56.5 72.5t22 108q0 75 -43 114t-108 39q-87 0 -153.5 -59.5t-66.5 -167.5z
" />
    <glyph glyph-name="tau" unicode="&#x3c4;" horiz-adv-x="351" 
d="M313 62l-11 -63q-85 -2 -122.5 30.5t-27.5 107.5l55 310h-107l11 60h309l-11 -60h-123l-55 -310q-7 -39 13 -56.5t69 -18.5z" />
    <glyph glyph-name="upsilon" unicode="&#x3c5;" horiz-adv-x="590" 
d="M302 65q61 0 107.5 38t58.5 106l52 298h77l-52 -298q-17 -97 -88.5 -156.5t-167.5 -59.5q-92 0 -140 60t-30 156l52 298h77l-52 -298q-12 -67 18.5 -105.5t87.5 -38.5z" />
    <glyph glyph-name="phi" unicode="&#x3c6;" horiz-adv-x="673" 
d="M165 223q0 -68 39.5 -114.5t104.5 -51.5l80 456q70 2 123.5 -10.5t94 -41.5t57.5 -81.5t8 -125.5q-28 -150 -158 -222q-54 -30 -139 -38l-31 -172h-77l31 171q-97 3 -154 64t-57 155q0 180 208 287l24 -54q-80 -43 -117 -96.5t-37 -125.5zM454 444l-68 -386
q96 7 153.5 69.5t57.5 161.5q0 67 -37.5 109t-105.5 46z" />
    <glyph glyph-name="chi" unicode="&#x3c7;" horiz-adv-x="503" 
d="M309 306l169 202h95l-223 -255l135 -254h-88l-106 206l-177 -206h-89l224 254l-132 255h95z" />
    <glyph glyph-name="psi" unicode="&#x3c8;" horiz-adv-x="723" 
d="M333 60l82 462h75l-82 -462q78 3 138 59t73 134l44 254h76l-44 -253q-28 -148 -155 -221q-50 -28 -143 -37l-32 -182h-75l32 182q-84 8 -127 37q-52 36 -71.5 94t-7.5 127l44 253h77l-44 -253q-15 -80 24 -136t116 -58z" />
    <glyph glyph-name="omega" unicode="&#x3c9;" horiz-adv-x="760" 
d="M588 452l27 62q73 -12 108.5 -70t35.5 -137q0 -115 -68.5 -213t-176.5 -99q-23 0 -43 5q-28 9 -48.5 34t-26.5 62q-18 -38 -48 -63t-62 -33q-20 -5 -44 -5q-76 0 -114.5 58.5t-38.5 144.5q0 115 62 204.5t172 111.5l4 -63q-45 -10 -78.5 -38.5t-50.5 -66t-25 -72.5
t-8 -69q0 -60 23 -98t67 -39q46 0 79 34t42 81l34 196h71l-34 -196q-6 -51 13.5 -82.5t67.5 -31.5h-1q70 1 112.5 70.5t42.5 159.5q0 55 -22 98t-72 55zM33 161v1v-1z" />
    <glyph glyph-name="iotadieresis" unicode="&#x3ca;" horiz-adv-x="244" 
d="M220 -1l12 67q-36 0 -47.5 10.5t-6.5 38.5l69 392h-79l-69 -392q-12 -72 17 -93.5t104 -22.5zM194 623h-81l12 71h81zM349 623h-81l12 71h81z" />
    <glyph glyph-name="upsilondieresis" unicode="&#x3cb;" horiz-adv-x="590" 
d="M302 65q-57 0 -87.5 38.5t-18.5 105.5l52 298h-77l-52 -298q-18 -96 30 -156t140 -60q96 0 167.5 59.5t88.5 156.5l52 298h-77l-52 -298q-12 -68 -58.5 -106t-107.5 -38zM373 623h-81l12 71h81zM528 623h-81l12 71h81z" />
    <glyph glyph-name="omicrontonos" unicode="&#x3cc;" horiz-adv-x="605" 
d="M163 216q0 -76 42.5 -117.5t106.5 -41.5q86 0 152.5 62t66.5 171q0 76 -42.5 116.5t-107.5 40.5q-86 0 -152 -61t-66 -170zM609 296q0 -126 -90.5 -217t-218.5 -91q-98 0 -156.5 63t-58.5 159q0 126 90 216.5t218 90.5q99 0 157.5 -62.5t58.5 -158.5zM525 694l-94 -112
h-66l76 112h84z" />
    <glyph glyph-name="upsilontonos" unicode="&#x3cd;" horiz-adv-x="590" 
d="M302 65q62 0 108 38t58 106l53 298h76l-52 -298q-17 -97 -88.5 -156.5t-167.5 -59.5q-92 0 -140 60t-30 156l52 298h78l-53 -298q-12 -67 18.5 -105.5t87.5 -38.5zM526 693l-102 -112h-65l83 112h84z" />
    <glyph glyph-name="omegatonos" unicode="&#x3ce;" horiz-adv-x="760" 
d="M589 452l27 62q73 -12 108.5 -70t35.5 -137q0 -115 -69 -213t-177 -99q-28 0 -43 5q-28 8 -48.5 33.5t-26.5 62.5q-17 -38 -47.5 -63t-62.5 -33q-20 -5 -44 -5q-76 0 -114 58t-38 145q0 115 62 204.5t172 111.5l4 -63q-46 -10 -79.5 -38.5t-50.5 -66t-25 -72.5t-8 -69
q0 -61 23 -99t67 -38q46 0 80 34t42 81l35 196h70l-34 -196q-6 -51 13.5 -82.5t67.5 -31.5h-1q69 1 112 70.5t43 159.5q0 55 -22.5 98t-71.5 55zM619 696l-98 -108h-69l80 108h87z" />
    <glyph glyph-name="afii10023" unicode="&#x401;" horiz-adv-x="532" 
d="M590 701l-13 -74h-292l-41 -237h288l-14 -75h-288l-43 -240h293l-13 -74h-375l123 700h375zM388 769h-85l14 75h85zM551 769h-85l14 75h85z" />
    <glyph glyph-name="afii10051" unicode="&#x402;" horiz-adv-x="675" 
d="M375 -1l11 64q81 7 125.5 39.5t58.5 112.5l13 72q13 54 -6.5 94t-57 56.5t-86.5 10.5t-91 -37l-73 -411h-80l112 635h-175l11 65h430l-11 -65h-174l-27 -152q60 32 123 31.5t109.5 -27t69.5 -80t7 -120.5l-13 -72q-36 -210 -276 -216z" />
    <glyph glyph-name="afii10052" unicode="&#x403;" horiz-adv-x="517" 
d="M596 700l-12 -71h-291l-111 -629h-80l123 700h371zM554 862l-104 -115h-60l79 115h85z" />
    <glyph glyph-name="afii10053" unicode="&#x404;" horiz-adv-x="716" 
d="M554 384l-12 -66h-350q-8 -108 54.5 -180t174.5 -72q57 0 119.5 29t113.5 80l48 -45q-65 -65 -141.5 -101.5t-152.5 -36.5q-140 0 -219.5 85t-79.5 214q0 105 51.5 199.5t150.5 155.5t223 61q144 0 234 -118l-62 -47q-73 92 -185 92q-111 0 -198 -69t-118 -181h349z" />
    <glyph glyph-name="afii10054" unicode="&#x405;" horiz-adv-x="560" 
d="M236 526q-7 -31 0.5 -54t30.5 -37.5t40.5 -21t45.5 -14.5q21 -6 38.5 -11.5t36.5 -13.5t33.5 -17.5t28.5 -22.5t22.5 -29t14 -35t5 -44t-6.5 -53q-20 -90 -95.5 -138.5t-163.5 -48.5q-71 0 -127 39.5t-70 110.5l71 35q10 -50 49 -80.5t92 -30.5q62 -1 106.5 31t58.5 87
q9 36 1 62.5t-32 43t-44 25t-51 17.5q-40 11 -68 23.5t-56.5 35.5t-38.5 59.5t0 85.5q18 90 88.5 139.5t153.5 49.5q70 0 121.5 -36t63.5 -101l-69 -31q-10 45 -46 69.5t-81 24.5q-52 1 -95.5 -29.5t-56.5 -89.5z" />
    <glyph glyph-name="afii10055" unicode="&#x406;" horiz-adv-x="284" 
d="M101 0l124 701h82l-124 -701h-82z" />
    <glyph glyph-name="afii10056" unicode="&#x407;" horiz-adv-x="283" 
d="M101 0l124 701h82l-124 -701h-82zM234 749h-85l13 75h85zM397 749h-85l13 75h85z" />
    <glyph glyph-name="afii10057" unicode="&#x408;" horiz-adv-x="545" 
d="M63 166l79 16q1 -46 26 -76.5t61 -37t73.5 2t68 42.5t39.5 83l75 426h-132l14 78h215l-89 -504q-13 -76 -61.5 -129.5t-108.5 -69t-118.5 -7t-99 56t-42.5 119.5z" />
    <glyph glyph-name="afii10058" unicode="&#x409;" horiz-adv-x="904" 
d="M626 700l-50 -282h117q94 0 144.5 -52t50.5 -127q0 -92 -74.5 -165.5t-195.5 -73.5h-197l112 635h-197l-56 -284q-25 -126 -45 -175q-54 -125 -194 -193l-23 60q48 27 79 55.5t50 67t28 69t21 88.5l75 377h355zM681 354h-116l-51 -290h116q77 0 126.5 52.5t49.5 114.5
q0 50 -32 86.5t-93 36.5z" />
    <glyph glyph-name="afii10059" unicode="&#x40a;" horiz-adv-x="917" 
d="M639 700l-52 -300h118q95 0 145 -49t50 -120q0 -89 -73.5 -160t-193.5 -71h-197l58 331h-255l-58 -331h-81l123 700h81l-52 -300h255l52 300h80zM691 331h-117l-47 -267h117q76 0 126 49.5t50 106.5q0 47 -33.5 79t-95.5 32z" />
    <glyph glyph-name="afii10060" unicode="&#x40b;" horiz-adv-x="675" 
d="M613 0h-81l51 287q13 53 -6.5 92.5t-57 55t-87 9.5t-91.5 -37l-72 -407h-80l112 635h-175l11 65h430l-11 -65h-174l-27 -152q60 32 123 31.5t109.5 -27t69.5 -80t7 -120.5z" />
    <glyph glyph-name="afii10061" unicode="&#x40c;" horiz-adv-x="630" 
d="M225 701h83l-61 -344l375 344h98l-336 -312l223 -389h-97l-191 335l-89 -76l-46 -259h-83zM594 862l-104 -115h-60l79 115h85z" />
    <glyph glyph-name="afii10062" unicode="&#x40e;" horiz-adv-x="554" 
d="M219 700l120 -399l240 399h86l-375 -608q-39 -61 -75 -76.5t-125 -15.5l11 67h39q30 0 48 12t38 42l57 93l-151 486h87zM421 743q-53 0 -84 30t-22 83h61q-5 -28 12.5 -42.5t42.5 -14.5q24 0 46 14.5t27 42.5h64q-9 -53 -51.5 -83t-95.5 -30z" />
    <glyph glyph-name="afii10145" unicode="&#x40f;" horiz-adv-x="658" 
d="M269 -120l21 120h-189l123 700h80l-111 -633h295l111 633h80l-123 -700h-191l-21 -120h-75z" />
    <glyph glyph-name="bgA" unicode="&#x410;" horiz-adv-x="632" 
d="M13 0l375 705h101l130 -705h-87l-42 224h-271l-118 -224h-88zM258 300h219l-53 318z" />
    <glyph glyph-name="afii10018" unicode="&#x411;" horiz-adv-x="587" 
d="M293 632l-35 -202h118q129 0 176 -90q40 -77 3 -171q-38 -96 -130 -141q-57 -28 -125 -28h-200l123 700h380l-12 -68h-298zM363 358h-118l-51 -288h118q94 1 147 76q44 63 28 128q-17 67 -90 81q-16 3 -34 3z" />
    <glyph glyph-name="afii10019" unicode="&#x412;" horiz-adv-x="609" 
d="M255 410h128q86 0 129 62q36 51 16 101q-24 57 -106 57h-128zM370 333h-128l-46 -257h128q104 0 157 70q42 56 22 113q-22 63 -107 73q-13 1 -26 1zM612 547q0 -103 -110 -170q53 -28 72.5 -75t9.5 -101q-17 -100 -93 -150.5t-181 -50.5h-209l124 704h210q77 0 127 -43
t50 -114z" />
    <glyph glyph-name="afii10020" unicode="&#x413;" horiz-adv-x="518" 
d="M596 700l-12 -71h-291l-111 -629h-80l123 700h371z" />
    <glyph glyph-name="afii10021" unicode="&#x414;" horiz-adv-x="691" 
d="M592 68h45l-38 -217h-71l26 149h-455l-26 -149h-69l36 207l50 10q30 21 54 62.5t34.5 74t23.5 81.5v-1l100 415h402zM173 68h340l100 567h-251l-65 -280q-14 -60 -22 -92t-23 -75t-34 -71.5t-45 -48.5z" />
    <glyph glyph-name="afii10022" unicode="&#x415;" horiz-adv-x="531" 
d="M596 702l-14 -75h-292l-42 -240h288l-13 -74h-288l-43 -237h293l-13 -75h-375l124 701h375z" />
    <glyph glyph-name="afii10024" unicode="&#x416;" horiz-adv-x="851" 
d="M510 700h75l-55 -313l326 313h96l-332 -314l218 -386h-93l-188 336l-43 -41l-52 -295h-75l52 294l-29 42l-309 -336h-93l358 386l-223 314h97l215 -313z" />
    <glyph glyph-name="afii10025" unicode="&#x417;" horiz-adv-x="541" 
d="M48 125l66 39q24 -57 60.5 -79t91.5 -22q74 0 124 43.5t50 117.5q0 47 -32 80.5t-79 34.5h-104l11 63h104q44 0 86.5 35t50.5 82q6 44 -12 74.5t-51.5 40.5t-72 6.5t-76.5 -24.5t-62 -55l-48 35q94 113 223 113q76 0 129 -42.5t53 -118.5q0 -54 -35 -106.5t-95 -71.5
q46 -13 69 -50t23 -85q0 -107 -81 -176.5t-189 -68.5q-157 2 -204 135z" />
    <glyph glyph-name="afii10026" unicode="&#x418;" horiz-adv-x="733" 
d="M88 0l123 700h82l-107 -610l483 610h99l-123 -700h-82l103 586l-462 -586h-116z" />
    <glyph glyph-name="afii10027" unicode="&#x419;" horiz-adv-x="733" 
d="M88 0l123 700h82l-107 -610l483 610h99l-123 -700h-82l103 586l-462 -586h-116zM500 743q-30 0 -58.5 23t-41.5 46.5t-6 25.5l61 18q6 0 22.5 -28.5t32.5 -28.5q17 0 45 23l28 24l38 10q18 0 -7 -35q-34 -49 -80 -70q-18 -8 -34 -8z" />
    <glyph glyph-name="afii10028" unicode="&#x41a;" horiz-adv-x="630" 
d="M225 701h83l-61 -344l375 344h98l-336 -312l223 -389h-97l-191 335l-89 -76l-46 -259h-83z" />
    <glyph glyph-name="afii10029" unicode="&#x41b;" horiz-adv-x="634" 
d="M192 328l81 373h383l-123 -701h-79l112 635h-231l-65 -305q-12 -59 -23 -96t-36 -87t-68.5 -89.5t-106.5 -70.5l-26 59q40 22 69.5 48.5t46.5 49t31 58t19.5 58.5t15.5 68z" />
    <glyph glyph-name="afii10030" unicode="&#x41c;" horiz-adv-x="851" 
d="M479 95h-71l-129 462l-98 -557h-80l124 704h105l132 -502l307 502h106l-124 -704h-83l97 552z" />
    <glyph glyph-name="afii10031" unicode="&#x41d;" horiz-adv-x="687" 
d="M505 0l55 312h-321l-55 -312h-83l124 703h83l-56 -317h321l56 317h83l-124 -703h-83z" />
    <glyph glyph-name="afii10032" unicode="&#x41e;" horiz-adv-x="820" 
d="M536 714q130 0 214 -91t84 -222q0 -108 -60.5 -204.5t-159.5 -153.5t-206 -57q-130 0 -214.5 90t-84.5 221q0 107 61 204t160 155t206 58zM192 299q0 -111 66.5 -174t162.5 -63q59 0 117 22.5t106 63.5t77.5 106.5t29.5 144.5q0 112 -66.5 176t-162.5 63
q-80 -1 -154 -39.5t-125 -118t-51 -181.5z" />
    <glyph glyph-name="afii10033" unicode="&#x41f;" horiz-adv-x="658" 
d="M557 0h-80l112 633h-295l-112 -633h-80l123 700h455z" />
    <glyph glyph-name="afii10034" unicode="&#x420;" horiz-adv-x="583" 
d="M228 256l-45 -256h-82l124 703h210q97 0 148.5 -56t51.5 -136q0 -100 -76.5 -177.5t-201.5 -77.5h-129zM370 332q81 0 131 51.5t50 114.5q0 53 -33 91t-96 38h-128l-52 -295h128z" />
    <glyph glyph-name="afii10035" unicode="&#x421;" horiz-adv-x="729" 
d="M771 607l-63 -55q-69 88 -186 85q-98 -1 -175 -52t-116 -126t-39 -156q0 -100 59.5 -169.5t169.5 -69.5q62 0 124.5 27t110.5 74l49 -48q-61 -60 -138.5 -94.5t-158.5 -34.5q-144 0 -222 88t-78 215q0 76 30.5 151t84.5 135.5t136 98t177 37.5q148 0 235 -106z" />
    <glyph glyph-name="afii10036" unicode="&#x422;" horiz-adv-x="451" 
d="M134 702h431l-14 -80h-174l-110 -622h-83l110 622h-174z" />
    <glyph glyph-name="afii10037" unicode="&#x423;" horiz-adv-x="553" 
d="M219 700l120 -399l240 399h86l-375 -608q-39 -61 -75 -76.5t-125 -15.5l11 67h39q30 0 48 12t38 42l57 93l-151 486h87z" />
    <glyph glyph-name="afii10038" unicode="&#x424;" horiz-adv-x="818" 
d="M474 639l11 64h79l-11 -64q161 -2 227 -111q54 -91 19 -210q-36 -121 -142 -192q-90 -61 -206 -63l-12 -66h-79l12 66q-163 2 -230 111q-56 92 -21 211q35 120 142 191q92 61 211 63zM541 572l-78 -443q133 3 211 103q64 81 57 177q-8 98 -89 140q-43 22 -101 23z
M191 320q0 -78 50 -134.5t143 -56.5l78 443q-120 0 -195.5 -78t-75.5 -174z" />
    <glyph glyph-name="afii10039" unicode="&#x425;" horiz-adv-x="643" 
d="M738 700l-300 -350l178 -349h-95l-143 289l-246 -289h-95l303 349l-178 350h96l142 -286l243 286h95z" />
    <glyph glyph-name="afii10040" unicode="&#x426;" horiz-adv-x="667" 
d="M568 68h46l-38 -216h-74l26 148h-427l123 700h80l-111 -632h293l111 632h82z" />
    <glyph glyph-name="afii10041" unicode="&#x427;" horiz-adv-x="624" 
d="M646 700l-123 -700h-79l47 265q-55 -16 -119 -16q-111 0 -177 55t-47 163l41 233h80l-41 -233q-13 -72 35 -111.5t124 -39.5q54 0 116 19l64 365h79z" />
    <glyph glyph-name="afii10042" unicode="&#x428;" horiz-adv-x="1018" 
d="M229 700h81l-111 -632h271l111 632h81l-111 -632h271l111 632h81l-123 -700h-785z" />
    <glyph glyph-name="afii10043" unicode="&#x429;" horiz-adv-x="1001" 
d="M224 700h80l-111 -632h271l111 632h81l-111 -632h271l111 632h82l-111 -632h52l-38 -216h-78l26 148h-759z" />
    <glyph glyph-name="afii10044" unicode="&#x42a;" horiz-adv-x="636" 
d="M413 356h-115l-51 -288h115q96 2 147 77q44 63 25 128q-19 67 -95 80q-12 3 -26 3zM358 700l-49 -278h116q94 0 143.5 -52.5t49.5 -127.5q0 -93 -73.5 -167.5t-194.5 -74.5h-195l112 635h-139l11 65h219z" />
    <glyph glyph-name="afii10045" unicode="&#x42b;" horiz-adv-x="822" 
d="M360 350h-115l-49 -278h115q78 1 125 49.5t47 110.5q0 49 -31.5 83t-91.5 35zM306 700l-49 -278h116q93 0 143 -52.5t50 -127.5q0 -94 -74 -168t-194 -74h-196l123 700h81zM638 0l123 700h83l-123 -700h-83z" />
    <glyph glyph-name="afii10046" unicode="&#x42c;" horiz-adv-x="580" 
d="M358 354h-116l-50 -285h116q77 1 125 51t48 112q0 50 -31.5 85.5t-91.5 36.5zM303 700l-49 -278h117q93 0 143 -52.5t50 -127.5q0 -94 -74 -168t-194 -74h-197l123 700h81z" />
    <glyph glyph-name="afii10047" unicode="&#x42d;" horiz-adv-x="717" 
d="M286 318l12 66h349q8 112 -54.5 181t-173.5 69q-113 0 -217 -92l-46 47q131 118 276 118q142 0 220 -87t78 -215q0 -80 -32 -155.5t-87 -132t-135 -91t-170 -34.5q-76 0 -139.5 36.5t-106.5 101.5l64 45q33 -51 85.5 -80t109.5 -29q113 0 200.5 72.5t116.5 179.5h-350z
" />
    <glyph glyph-name="afii10048" unicode="&#x42e;" horiz-adv-x="1052" 
d="M765 710q137 -2 218 -86t81 -216q0 -80 -38 -170q-15 -36 -59 -90q-27 -34 -74 -72q-54 -36 -81 -49q-31 -15 -89 -30q-39 -9 -85 -9q-47 0 -97 15q-72 22 -125.5 81.5t-69.5 131.5q-8 38 -3 97h-106l-55 -313h-81l123 700h81l-55 -315h106q20 62 57 123t85 104
q119 98 267 98zM752 637q-113 0 -207 -80q-91 -79 -116 -209q-8 -61 -1 -102q10 -61 50 -106.5t98 -66.5h-1q34 -11 76 -11q41 0 81 11h-1q49 15 82 36h-1q47 28 74 55q35 34 57 78q39 85 39 154q0 105 -62 172.5t-168 68.5z" />
    <glyph glyph-name="afii10049" unicode="&#x42f;" horiz-adv-x="596" 
d="M44 0l259 290q-99 7 -138 60.5t-22 144.5q18 98 89.5 151.5t173.5 53.5h212l-123 -700h-80l51 287h-80l-249 -287h-93zM351 355h127l48 275h-131q-77 0 -127 -42.5t-50 -121.5q0 -111 133 -111z" />
    <glyph glyph-name="bga" unicode="&#x430;" 
d="M460 239q-45 33 -122 33q-108 -1 -161 -62q-39 -47 -18 -94q32 -56 131 -58q37 0 78.5 17.5t70.5 45.5q4 20 10.5 58t10.5 60zM493 0h-61l-3 49q-65 -54 -150 -56q-133 -1 -181 76q-39 63 -2 138q39 80 138 113q52 18 114 17q63 0 123 -35l2 10q15 80 -31 115t-115 26
t-128 -46l-32 46q59 43 132 58.5t133.5 1.5t95 -66.5t20.5 -134.5z" />
    <glyph glyph-name="afii10066" unicode="&#x431;" horiz-adv-x="617" 
d="M213 394q-5 32 15 56t52.5 36t62.5 17.5t54 5.5q91 0 153 -54t62 -157q0 -128 -92 -219.5t-217 -86.5q-78 1 -132.5 41t-73.5 113q-5 20 -5 67q0 41 11 103q27 177 140 272t280 95q40 0 49 43h67q-10 -60 -46.5 -86.5t-78.5 -26.5q-83 0 -154 -24.5t-114 -75.5t-33 -119z
M167 219q0 -27 1 -36v1q10 -58 50 -90t98 -32q90 0 152.5 65t62.5 160q0 73 -42 112.5t-105 40.5q-82 1 -149.5 -59.5t-67.5 -161.5z" />
    <glyph glyph-name="afii10067" unicode="&#x432;" horiz-adv-x="555" 
d="M89 0l89 507h201q71 0 117 -27.5t46 -87.5q0 -42 -30.5 -82t-71.5 -47q38 -7 60.5 -37.5t22.5 -64.5q0 -44 -20 -76.5t-53.5 -50t-71.5 -26t-80 -8.5h-209zM368 442h-125l-26 -147h130q118 0 118 86q0 61 -97 61zM327 231h-121l-30 -166h133q54 0 92 20.5t44 63.5
q5 45 -31.5 64t-86.5 18z" />
    <glyph glyph-name="afii10068" unicode="&#x433;" horiz-adv-x="450" 
d="M86 0l89 507h334l-12 -68h-256l-77 -439h-78z" />
    <glyph glyph-name="afii10069" unicode="&#x434;" horiz-adv-x="610" 
d="M600 507l-78 -441h44l-33 -186h-71l21 120h-393l-21 -120h-70l33 186h50q49 29 71 162l50 279h397zM159 66h285l66 378h-243l-38 -216q-6 -36 -10 -55.5t-20 -54.5t-40 -52z" />
    <glyph glyph-name="afii10070" unicode="&#x435;" horiz-adv-x="599" 
d="M315 60q94 0 158 70l56 -38q-92 -101 -227 -101q-105 0 -160.5 64t-55.5 157q0 118 87 212.5t222 95.5q120 1 176 -87t16 -210h-426q-7 -68 33.5 -115.5t120.5 -47.5zM174 289h354q6 70 -33.5 115.5t-111.5 46.5q-77 -1 -131.5 -47.5t-77.5 -114.5z" />
    <glyph glyph-name="afii10072" unicode="&#x436;" horiz-adv-x="715" 
d="M412 507h74l-39 -221l249 222h91l-251 -227l171 -281h-89l-144 239l-41 -32l-36 -207h-74l36 206l-27 33l-231 -239h-86l272 281l-174 226h94l167 -218z" />
    <glyph glyph-name="afii10073" unicode="&#x437;" horiz-adv-x="449" 
d="M454 393q0 -39 -24.5 -76t-68.5 -51q34 -13 52 -42t18 -59q0 -87 -67.5 -131t-158.5 -44q-95 0 -176 70l50 56q27 -37 92.5 -54t123 7t57.5 91q0 71 -138 71h-46l12 65h49q147 -2 147 86q0 31 -27 48t-67 17q-80 0 -135 -45l-34 48q83 67 180 67q67 0 114 -32t47 -92z
" />
    <glyph glyph-name="afii10074" unicode="&#x438;" horiz-adv-x="596" 
d="M502 384l-349 -384h-69l89 507h78l-68 -386l349 386h68l-89 -507h-77z" />
    <glyph glyph-name="afii10075" unicode="&#x439;" horiz-adv-x="592" 
d="M502 384l-349 -384h-69l89 507h78l-68 -386l349 386h68l-89 -507h-77zM408 580q-30 0 -59.5 22.5t-43 46t-6.5 25.5l63 17q5 0 22 -27.5t34 -27.5q13 0 29.5 11t29.5 22.5t15 11.5l38 10q17 0 -7 -34q-34 -48 -81 -69q-19 -8 -34 -8z" />
    <glyph glyph-name="afii10076" unicode="&#x43a;" horiz-adv-x="518" 
d="M170 507h76l-42 -238l281 239h93l-261 -222l181 -286h-91l-148 236l-70 -56l-32 -180h-76z" />
    <glyph glyph-name="afii10077" unicode="&#x43b;" horiz-adv-x="549" 
d="M221 230q-15 -83 -50.5 -139.5t-127.5 -101.5l-26 53q37 19 62 42.5t38.5 56t19 53.5t12.5 61l44 252h363l-89 -507h-79l77 439h-207z" />
    <glyph glyph-name="afii10078" unicode="&#x43c;" horiz-adv-x="655" 
d="M170 507h77l113 -325l227 325h75l-89 -507h-74l62 354l-186 -260h-62l-97 259l-62 -353h-73z" />
    <glyph glyph-name="afii10079" unicode="&#x43d;" horiz-adv-x="574" 
d="M171 507h78l-39 -221h253l39 221h79l-89 -507h-79l39 221h-253l-39 -221h-78z" />
    <glyph glyph-name="afii10080" unicode="&#x43e;" horiz-adv-x="615" 
d="M167 216q0 -76 42.5 -117.5t106.5 -41.5q86 0 152.5 62t66.5 171q0 76 -42.5 116.5t-107.5 40.5q-86 0 -152 -61t-66 -170zM613 296q0 -126 -90.5 -217t-218.5 -91q-98 0 -156.5 63t-58.5 159q0 126 90 216.5t218 90.5q99 0 157.5 -62.5t58.5 -158.5z" />
    <glyph glyph-name="afii10081" unicode="&#x43f;" horiz-adv-x="574" 
d="M171 507h410l-89 -507h-79l78 441h-253l-78 -441h-78z" />
    <glyph glyph-name="afii10082" unicode="&#x440;" horiz-adv-x="573" 
d="M363 513q102 3 157.5 -53.5t55.5 -155.5q0 -133 -90 -222t-203 -88q-75 0 -122 35l-39 -224h-75l124 702h61l2 -53q25 25 60.5 41.5t68.5 17.5zM301 61q92 9 145.5 73t53.5 157q0 75 -41 114t-103 37q-67 -2 -131 -55l-49 -277q42 -59 125 -49z" />
    <glyph glyph-name="afii10083" unicode="&#x441;" horiz-adv-x="526" 
d="M561 449l-53 -53q-46 52 -126 52q-82 1 -149.5 -65t-67.5 -162q0 -66 38.5 -112.5t111.5 -46.5q77 0 148 56l35 -53q-87 -73 -195 -73q-122 0 -177 77.5t-36 184.5t102.5 186t203.5 79q105 0 165 -70z" />
    <glyph glyph-name="afii10084" unicode="&#x442;" horiz-adv-x="451" 
d="M100 441l12 66h405l-12 -66h-163l-78 -441h-80l78 441h-162z" />
    <glyph glyph-name="afii10085" unicode="&#x443;" horiz-adv-x="504" 
d="M55 -190l11 65q42 -5 66 8.5t40 41.5l41 73l-117 509h84l90 -420l230 420h84l-342 -607q-56 -103 -187 -90z" />
    <glyph glyph-name="afii10086" unicode="&#x444;" horiz-adv-x="691" 
d="M179 253q-16 -76 24 -130t115 -61l67 383q-77 -8 -136.5 -62.5t-69.5 -129.5zM463 445l-67 -383q90 6 149.5 69t59.5 151q0 65 -39 110.5t-103 52.5zM430 700h78l-32 -186q96 -6 152.5 -67t56.5 -153q0 -123 -85 -208.5t-216 -92.5l-33 -186h-78l33 186
q-110 7 -168.5 79.5t-36.5 180.5q17 106 100.5 178.5t195.5 81.5z" />
    <glyph glyph-name="afii10087" unicode="&#x445;" horiz-adv-x="503" 
d="M309 308l173 202h91l-223 -256l135 -254h-91l-104 200l-177 -200h-88l224 254l-132 256h95z" />
    <glyph glyph-name="afii10088" unicode="&#x446;" horiz-adv-x="588" 
d="M508 507h78l-77 -440h41l-34 -187h-71l21 120h-381l89 507h79l-77 -440h255z" />
    <glyph glyph-name="afii10089" unicode="&#x447;" horiz-adv-x="544" 
d="M462 0h-79l30 169q-49 -15 -108 -15q-97 0 -152.5 55t-37.5 160l24 138h77l-24 -138q-13 -71 25.5 -110t103.5 -39q57 0 104 17l47 270h79z" />
    <glyph glyph-name="afii10090" unicode="&#x448;" horiz-adv-x="854" 
d="M479 66h227l77 441h78l-89 -507h-688l89 507h79l-77 -441h228l77 441h76z" />
    <glyph glyph-name="afii10091" unicode="&#x449;" horiz-adv-x="863" 
d="M478 67h225l77 440h80l-77 -439h46l-34 -188h-73l21 120h-661l89 507h80l-77 -440h226l77 440h78z" />
    <glyph glyph-name="afii10092" unicode="&#x44a;" horiz-adv-x="595" 
d="M310 507l-34 -193h134q71 0 117 -32t46 -99q0 -93 -64 -138t-154 -45h-211l78 443h-125l11 64h202zM399 248h-134l-33 -184h134q51 0 90.5 28t39.5 79q0 38 -28 57t-69 20z" />
    <glyph glyph-name="afii10093" unicode="&#x44b;" horiz-adv-x="731" 
d="M248 507l-34 -196h134q72 0 118.5 -31t46.5 -97q0 -92 -64.5 -137.5t-155.5 -45.5h-211l89 507h77zM337 247h-134l-33 -185h134q51 0 90.5 28.5t39.5 79.5q0 38 -28 57t-69 20zM573 0l89 507h76l-89 -507h-76z" />
    <glyph glyph-name="afii10094" unicode="&#x44c;" horiz-adv-x="532" 
d="M247 507l-35 -199h134q73 0 119 -29.5t46 -95.5q0 -63 -33 -106t-80.5 -60t-105.5 -17h-210l89 507h76zM335 246h-134l-32 -183h134q51 0 91 28t40 79q0 38 -28 56.5t-71 19.5z" />
    <glyph glyph-name="afii10095" unicode="&#x44d;" horiz-adv-x="507" 
d="M292 446q-73 0 -147 -57l-34 45q95 82 192 80q96 -1 153 -62t57 -157q0 -125 -87.5 -213t-213.5 -89q-93 0 -174 78l54 52q60 -59 133 -59q75 0 131 43t72 115h-262l11 63h261q12 67 -34 114t-112 47z" />
    <glyph glyph-name="afii10096" unicode="&#x44e;" horiz-adv-x="793" 
d="M355 220q0 -57 21 -91h-1q21 -29 55.5 -47t72.5 -18q49 0 103 28q53 30 82.5 82.5t29.5 111.5q0 64 -32 103q-43 52 -116 52q-50 0 -104 -30q-55 -31 -85 -89q-26 -52 -26 -102zM195 219l-39 -219h-75l89 507h75l-38 -219h81q11 36 32 70q44 71 118 115q70 40 144 40
q105 0 166 -70q48 -60 48 -151q0 -78 -42.5 -148t-118.5 -114q-66 -38 -144 -38q-58 1 -107 25t-76 67q-38 59 -32 135h-81z" />
    <glyph glyph-name="bgq" unicode="&#x44f;" horiz-adv-x="523" 
d="M530 507l-89 -507h-76l37 212h-82l-205 -212h-85l202 214q-125 14 -125 117q0 95 59 135.5t153 40.5h211zM278 275h135l30 166h-135q-53 -1 -88 -23.5t-35 -73.5q0 -69 93 -69z" />
    <glyph glyph-name="afii10071" unicode="&#x451;" horiz-adv-x="598" 
d="M315 60q94 0 158 70l56 -38q-92 -101 -227 -101q-105 0 -160.5 64t-55.5 157q0 118 87 212.5t222 95.5q120 1 176 -87t16 -210h-426q-7 -68 33.5 -115.5t120.5 -47.5zM174 289h354q6 70 -33.5 115.5t-111.5 46.5q-77 -1 -131.5 -47.5t-77.5 -114.5zM365 608h-89l14 81h89
zM537 608h-89l14 81h89z" />
    <glyph glyph-name="afii10099" unicode="&#x452;" horiz-adv-x="610" 
d="M209 701h78l-13 -70h132l-10 -58h-132l-17 -99q53 40 138 41q106 -2 163 -63t38 -168l-13 -75q-20 -111 -74.5 -162.5t-165.5 -47.5l11 66q75 0 105 28.5t46 115.5l13 75q12 70 -26 112.5t-107 47.5q-76 4 -141 -38l-72 -406h-77l101 573h-64l10 58h64z" />
    <glyph glyph-name="afii10100" unicode="&#x453;" horiz-adv-x="450" 
d="M86 0l89 507h334l-12 -68h-256l-77 -439h-78zM476 698l-104 -115h-60l79 115h85z" />
    <glyph glyph-name="afii10101" unicode="&#x454;" horiz-adv-x="507" 
d="M372 446q-67 0 -128.5 -47t-73.5 -114h261l-11 -63h-262q-10 -72 31.5 -115t115.5 -43t153 59l36 -52q-109 -78 -202 -78q-96 1 -152.5 61t-56.5 154q0 127 88 215.5t214 90.5q98 2 164 -80l-50 -45q-54 57 -127 57z" />
    <glyph glyph-name="afii10102" unicode="&#x455;" horiz-adv-x="439" 
d="M283 291q141 -29 141 -129q0 -43 -20.5 -78t-53 -54.5t-68.5 -30t-71 -10.5q-113 0 -156 83l57 49q39 -62 112 -62q41 -1 77.5 20.5t43.5 61.5q9 59 -92 79q-153 27 -133 145q12 70 72 111t132 41q94 0 140 -58l-54 -51q-35 36 -98 38q-45 1 -81 -23.5t-36 -65.5
q0 -49 88 -66z" />
    <glyph glyph-name="afii10103" unicode="&#x456;" horiz-adv-x="241" 
d="M160 0h-79l90 512h79zM265 592h-81q9 48 20 112h81q-11 -64 -20 -112z" />
    <glyph glyph-name="afii10104" unicode="&#x457;" horiz-adv-x="241" 
d="M160 0h-79l90 512h79zM195 623h-83l14 78h83zM355 623h-83l14 78h83z" />
    <glyph glyph-name="afii10105" unicode="&#x458;" horiz-adv-x="241" 
d="M-57 -198l12 69q48 -3 79.5 18.5t38.5 63.5q32 184 51.5 296.5t46.5 262.5h79q-19 -108 -45 -256t-53 -303q-15 -81 -72.5 -120t-136.5 -31zM263 592h-81q8 42 20 113h81q-12 -71 -20 -113z" />
    <glyph glyph-name="afii10106" unicode="&#x459;" horiz-adv-x="793" 
d="M176 507h329l-35 -199h134q74 0 121 -29t47 -96q0 -92 -65 -137.5t-157 -45.5h-210l78 443h-176l-38 -213q-6 -33 -11.5 -54.5t-17.5 -50t-29.5 -49.5t-47 -44t-68.5 -42l-27 56q22 11 39.5 24t29 22.5t21.5 28.5t14.5 26t10 32t6.5 29.5t6 34.5zM593 245h-134l-32 -181
h134q52 0 92.5 28t40.5 78q0 38 -29 56.5t-72 18.5z" />
    <glyph glyph-name="afii10107" unicode="&#x45a;" horiz-adv-x="833" 
d="M468 507h78l-36 -206h133q168 0 168 -120q0 -63 -33.5 -105.5t-81 -59t-106.5 -16.5h-211l42 238h-218l-42 -238h-79l89 507h79l-36 -206h218zM632 239h-133l-31 -177h133q54 0 95 27t41 78q0 70 -105 72z" />
    <glyph glyph-name="afii10108" unicode="&#x45b;" horiz-adv-x="597" 
d="M113 576l9 55h70l13 70h78l-13 -70h124l-9 -55h-124l-19 -104q58 42 139 43q106 -2 163 -63t38 -168l-50 -284h-78l50 284q12 71 -26 113t-107 47q-76 4 -141 -38l-72 -406h-77l102 576h-70z" />
    <glyph glyph-name="afii10109" unicode="&#x45c;" horiz-adv-x="518" 
d="M170 507h76l-42 -238l281 239h93l-261 -222l181 -286h-91l-148 236l-70 -56l-32 -180h-76zM499 698l-104 -115h-60l79 115h85z" />
    <glyph glyph-name="afii10110" unicode="&#x45e;" horiz-adv-x="502" 
d="M55 -190l11 65q42 -5 66 8.5t40 41.5l41 73l-117 509h84l90 -420l230 420h84l-342 -607q-56 -103 -187 -90zM354 582q-54 0 -86 29.5t-23 81.5h63q-5 -27 12.5 -41t43.5 -14q25 0 47 13.5t27 41.5h64q-9 -52 -52 -81.5t-96 -29.5z" />
    <glyph glyph-name="afii10193" unicode="&#x45f;" horiz-adv-x="574" 
d="M236 -103l18 103h-172l89 506h79l-77 -440h253l77 440h78l-89 -506h-165l-18 -103h-73z" />
    <glyph glyph-name="afii10050" unicode="&#x490;" horiz-adv-x="518" 
d="M614 801l-30 -172h-291l-111 -629h-80l123 700h303l18 101h68z" />
    <glyph glyph-name="afii10098" unicode="&#x491;" horiz-adv-x="450" 
d="M86 0l89 507h264l16 87h70l-28 -155h-256l-77 -439h-78z" />
    <glyph glyph-name="uni1E9E" unicode="&#x1e9e;" horiz-adv-x="585" 
d="M269 525q-73 -413 -79 -448l-14 -77h-83l93 525q14 83 83.5 133.5t152.5 50.5q74 0 122.5 -41t48.5 -112q0 -50 -29.5 -97t-82.5 -77q55 -22 80.5 -72.5t14.5 -108.5q-8 -53 -34.5 -94.5t-64.5 -66t-82 -37t-89.5 -10.5t-86.5 17l13 76q36 -22 82 -22q99 0 152 72
q43 59 26 120q-18 65 -94 79q-16 3 -35 3h-59l13 77h59q59 0 98 39t39 86q0 43 -30 68t-75 25q-47 0 -88.5 -30t-50.5 -78z" />
    <glyph glyph-name="thinspace" unicode="&#x2009;" horiz-adv-x="14" 
 />
    <glyph glyph-name="endash" unicode="&#x2013;" horiz-adv-x="697" 
d="M138 246l14 77h509l-14 -77h-509z" />
    <glyph glyph-name="emdash" unicode="&#x2014;" horiz-adv-x="867" 
d="M138 246l14 78h688l-14 -78h-688z" />
    <glyph glyph-name="quoteleft" unicode="&#x2018;" horiz-adv-x="237" 
d="M319 717l-92 -211h-89l115 211h66z" />
    <glyph glyph-name="quoteright" unicode="&#x2019;" horiz-adv-x="229" 
d="M138 507l92 211h89l-115 -211h-66z" />
    <glyph glyph-name="quotesinglbase" unicode="&#x201a;" horiz-adv-x="263" 
d="M8 -109l103 216h92l-120 -216h-75z" />
    <glyph glyph-name="quotedblleft" unicode="&#x201c;" horiz-adv-x="379" 
d="M319 717l-92 -211h-89l115 211h66zM460 717l-92 -211h-89l115 211h66z" />
    <glyph glyph-name="quotedblright" unicode="&#x201d;" horiz-adv-x="365" 
d="M138 507l92 211h87l-113 -211h-66zM280 507l92 211h87l-113 -211h-66z" />
    <glyph glyph-name="quotedblbase" unicode="&#x201e;" horiz-adv-x="406" 
d="M8 -109l103 216h89l-120 -216h-72zM166 -109l103 216h88l-119 -216h-72z" />
    <glyph glyph-name="dagger" unicode="&#x2020;" horiz-adv-x="429" 
d="M159 -50l86 486h-133l12 70h133l36 200h73l-36 -200h139l-12 -70h-139l-86 -486h-73z" />
    <glyph glyph-name="daggerdbl" unicode="&#x2021;" horiz-adv-x="445" 
d="M82 171l12 66h134l35 201h-134l12 68h134l35 200h72l-35 -200h138l-12 -68h-138l-35 -201h138l-12 -66h-138l-39 -221h-72l39 221h-134z" />
    <glyph glyph-name="bullet" unicode="&#x2022;" horiz-adv-x="408" 
d="M239 157q-50 0 -81.5 32.5t-31.5 81.5q0 62 48 108t112 46q49 0 80 -32.5t31 -81.5q0 -62 -48 -108t-110 -46z" />
    <glyph glyph-name="ellipsis" unicode="&#x2026;" horiz-adv-x="711" 
d="M181 -2h-100l19 109h100zM395 -2h-100l19 109h100zM616 -2h-100l19 109h100z" />
    <glyph glyph-name="perthousand" unicode="&#x2030;" horiz-adv-x="1225" 
d="M493 566q0 -78 -63 -136t-142 -58q-63 0 -104 42t-41 104q0 78 63 136.5t142 58.5q63 0 104 -42t41 -105zM820 182q0 -78 -63 -136t-142 -58q-63 0 -104 42t-41 104q0 78 62.5 136t142.5 58q63 0 104 -42t41 -104zM747 174q0 38 -23 64.5t-60 26.5q-47 0 -84 -37t-37 -86
q0 -38 23.5 -63.5t60.5 -25.5q47 0 83.5 36.5t36.5 84.5zM729 742h95l-591 -779h-94zM1209 182q0 -78 -63 -136t-142 -58q-63 0 -104 42t-41 104q0 78 62.5 136t142.5 58q63 0 104 -42t41 -104zM1135 174q0 38 -23 64.5t-60 26.5q-47 0 -84 -37t-37 -86q0 -38 23 -63.5
t61 -25.5q47 0 83.5 36.5t36.5 84.5zM419 557q0 38 -23 64.5t-60 26.5q-48 0 -85 -37t-37 -86q0 -38 23.5 -63.5t60.5 -25.5q47 0 84 36.5t37 84.5z" />
    <glyph glyph-name="guilsinglleft" unicode="&#x2039;" horiz-adv-x="353" 
d="M227 77l-128 205l200 206h94l-200 -206l128 -205h-94z" />
    <glyph glyph-name="guilsinglright" unicode="&#x203a;" horiz-adv-x="356" 
d="M66 77l197 205l-127 206h93l128 -206l-200 -205h-91z" />
    <glyph glyph-name="fraction" unicode="&#x2044;" horiz-adv-x="178" 
d="M-74 -47h-72l497 761h72z" />
    <glyph glyph-name="zerosuperior" unicode="&#x2070;" horiz-adv-x="438" 
d="M206 579q-13 -72 44 -100q50 -26 110 1q63 29 76 99l22 122q13 71 -44 100q-51 26 -110 -1q-63 -29 -76 -99zM161 701q18 100 109 146q81 40 161 16q77 -23 93 -94q8 -31 1 -68l-22 -122q-13 -72 -69 -118q-65 -53 -143.5 -53.5t-124.5 53.5q-40 46 -27 118z" />
    <glyph glyph-name="foursuperior" unicode="&#x2074;" horiz-adv-x="402" 
d="M475 860l-54 -302h39l-10 -61h-39l-14 -80h-73l14 80h-189l-35 53l289 310h72zM200 559l148 -1l37 203z" />
    <glyph glyph-name="fivesuperior" unicode="&#x2075;" horiz-adv-x="438" 
d="M500 799h-202l-34 -102q136 38 196 -25q32 -37 32 -88q0 -74 -66 -128q-59 -49 -141 -49q-53 0 -96 24t-57 68l-2 7l65 27l2 -6q9 -27 37.5 -43t61.5 -16q33 -5 63 11t45.5 41.5t18.5 55t-18 51.5q-34 36 -116 21q-42 -6 -75 -23l-2 -1l-41 -2l83 240h257z" />
    <glyph glyph-name="sixsuperior" unicode="&#x2076;" horiz-adv-x="430" 
d="M450 866l-138 -160q72 22 126 -11.5t54 -101.5q0 -73 -65 -128q-56 -48 -137 -48q-79 0 -119 48q-28 34 -28 85q0 54 46 108l181 208h80zM333 660q-46 0 -83 -28.5t-37 -73.5q0 -37 25 -61t62 -24q45 0 83.5 33.5t38.5 77.5q0 35 -26 55.5t-63 20.5z" />
    <glyph glyph-name="sevensuperior" unicode="&#x2077;" horiz-adv-x="362" 
d="M125 416l266 380h-199l11 64h263l16 -41l-281 -403h-76z" />
    <glyph glyph-name="eightsuperior" unicode="&#x2078;" horiz-adv-x="408" 
d="M216 654q-26 25 -26 68q0 67 49.5 105.5t115.5 38.5q53 0 87.5 -27.5t34.5 -76.5q0 -68 -58 -108q42 -31 42 -90q0 -71 -57.5 -115t-130.5 -44q-57 0 -97 32.5t-40 87.5q0 81 80 129zM344 805q-36 0 -60 -19t-24 -56q0 -49 62 -49q85 0 85 73q0 25 -17.5 38t-45.5 13z
M312 626q-45 0 -76 -24.5t-31 -67.5q0 -31 23 -49.5t56 -18.5q42 0 75 25.5t33 66.5q0 33 -22.5 50.5t-57.5 17.5z" />
    <glyph glyph-name="ninesuperior" unicode="&#x2079;" horiz-adv-x="426" 
d="M210 419l139 160q-72 -22 -126 11.5t-54 101.5q0 73 65 128q56 48 137 48q79 0 119 -48q28 -34 28 -85q0 -54 -46 -108l-181 -208h-81zM328 625q46 0 83 28.5t37 73.5q0 37 -25 61t-62 24q-45 0 -83.5 -33.5t-38.5 -77.5q0 -35 25.5 -55.5t63.5 -20.5z" />
    <glyph glyph-name="zeroinferior" unicode="&#x2080;" horiz-adv-x="432" 
d="M104 1q-13 -72 44 -100q50 -26 110 1q63 29 76 99l22 122q13 71 -44 100q-51 26 -110 -1q-63 -29 -76 -99zM59 123q18 100 109 146q81 40 161 16q77 -23 93 -94q8 -31 1 -68l-22 -122q-13 -72 -69 -118q-65 -53 -143.5 -53.5t-124.5 53.5q-40 46 -27 118z" />
    <glyph glyph-name="oneinferior" unicode="&#x2081;" horiz-adv-x="289" 
d="M102 -157l65 367h-64l11 65h9h120h9l-76 -432h-74z" />
    <glyph glyph-name="twoinferior" unicode="&#x2082;" horiz-adv-x="415" 
d="M321 51l-192 -147h221l-11 -64h-307l-14 48l261 211q50 41 46 79q-3 25 -25 36.5t-51 12.5q-73 3 -111 -53l-58 26q22 36 55 59q25 18 60 28q35 9 67 8q53 -2 90.5 -27t43.5 -73q4 -38 -17.5 -76t-57.5 -68z" />
    <glyph glyph-name="threeinferior" unicode="&#x2083;" horiz-adv-x="404" 
d="M310 78q49 -29 49 -90q0 -73 -59.5 -116.5t-133.5 -43.5q-52 0 -92 24.5t-54 69.5l64 28q10 -27 37 -42.5t59 -15.5q39 0 71.5 24t32.5 63q0 28 -20 46.5t-49 18.5h-45l10 60h45q33 0 56.5 16.5t23.5 49.5q0 26 -19 40t-48 14q-27 0 -55 -13t-44 -36l-52 30
q26 39 70.5 61t89.5 22q55 0 94 -29t39 -80q0 -34 -20 -61.5t-50 -39.5z" />
    <glyph glyph-name="fourinferior" unicode="&#x2084;" horiz-adv-x="389" 
d="M374 286l-54 -302h39l-10 -61h-39l-14 -80h-73l14 80h-189l-35 53l289 310h72zM99 -15l148 -1l37 203z" />
    <glyph glyph-name="fiveinferior" unicode="&#x2085;" horiz-adv-x="428" 
d="M398 222h-202l-34 -102q136 38 196 -25q32 -37 32 -88q0 -74 -66 -128q-59 -49 -141 -49q-53 0 -96 24t-57 68l-2 7l65 27l2 -6q9 -27 37.5 -43t61.5 -16q33 -5 63 11t45.5 41.5t18.5 55t-18 51.5q-34 36 -116 21q-42 -6 -75 -23l-2 -1l-41 -2l83 240h257z" />
    <glyph glyph-name="sixinferior" unicode="&#x2086;" horiz-adv-x="428" 
d="M348 283l-138 -160q72 22 126 -11.5t54 -101.5q0 -73 -65 -128q-56 -48 -137 -48q-79 0 -119 48q-28 34 -28 85q0 54 46 108l181 208h80zM231 77q-46 0 -83 -28.5t-37 -73.5q0 -37 25 -61t62 -24q45 0 83.5 33.5t38.5 77.5q0 35 -26 55.5t-63 20.5z" />
    <glyph glyph-name="seveninferior" unicode="&#x2087;" horiz-adv-x="364" 
d="M22 -168l266 380h-208l11 64h272l16 -41l-281 -403h-76z" />
    <glyph glyph-name="eightinferior" unicode="&#x2088;" horiz-adv-x="399" 
d="M115 79q-26 25 -26 68q0 67 49 105.5t116 38.5q53 0 87.5 -27.5t34.5 -76.5q0 -68 -58 -108q42 -31 42 -90q0 -71 -57.5 -115t-130.5 -44q-58 0 -97.5 32.5t-39.5 87.5q0 81 80 129zM243 230q-36 0 -60 -19t-24 -56q0 -49 62 -49q85 0 85 73q0 51 -63 51zM211 51
q-45 0 -76 -24.5t-31 -67.5q0 -31 23 -49.5t56 -18.5q42 0 75 25.5t33 66.5q0 33 -22.5 50.5t-57.5 17.5z" />
    <glyph glyph-name="nineinferior" unicode="&#x2089;" horiz-adv-x="421" 
d="M108 -158l139 160q-72 -22 -126 11.5t-54 101.5q0 73 65 128q56 48 137 48q79 0 119 -48q28 -34 28 -85q0 -54 -46 -108l-181 -208h-81zM226 48q46 0 83 28.5t37 73.5q0 37 -25 61t-62 24q-45 0 -83.5 -33.5t-38.5 -77.5q0 -35 26 -55.5t63 -20.5z" />
    <glyph glyph-name="Euro" unicode="&#x20ac;" horiz-adv-x="666" 
d="M127 447h58q50 116 153.5 192t240.5 76q80 0 145 -34l-46 -69q-48 27 -113 27q-99 -1 -175.5 -55t-118.5 -137h291l-26 -69h-290q-1 -4 -3 -13.5t-3 -14.5q0 -2 -0.5 -7t-1.5 -7h277l-25 -67h-254q7 -90 65.5 -148.5t162.5 -58.5q68 0 140 35l25 -67q-88 -44 -179 -44
q-142 0 -219 81t-80 202h-73l27 67h50v4q0 7 3 20.5t4 17.5h-61z" />
    <glyph glyph-name="afii61352" unicode="&#x2116;" horiz-adv-x="1328" 
d="M225 704h88l256 -588l104 588h83l-124 -704h-105l-245 564l-99 -564h-82zM886 216q0 -76 42.5 -117.5t106.5 -41.5q86 0 152.5 62t66.5 171q0 76 -42.5 116.5t-107.5 40.5q-86 0 -152 -61t-66 -170zM1332 296q0 -126 -90.5 -217t-218.5 -91q-98 0 -156.5 63t-58.5 159
q0 126 90 216.5t218 90.5q99 0 157.5 -62.5t58.5 -158.5z" />
    <glyph glyph-name="trademark" unicode="&#x2122;" horiz-adv-x="884" 
d="M432 637h-111l-56 -317h-68l56 317h-111l11 61h290zM638 368l-81 222l-46 -270h-69l67 377h75l95 -246l186 246h72l-67 -377h-69l51 270l-159 -222h-55z" />
    <glyph glyph-name="minus" unicode="&#x2212;" horiz-adv-x="609" 
d="M100 246l12 69h513l-12 -69h-513z" />
    <glyph glyph-name="approxequal" unicode="&#x2248;" horiz-adv-x="609" 
d="M161 331l-32 49q81 73 164 73q50 0 101.5 -35t84.5 -35q68 0 119 46l31 -50q-78 -68 -163 -68q-50 0 -101.5 34.5t-84.5 34.5q-63 0 -119 -49zM130 155l-32 49q81 73 164 73q50 0 101.5 -35t84.5 -35q68 0 119 46l31 -50q-78 -68 -163 -68q-50 0 -101.5 34.5t-84.5 34.5
q-63 0 -119 -49z" />
    <glyph glyph-name="zero.numerator" horiz-adv-x="436" 
d="M178 422q-13 -72 44 -100q51 -25 109 2q63 29 75 98l22 122q13 72 -44 100q-50 26 -109 -1q-62 -29 -75 -99zM133 544q18 100 110 146q80 40 159 16q76 -23 92 -94q8 -31 1 -68l-22 -122q-14 -78 -78 -125.5t-138 -45.5t-118 53q-40 47 -28 118z" />
    <glyph glyph-name="one.numerator" horiz-adv-x="298" 
d="M163 275l65 367h-64l11 65h9h120h9l-76 -432h-74z" />
    <glyph glyph-name="two.numerator" horiz-adv-x="414" 
d="M389 470l-192 -147h221l-11 -64h-307l-14 48l261 211q50 41 46 79q-3 25 -25 36.5t-51 12.5q-73 3 -111 -53l-58 26q22 36 55 59q25 18 60 28q35 9 67 8q53 -2 90.5 -27t43.5 -73q4 -38 -17.5 -76t-57.5 -68z" />
    <glyph glyph-name="three.numerator" horiz-adv-x="404" 
d="M386 505q49 -29 49 -90q0 -73 -59.5 -116.5t-133.5 -43.5q-52 0 -92 24.5t-54 69.5l64 28q10 -27 37 -42.5t59 -15.5q39 0 71.5 24t32.5 63q0 28 -20 46.5t-49 18.5h-45l10 60h45q33 0 56.5 16.5t23.5 49.5q0 26 -19 40t-48 14q-27 0 -55 -13t-44 -36l-52 30
q26 39 70.5 61t89.5 22q55 0 94 -29t39 -80q0 -34 -20 -61.5t-50 -39.5z" />
    <glyph glyph-name="four.numerator" horiz-adv-x="402" 
d="M448 708l-54 -302h39l-10 -61h-39l-14 -80h-73l14 80h-189l-35 53l289 310h72zM170 408l151 -2l37 203z" />
    <glyph glyph-name="five.numerator" horiz-adv-x="438" 
d="M472 637h-202l-34 -102q136 38 196 -25q32 -37 32 -88q0 -74 -66 -128q-59 -49 -141 -49q-53 0 -96 24t-57 68l-2 7l65 27l2 -6q9 -27 37.5 -43t61.5 -16q33 -5 63 11t45.5 41.5t18.5 55t-18 51.5q-34 36 -116 21q-42 -6 -75 -23l-2 -1l-41 -2l83 240h257z" />
    <glyph glyph-name="six.numerator" horiz-adv-x="430" 
d="M421 700l-138 -160q72 22 126 -11.5t54 -101.5q0 -73 -65 -128q-56 -48 -137 -48q-79 0 -119 48q-28 34 -28 85q0 54 46 108l181 208h80zM304 494q-46 0 -83 -28.5t-37 -73.5q0 -37 25 -61t62 -24q45 0 83.5 33.5t38.5 77.5q0 35 -26 55.5t-63 20.5z" />
    <glyph glyph-name="seven.numerator" horiz-adv-x="370" 
d="M97 257l266 380h-199l11 64h263l16 -41l-281 -403h-76z" />
    <glyph glyph-name="eight.numerator" horiz-adv-x="408" 
d="M189 499q-27 25 -27 68q0 67 49.5 105.5t115.5 38.5q53 0 88 -27.5t35 -76.5q0 -68 -58 -108q42 -31 42 -90q0 -71 -57.5 -115t-130.5 -44q-58 0 -97.5 32.5t-39.5 87.5q0 81 80 129zM317 650q-37 0 -61 -19t-24 -56q0 -49 63 -49q85 0 85 73q0 25 -17.5 38t-45.5 13z
M285 471q-45 0 -76 -24.5t-31 -67.5q0 -31 23 -49.5t56 -18.5q42 0 74.5 25.5t32.5 66.5q0 33 -22 50.5t-57 17.5z" />
    <glyph glyph-name="nine.numerator" horiz-adv-x="426" 
d="M181 260l139 160q-72 -22 -126 11.5t-54 101.5q0 73 65 128q56 48 137 48q79 0 119 -48q28 -34 28 -85q0 -54 -46 -108l-181 -208h-81zM299 466q46 0 83 28.5t37 73.5q0 37 -25 61t-62 24q-45 0 -83.5 -33.5t-38.5 -77.5q0 -35 25.5 -55.5t63.5 -20.5z" />
    <glyph glyph-name="zero.denominator" horiz-adv-x="440" 
d="M138 158q-13 -72 43 -100q49 -26 107 1q63 29 76 99l22 122q13 72 -43 100q-50 26 -107 -1q-63 -29 -76 -99zM93 280q18 100 109 146q80 40 159 16q76 -24 92 -95q7 -31 0 -67l-22 -122q-18 -99 -109 -144q-79 -40 -158 -16q-77 24 -93 95q-6 29 0 65z" />
    <glyph glyph-name="one.denominator" horiz-adv-x="298" 
d="M115 -1l65 367h-64l11 65h9h120h9l-76 -432h-74z" />
    <glyph glyph-name="two.denominator" horiz-adv-x="415" 
d="M344 212l-192 -147h221l-11 -64h-307l-14 48l261 211q50 41 46 79q-3 25 -25 36.5t-51 12.5q-73 3 -111 -53l-58 26q22 36 55 59q25 18 60 28q35 9 67 8q53 -2 90.5 -27t43.5 -73q4 -38 -17.5 -76t-57.5 -68z" />
    <glyph glyph-name="three.denominator" horiz-adv-x="404" 
d="M339 239q49 -29 49 -90q0 -73 -59.5 -116.5t-133.5 -43.5q-52 0 -92 24.5t-54 69.5l64 28q10 -27 37 -42.5t59 -15.5q39 0 71.5 24t32.5 63q0 28 -20 46.5t-49 18.5h-45l10 60h45q33 0 56.5 16.5t23.5 49.5q0 26 -19 40t-48 14q-27 0 -55 -13t-44 -36l-52 30
q26 39 70.5 61t89.5 22q55 0 94 -29t39 -80q0 -34 -20 -61.5t-50 -39.5z" />
    <glyph glyph-name="four.denominator" horiz-adv-x="402" 
d="M401 443l-53 -299h39l-11 -64h-39l-14 -80h-73l14 80h-189l-35 53l289 310h72zM130 145l145 -1l36 200z" />
    <glyph glyph-name="five.denominator" horiz-adv-x="438" 
d="M427 382h-202l-34 -102q136 38 196 -25q32 -37 32 -88q0 -74 -66 -128q-59 -49 -141 -49q-53 0 -96 24t-57 68l-2 7l65 27l2 -6q9 -27 37.5 -43t61.5 -16q33 -5 63 11t45.5 41.5t18.5 55t-18 51.5q-34 36 -116 21q-42 -6 -75 -23l-2 -1l-41 -2l83 240h257z" />
    <glyph glyph-name="six.denominator" horiz-adv-x="429" 
d="M375 438l-138 -160q72 22 126 -11.5t54 -101.5q0 -73 -65 -128q-56 -48 -137 -48q-79 0 -119 48q-28 34 -28 85q0 54 46 108l181 208h80zM258 232q-46 0 -83 -28.5t-37 -73.5q0 -37 25 -61t62 -24q45 0 83.5 33.5t38.5 77.5q0 35 -26 55.5t-63 20.5z" />
    <glyph glyph-name="seven.denominator" horiz-adv-x="370" 
d="M52 0l266 380h-199l11 64h263l16 -41l-281 -403h-76z" />
    <glyph glyph-name="eight.denominator" horiz-adv-x="408" 
d="M143 242q-26 25 -26 68q0 67 49 105.5t116 38.5q53 0 87.5 -27.5t34.5 -76.5q0 -68 -58 -108q42 -31 42 -90q0 -71 -57 -115t-131 -44q-57 0 -97 32.5t-40 87.5q0 81 80 129zM271 393q-36 0 -60 -19t-24 -56q0 -49 62 -49q85 0 85 73q0 51 -63 51zM239 214
q-45 0 -76 -24.5t-31 -67.5q0 -31 23 -49.5t56 -18.5q42 0 75 25.5t33 66.5q0 33 -22.5 50.5t-57.5 17.5z" />
    <glyph glyph-name="nine.denominator" horiz-adv-x="424" 
d="M136 0l139 160q-72 -22 -126 11.5t-54 101.5q0 73 65 128q56 48 137 48q79 0 119 -48q28 -34 28 -85q0 -54 -46 -108l-181 -208h-81zM254 206q46 0 83 28.5t37 73.5q0 37 -25 61t-62 24q-45 0 -83.5 -33.5t-38.5 -77.5q0 -35 26 -55.5t63 -20.5z" />
    </font>
</defs>
</svg>
